<?xml version="1.0" encoding="UTF-8"?>
<svg width="360px" height="640px" viewBox="0 0 360 640" version="1.1" xmlns="http://www.w3.org/2000/svg" xmlns:xlink="http://www.w3.org/1999/xlink" style="background: #4B4B4B;">
    <!-- Generator: Sketch 49.3 (51167) - http://www.bohemiancoding.com/sketch -->
    <title>4.2.3 Voice Call - Outbound - State &amp; Number</title>
    <desc>Created with Sketch.</desc>
    <defs>
        <linearGradient x1="50%" y1="0%" x2="50%" y2="100%" id="linearGradient-1">
            <stop stop-color="#CCCCCC" offset="0%"></stop>
            <stop stop-color="#E4E5E3" offset="100%"></stop>
        </linearGradient>
        <linearGradient x1="50%" y1="96.7597083%" x2="50%" y2="0%" id="linearGradient-2">
            <stop stop-color="#000000" stop-opacity="0" offset="0%"></stop>
            <stop stop-color="#000000" stop-opacity="0.6" offset="100%"></stop>
        </linearGradient>
        <linearGradient x1="50%" y1="98.5943835%" x2="50%" y2="0%" id="linearGradient-3">
            <stop stop-color="#000000" stop-opacity="0" offset="0%"></stop>
            <stop stop-color="#000000" stop-opacity="0.8" offset="100%"></stop>
        </linearGradient>
        <rect id="path-4" x="0" y="0" width="360" height="160"></rect>
        <polyline id="path-5" points="12.21 12.3316667 12.21 0.332666667 0.211666667 12.3316667 12.21 12.3316667"></polyline>
        <path d="M7.208,1.33266667 L6.208,1.33266667 L6.208,0.333 L2.20866667,0.333 L2.20866667,1.33266667 L1.20833333,1.33266667 C0.656333333,1.33266667 0.208666667,1.78033333 0.208666667,2.33233333 L0.208666667,12.3313333 C0.208666667,12.8836667 0.656333333,13.3316667 1.20833333,13.3316667 L7.208,13.3316667 C7.76033333,13.3316667 8.208,12.8836667 8.208,12.3313333 L8.208,2.33233333 C8.208,1.78033333 7.76033333,1.33266667 7.208,1.33266667" id="path-7"></path>
        <rect id="path-9" x="0" y="0" width="60" height="60" rx="30"></rect>
        <filter x="-6.7%" y="-3.3%" width="113.3%" height="113.3%" filterUnits="objectBoundingBox" id="filter-10">
            <feOffset dx="0" dy="2" in="SourceAlpha" result="shadowOffsetOuter1"></feOffset>
            <feGaussianBlur stdDeviation="1" in="shadowOffsetOuter1" result="shadowBlurOuter1"></feGaussianBlur>
            <feColorMatrix values="0 0 0 0 0   0 0 0 0 0   0 0 0 0 0  0 0 0 0.2 0" type="matrix" in="shadowBlurOuter1"></feColorMatrix>
        </filter>
        <rect id="path-11" x="0" y="70" width="360" height="90"></rect>
        <filter x="-0.1%" y="-1.7%" width="100.3%" height="102.2%" filterUnits="objectBoundingBox" id="filter-12">
            <feOffset dx="0" dy="-1" in="SourceAlpha" result="shadowOffsetOuter1"></feOffset>
            <feColorMatrix values="0 0 0 0 0   0 0 0 0 0   0 0 0 0 0  0 0 0 0.2 0" type="matrix" in="shadowOffsetOuter1"></feColorMatrix>
        </filter>
        <circle id="path-13" cx="80" cy="80" r="80"></circle>
    </defs>
    <g id="4.2.3-Voice-Call---Outbound---State-&amp;-Number" stroke="none" stroke-width="1" fill="none" fill-rule="evenodd">
        <rect id="topOverlay" fill="url(#linearGradient-1)" x="0" y="24" width="360" height="526"></rect>
        <g id="callInfo" transform="translate(0.000000, 24.000000)">
            <g id="topOverlay" opacity="0.400000006" fill-opacity="0.400000006">
                <use fill="url(#linearGradient-2)" xlink:href="#path-4"></use>
                <use fill="url(#linearGradient-3)" xlink:href="#path-4"></use>
            </g>
            <text id="Dallas,-TX" font-family="NHaasGroteskTXStd-65Md, Neue Haas Grotesk Text Std" font-size="14" font-weight="500" line-spacing="18" fill="#FFFFFF">
                <tspan x="146.757" y="93">Dallas, TX</tspan>
            </text>
            <text id="214-555-1212" font-family="NHaasGroteskTXStd-55Rg, Neue Haas Grotesk Text Std" font-size="24" font-weight="normal" letter-spacing="0.400000006" fill="#FFFFFF">
                <tspan x="105.716" y="64.5">214-555-1212</tspan>
            </text>
            <text id="Calling" font-family="NHaasGroteskTXStd-65Md, Neue Haas Grotesk Text Std" font-size="14" font-weight="500" line-spacing="18" fill="#FFFFFF">
                <tspan x="157.264" y="35.5">Calling</tspan>
            </text>
        </g>
        <g id="andHeaderHandset-(In-Call)">
            <polygon id="Fill-1" fill="#159660" fill-rule="evenodd" points="0 0 360 0 360 24 0 24"></polygon>
            <path d="M16.9874,13.8510155 C16.9084053,13.8097364 16.8298067,13.7873645 16.752099,13.7848897 C16.6410313,13.7810291 16.4991776,13.8557671 16.3269337,14.0082128 C16.1548878,14.1612525 15.6076669,14.8605232 15.44651,15.0135629 C15.285848,15.1668006 15.1555762,15.2410436 15.0549026,15.2375789 C15.0050112,15.2359951 14.943241,15.2204535 14.868899,15.1898654 C14.7951509,15.1599702 14.0282695,14.7318352 12.4560985,13.2533094 C10.8843234,11.7739917 10.7037643,10.8375392 10.7018835,10.5771935 C10.7052491,10.4769159 10.7887973,10.3519896 10.95233,10.2016226 C11.1164567,10.0510577 11.2933532,9.90969893 11.4843063,9.77754628 C11.6753585,9.64479969 11.8524529,9.49760045 12.0167776,9.33604755 C12.1808052,9.17459364 12.2649474,9.03848136 12.268808,8.92701778 C12.2714807,8.849706 12.2545533,8.76972148 12.2179268,8.68805411 C12.1822901,8.6057928 10.7863226,6.12211495 10.7382131,6.07073875 C10.6303131,5.95482058 10.1954468,5.99253606 9.97341054,6.10320771 C8.17910425,6.99481738 7.98943798,8.27100609 8.00042595,8.7822933 C8.01121594,9.30793417 8.2481008,12.0779923 10.8648222,14.7357948 C14.1167673,18.0383242 16.4585914,17.9939763 16.6087603,17.9991238 C17.1200476,18.0164472 18.6938025,17.7891644 19.415346,16.2122418 C19.5186924,15.986048 19.6213458,15.5848385 19.4992902,15.450607 C19.4542494,15.4017056 17.0667905,13.8925917 16.9874,13.8510155" id="In-Call-Ico" fill="#FFFFFF" fill-rule="evenodd"></path>
            <g id="WiFi-Signal" stroke-width="1" fill-rule="evenodd" transform="translate(248.000000, 6.000000)" fill="#E6E6E6">
                <path d="M6.88,0.332666667 C4.37766667,0.332666667 2.05433333,1.09966667 0.131333333,2.41033333 L1.81866667,4.89066667 C3.26066667,3.90766667 5.003,3.33233333 6.88,3.33233333 C8.757,3.33233333 10.4993333,3.90766667 11.9416667,4.89066667 L13.6286667,2.41033333 C11.706,1.09966667 9.38266667,0.332666667 6.88,0.332666667" id="Fill-3" fill-opacity="0.500283062"></path>
                <path d="M6.88,3.33233333 C5.003,3.33233333 3.26066667,3.90766667 1.81866667,4.89066667 L3.50633333,7.37133333 C4.46766667,6.716 5.62866667,6.332 6.88,6.332 C8.13133333,6.332 9.29266667,6.716 10.254,7.37133333 L11.9416667,4.89066667 C10.4993333,3.90766667 8.757,3.33233333 6.88,3.33233333" id="Fill-4"></path>
                <path d="M6.88,6.332 C5.62866667,6.332 4.46766667,6.716 3.50633333,7.37133333 L5.193,9.85133333 C5.67366667,9.52366667 6.25433333,9.33166667 6.88,9.33166667 C7.50566667,9.33166667 8.08633333,9.52366667 8.567,9.85166667 L10.254,7.37133333 C9.29266667,6.716 8.13133333,6.332 6.88,6.332" id="Fill-5"></path>
                <path d="M6.88,9.33166667 C6.25433333,9.33166667 5.67366667,9.52366667 5.193,9.85133333 L6.88,12.3316667 L8.567,9.85166667 C8.08633333,9.52366667 7.50566667,9.33166667 6.88,9.33166667" id="Fill-6"></path>
            </g>
            <g id="Tower-Signal" stroke-width="1" fill-rule="evenodd" transform="translate(272.666667, 6.000000)">
                <mask id="mask-6" fill="white">
                    <use xlink:href="#path-5"></use>
                </mask>
                <g id="Clip-8"></g>
                <polyline id="Fill-7" fill-opacity="0.500283062" fill="#E6E6E6" mask="url(#mask-6)" points="12.21 0.332666667 9.21066667 3.33233333 9.21066667 12.3316667 12.21 12.3316667 12.21 0.332666667"></polyline>
                <polyline id="Fill-9" fill-opacity="0.500283062" fill="#E6E6E6" mask="url(#mask-6)" points="9.21066667 3.33233333 6.21066667 6.332 6.21066667 12.3316667 9.21066667 12.3316667 9.21066667 3.33233333"></polyline>
                <polyline id="Fill-10" fill="#E6E6E6" mask="url(#mask-6)" points="6.21066667 6.332 3.211 9.332 3.211 12.3316667 6.21066667 12.3316667 6.21066667 6.332"></polyline>
                <polyline id="Fill-11" fill="#E6E6E6" mask="url(#mask-6)" points="3.211 9.332 0.211666667 12.3316667 3.211 12.3316667 3.211 9.332"></polyline>
            </g>
            <g id="Battery" stroke-width="1" fill-rule="evenodd" transform="translate(298.666667, 5.000000)">
                <mask id="mask-8" fill="white">
                    <use xlink:href="#path-7"></use>
                </mask>
                <g id="Clip-14"></g>
                <path d="M8.208,10.3316667 L0.208666667,10.3316667 L0.208666667,12.3313333 C0.208666667,12.8836667 0.656333333,13.3316667 1.20833333,13.3316667 L7.208,13.3316667 C7.76033333,13.3316667 8.208,12.8836667 8.208,12.3313333 L8.208,10.3316667" id="Fill-13" fill="#E6E6E6" mask="url(#mask-8)"></path>
                <polygon id="Fill-15" fill="#E6E6E6" mask="url(#mask-8)" points="0.208666667 7.332 8.208 7.332 8.208 10.3316667 0.208666667 10.3316667"></polygon>
                <polygon id="Fill-16" fill-opacity="0.5" fill="#FFFFFF" mask="url(#mask-8)" points="0.208666667 4.33233333 8.208 4.33233333 8.208 7.332 0.208666667 7.332"></polygon>
                <path d="M7.208,1.33266667 L1.20833333,1.33266667 C0.656333333,1.33266667 0.208666667,1.78033333 0.208666667,2.33233333 L0.208666667,4.33233333 L8.208,4.33233333 L8.208,2.33233333 C8.208,1.78033333 7.76033333,1.33266667 7.208,1.33266667" id="Fill-17" fill-opacity="0.5" fill="#FFFFFF" mask="url(#mask-8)"></path>
                <polygon id="Fill-18" fill-opacity="0.5" fill="#FFFFFF" mask="url(#mask-8)" points="2.20866667 0.333 6.20833333 0.333 6.20833333 1.333 2.20866667 1.333"></polygon>
            </g>
            <text id="12:52" font-family="Roboto-Regular, Roboto" font-size="12" font-weight="normal" fill="#FFFFFF">
                <tspan x="319.537646" y="15.8685242">12:52</tspan>
            </text>
        </g>
        <g id="buttonOverlayEndCall" transform="translate(150.000000, 470.000000)">
            <g id="Frame">
                <use fill="black" fill-opacity="1" filter="url(#filter-10)" xlink:href="#path-9"></use>
                <use fill="#CD040B" fill-rule="evenodd" xlink:href="#path-9"></use>
            </g>
            <path d="M23.9690974,33.8371687 C23.9690974,33.8371687 24.7392207,33.7308584 24.7494121,33.0056603 C24.7494121,33.0056603 24.8510507,31.9819644 24.7434623,30.7162317 L24.6665233,30.1411134 C24.6665233,30.1411134 24.6262777,29.8095404 25.1612613,29.5608628 C25.1612613,29.5608628 28.5084806,27.8450193 34.6646685,29.3974801 C34.6646685,29.3974801 35.1585188,29.4879975 35.1506835,30.2789083 C35.1506835,30.2789083 35.067663,31.0608191 35.1340488,32.1618414 C35.1340488,32.1618414 35.0715506,32.6725699 35.6991082,32.9776875 L35.9112063,33.0955049 L39.86944,34.9690035 C39.86944,34.9690035 40.4630418,35.2343199 41.0329447,34.6556951 L41.714186,33.757923 C41.714186,33.757923 43.973642,30.821192 40.473547,27.9869074 C40.4734528,27.9870017 31.6646626,21.5910435 20.6879983,27.4251957 C20.6879983,27.4251957 16.2122779,29.6337892 17.9826471,33.2554545 C17.9825528,33.2555487 18.4005703,33.889469 18.9223518,34.6448781 C18.9223518,34.6448781 19.1673581,35.0733547 19.8953153,34.9326094 L23.9690974,33.8371687 L23.9690974,33.8371687 Z" id="Phone-End" fill="#FFFFFF" fill-rule="evenodd"></path>
        </g>
        <g id="actionBar-(In-Call)" transform="translate(0.000000, 480.000000)">
            <g>
                <use fill="black" fill-opacity="1" filter="url(#filter-12)" xlink:href="#path-11"></use>
                <use fill="#FFFFFF" fill-rule="evenodd" xlink:href="#path-11"></use>
            </g>
            <g id="actionBar-(In-Call)-+-callActions" transform="translate(70.000000, 85.000000)">
                <g id="callActions">
                    <g id="actionBarInCall-(Speaker)" transform="translate(130.000000, 0.000000)">
                        <rect id="Frame" fill-opacity="0" fill="#FFFFFF" x="0" y="0" width="90" height="60"></rect>
                        <g id="iconCallActionSpeaker-(Off)" transform="translate(25.000000, 0.000000)">
                            <rect id="frameIcon" fill-opacity="0" fill="#FFFFFF" x="0" y="0" width="40" height="39.6923077"></rect>
                            <path d="M21.218625,11.2614519 C21.459125,11.0306595 21.780125,10.9153846 22.009625,10.9153846 L22.009625,29.1166806 C21.780125,29.1166806 21.459125,28.9999496 21.218625,28.7679438 L14.44,22.8201243 L14.44,23.2974836 C14.44,23.5772982 14.22125,23.9115953 13.96175,23.9115953 L11.621625,23.9115953 C11.360625,23.9115953 11,23.5772982 11,23.2974836 L11,16.7332469 C11,16.4546457 11.360625,16.341919 11.621625,16.341919 L13.96175,16.341919 C14.22125,16.341919 14.44,16.4546457 14.44,16.7332469 L14.44,17.2091501 L21.218625,11.2614519 L21.218625,11.2614519 Z M28.567,19.235561 L24.191375,19.235561 C23.674875,19.235561 23.256875,19.6254328 23.256875,20.1266965 C23.256875,20.6266254 23.674875,21.0178319 24.191375,21.0178319 L28.567,21.0178319 C29.082,21.0178319 29.5015,20.6266254 29.5015,20.1266965 C29.5015,19.6254328 29.082,19.235561 28.567,19.235561 L28.567,19.235561 Z M24.191375,17.0329615 C24.429,17.0329615 24.6695,16.9438965 24.84975,16.7675866 L29.03825,12.7016598 C29.404375,12.3475839 29.404375,11.7733937 29.03825,11.4193178 C28.675,11.0639072 28.082,11.0639072 27.718625,11.4193178 L23.53,15.4839099 C23.165375,15.8393205 23.165375,16.4135108 23.53,16.7675866 C23.71175,16.9438965 23.950875,17.0329615 24.191375,17.0329615 L24.191375,17.0329615 Z M24.85125,23.3372838 C24.486375,22.9832079 23.8935,22.9832079 23.53,23.3372838 C23.164,23.6928157 23.164,24.2668846 23.53,24.6197471 L27.614875,28.5876296 C27.797875,28.7638181 28.038375,28.8527618 28.277375,28.8527618 C28.5165,28.8527618 28.7555,28.7638181 28.93725,28.5876296 C29.303375,28.2334324 29.303375,27.6592422 28.93725,27.3037102 L24.85125,23.3372838 L24.85125,23.3372838 Z" id="speaker" fill="#333333"></path>
                        </g>
                        <text id="Speaker" font-family="NHaasGroteskTXStd-55Rg, Neue Haas Grotesk Text Std" font-size="12" font-weight="normal" fill="#333333">
                            <tspan x="22.07" y="53">Speaker</tspan>
                        </text>
                    </g>
                    <g id="actionBarInCall-(Mute)">
                        <rect id="Frame" fill-opacity="0" fill="#FFFFFF" x="0" y="0" width="90" height="60"></rect>
                        <g id="iconCallActionMute-(Off)" transform="translate(25.000000, 0.000000)">
                            <rect id="frameIcon" fill-opacity="0" fill="#FFFFFF" x="0" y="0" width="40" height="39.6923077"></rect>
                            <path d="M19.696625,24.1960587 C21.813625,24.1960587 23.529875,22.4941269 23.529875,20.3922952 L23.529875,14.7185279 C23.529875,12.6174404 21.813625,10.9153846 19.696625,10.9153846 C17.580375,10.9153846 15.864,12.6174404 15.864,14.7185279 L15.864,20.3922952 C15.864,22.4941269 17.580375,24.1960587 19.696625,24.1960587 M17.900375,14.0600077 L21.493375,14.0600077 C21.890625,14.0600077 22.211875,14.380399 22.211875,14.7734769 C22.211875,15.1681673 21.890625,15.48645 21.493375,15.48645 L17.900375,15.48645 C17.50325,15.48645 17.181875,15.1681673 17.181875,14.7734769 C17.181875,14.380399 17.50325,14.0600077 17.900375,14.0600077 M17.900375,16.9135125 L21.493375,16.9135125 C21.890625,16.9135125 22.211875,17.2327875 22.211875,17.6264856 C22.211875,18.0206798 21.890625,18.3394587 21.493375,18.3394587 L17.900375,18.3394587 C17.50325,18.3394587 17.181875,18.0206798 17.181875,17.6264856 C17.181875,17.2327875 17.50325,16.9135125 17.900375,16.9135125 M17.900375,19.765901 L21.493375,19.765901 C21.890625,19.765901 22.211875,20.0846798 22.211875,20.478874 C22.211875,20.8724481 21.890625,21.1918471 21.493375,21.1918471 L17.900375,21.1918471 C17.50325,21.1918471 17.181875,20.8724481 17.181875,20.478874 C17.181875,20.0846798 17.50325,19.765901 17.900375,19.765901 M26.39325,20.5253885 C26.39325,20.1051462 26.050125,19.765901 25.627875,19.765901 C25.205375,19.765901 24.862375,20.1051462 24.862375,20.5253885 C24.862375,23.3528452 22.545375,25.6518981 19.69725,25.6518981 C16.848375,25.6518981 14.53025,23.3528452 14.53025,20.5253885 C14.53025,20.1051462 14.187875,19.765901 13.7655,19.765901 C13.3425,19.765901 13,20.1051462 13,20.5253885 C13,23.932725 15.597375,26.7474058 18.930625,27.1267154 L18.930625,28.0031712 L17.002625,28.0031712 C16.58075,28.0031712 16.23825,28.3425404 16.23825,28.7626587 C16.23825,29.1817846 16.58075,29.5211538 17.002625,29.5211538 L22.39075,29.5211538 C22.813,29.5211538 23.156125,29.1817846 23.156125,28.7626587 C23.156125,28.3425404 22.813,28.0031712 22.39075,28.0031712 L20.4615,28.0031712 L20.4615,27.1267154 C23.794625,26.7486462 26.39325,23.932725 26.39325,20.5253885" id="mic" fill="#333333"></path>
                        </g>
                        <text id="Mute" font-family="NHaasGroteskTXStd-55Rg, Neue Haas Grotesk Text Std" font-size="12" font-weight="normal" fill="#333333">
                            <tspan x="30.762" y="53">Mute</tspan>
                        </text>
                    </g>
                </g>
            </g>
        </g>
        <g id="avatar-(#)-+-BM" transform="translate(100.000000, 197.000000)">
            <g id="avatar-(#)">
                <mask id="mask-14" fill="white">
                    <use xlink:href="#path-13"></use>
                </mask>
                <use id="Mask" fill="#FBD362" xlink:href="#path-13"></use>
            </g>
            <text id="TX" font-family="NHaasGroteskTXStd-75Bd, Neue Haas Grotesk Text Std" font-size="60" font-weight="bold" fill="#4B4B4B">
                <tspan x="38.8044444" y="102">TX</tspan>
            </text>
        </g>
    </g>
</svg>