<?xml version="1.0" encoding="UTF-8"?>
<svg width="74px" height="60px" viewBox="0 0 74 60" version="1.1" xmlns="http://www.w3.org/2000/svg" xmlns:xlink="http://www.w3.org/1999/xlink">
    <!-- Generator: Sketch 50.2 (55047) - http://www.bohemiancoding.com/sketch -->
    <title>Combined Shape</title>
    <desc>Created with Sketch.</desc>
    <defs>
        <linearGradient x1="100%" y1="3.74939946e-31%" x2="1.11022302e-14%" y2="100%" id="linearGradient-1">
            <stop stop-color="#7A5BFF" offset="0%"></stop>
            <stop stop-color="#A66DFF" offset="100%"></stop>
        </linearGradient>
    </defs>
    <g id="current" stroke="none" stroke-width="1" fill="none" fill-rule="evenodd">
        <g id="logo" transform="translate(-172.000000, -131.000000)" fill="url(#linearGradient-1)">
            <path d="M208.25,135.116357 L208.25,134.7403 C208.25,134.7403 208.348052,134.735716 208.5625,134.874028 C208.776948,134.735716 208.875,134.7403 208.875,134.7403 L208.875,135.116357 C209.042116,135.264825 209.24518,135.471876 209.487066,135.760616 C211.232112,137.843678 223.972214,173.826445 223.972214,173.826445 C223.972214,173.826445 230.967301,143.026796 232.819726,134.622197 C234.672152,126.217598 245.125,135.072114 245.125,135.072114 C245.125,135.072114 236.046356,191 223.972214,191 C218.420256,191 210.251729,168.856831 208.5625,164.104368 C206.873271,168.856831 198.704744,191 193.152786,191 C181.078644,191 172,135.072114 172,135.072114 C172,135.072114 182.452848,126.217598 184.305274,134.622197 C186.157699,143.026796 193.152786,173.826445 193.152786,173.826445 C193.152786,173.826445 205.892888,137.843678 207.637934,135.760616 C207.87982,135.471876 208.082884,135.264825 208.25,135.116357 Z" id="Combined-Shape"></path>
        </g>
    </g>
</svg>