<?xml version="1.0" encoding="utf-8"?>
<!-- Generator: Adobe Illustrator 21.1.0, SVG Export Plug-In . SVG Version: 6.00 Build 0)  -->
<svg version="1.1" id="Layer_1" xmlns="http://www.w3.org/2000/svg" xmlns:xlink="http://www.w3.org/1999/xlink" x="0px" y="0px"
	 viewBox="0 0 841.9 595.3" style="enable-background:new 0 0 841.9 595.3;" xml:space="preserve">
<style type="text/css">
	.st0{opacity:0.1;}
	.st1{fill:url(#SVGID_1_);}
	.st2{fill:url(#SVGID_2_);}
	.st3{fill:url(#SVGID_3_);}
	.st4{fill:url(#SVGID_4_);}
	.st5{fill:#FEB067;}
	.st6{fill:url(#SVGID_5_);}
	.st7{fill:#FDCFA9;}
	.st8{fill:url(#SVGID_6_);}
	.st9{fill:url(#SVGID_7_);}
	.st10{fill:#FDE0BA;}
	.st11{fill:url(#SVGID_8_);}
	.st12{fill:url(#SVGID_9_);}
	.st13{fill:none;}
</style>
<g>
	<g>
		<g class="st0">
			
				<linearGradient id="SVGID_1_" gradientUnits="userSpaceOnUse" x1="304.4239" y1="314.2116" x2="708.0143" y2="314.2116" gradientTransform="matrix(0.9147 -0.4034 -0.3787 -0.8328 69.2488 795.5222)">
				<stop  offset="0" style="stop-color:#FDCFA9"/>
				<stop  offset="2.968225e-02" style="stop-color:#FDC98D"/>
				<stop  offset="8.248404e-02" style="stop-color:#FEC062"/>
				<stop  offset="0.1362" style="stop-color:#FEB93F"/>
				<stop  offset="0.19" style="stop-color:#FFB323"/>
				<stop  offset="0.2442" style="stop-color:#FFAF10"/>
				<stop  offset="0.2988" style="stop-color:#FFAD04"/>
				<stop  offset="0.3547" style="stop-color:#FFAC00"/>
				<stop  offset="0.5277" style="stop-color:#FDA800"/>
				<stop  offset="0.6998" style="stop-color:#F89C00"/>
				<stop  offset="0.8711" style="stop-color:#F08800"/>
				<stop  offset="1" style="stop-color:#E87400"/>
			</linearGradient>
			<path class="st1" d="M328,442.3c0,0-70-9-111-59c-25-37,3.7-81.1,30-88c26.3-6.9,405.6-64,374,22
				C565.5,399.1,370.3,442.8,328,442.3z"/>
		</g>
		<g>
			<linearGradient id="SVGID_2_" gradientUnits="userSpaceOnUse" x1="216.0003" y1="320.6327" x2="621.2971" y2="320.6327">
				<stop  offset="0" style="stop-color:#FF6B00"/>
				<stop  offset="0.2153" style="stop-color:#E85E00"/>
				<stop  offset="0.4989" style="stop-color:#D25100"/>
				<stop  offset="0.7666" style="stop-color:#C44A00"/>
				<stop  offset="1" style="stop-color:#BF4700"/>
			</linearGradient>
			<path class="st2" d="M294.7,262.3c0,0-79.3,44.7-78.2,58c-9.2,36.4,96.6,101.5,123.7,98.3c27.1-3.3,332.9-66.1,273.4-145.7
				C538.5,176.7,334.3,244.7,294.7,262.3z"/>
			
				<linearGradient id="SVGID_3_" gradientUnits="userSpaceOnUse" x1="237.5342" y1="312.5044" x2="639.4726" y2="312.5044" gradientTransform="matrix(0.998 6.390000e-02 -6.390000e-02 0.998 0.6523 -19.5377)">
				<stop  offset="0" style="stop-color:#FDCFA9"/>
				<stop  offset="2.968225e-02" style="stop-color:#FDC98D"/>
				<stop  offset="8.248404e-02" style="stop-color:#FEC062"/>
				<stop  offset="0.1362" style="stop-color:#FEB93F"/>
				<stop  offset="0.19" style="stop-color:#FFB323"/>
				<stop  offset="0.2442" style="stop-color:#FFAF10"/>
				<stop  offset="0.2988" style="stop-color:#FFAD04"/>
				<stop  offset="0.3547" style="stop-color:#FFAC00"/>
				<stop  offset="0.5277" style="stop-color:#FDA800"/>
				<stop  offset="0.6998" style="stop-color:#F89C00"/>
				<stop  offset="0.8711" style="stop-color:#F08800"/>
				<stop  offset="1" style="stop-color:#E87400"/>
			</linearGradient>
			<path class="st3" d="M295.2,264.2c0,0-79,42.4-77.9,55.1c-9.1,34.7,96.7,97.1,123.7,94.1c27-3,332.2-62.1,272.5-138.1
				C538.2,183.3,334.6,247.5,295.2,264.2z"/>
			
				<linearGradient id="SVGID_4_" gradientUnits="userSpaceOnUse" x1="317.3089" y1="98.1783" x2="545.5068" y2="342.5611" gradientTransform="matrix(0.998 6.390000e-02 -6.390000e-02 0.998 0.6523 -19.5377)">
				<stop  offset="0" style="stop-color:#FDCFA9"/>
				<stop  offset="2.968225e-02" style="stop-color:#FDC98D"/>
				<stop  offset="8.248404e-02" style="stop-color:#FEC062"/>
				<stop  offset="0.1362" style="stop-color:#FEB93F"/>
				<stop  offset="0.19" style="stop-color:#FFB323"/>
				<stop  offset="0.2442" style="stop-color:#FFAF10"/>
				<stop  offset="0.2988" style="stop-color:#FFAD04"/>
				<stop  offset="0.3547" style="stop-color:#FFAC00"/>
				<stop  offset="0.5277" style="stop-color:#FDA800"/>
				<stop  offset="0.6998" style="stop-color:#F89C00"/>
				<stop  offset="0.8711" style="stop-color:#F08800"/>
				<stop  offset="1" style="stop-color:#E87400"/>
			</linearGradient>
			<path class="st4" d="M280.4,302.3c0,0-7.7-181.5,157-193.3c164.7-11.9,180.2,188.7,180.2,188.7s-67.7,60.3-196.5,62.5
				C292.3,362.4,280.4,302.3,280.4,302.3z"/>
			<path class="st5" d="M307.2,234.8c0,0,21.2-77.3,75.6-92.1c0,0,19.2,45.5,41.9,57.2c0,0-25.6,22-30.9,50
				C388.5,278,296.2,266,307.2,234.8z"/>
			
				<linearGradient id="SVGID_5_" gradientUnits="userSpaceOnUse" x1="596.2357" y1="237.9182" x2="273.9154" y2="237.9182" gradientTransform="matrix(0.9959 -9.000000e-02 9.000000e-02 0.9959 -26.7192 26.1075)">
				<stop  offset="0" style="stop-color:#FFB300"/>
				<stop  offset="0.8212" style="stop-color:#FDB600"/>
				<stop  offset="0.9946" style="stop-color:#FF7700"/>
			</linearGradient>
			<path class="st6" d="M587.4,197.9c0,0-7.5-9.3-12.4-16.9c-1.6-2.6-3.4-5.1-5.1-7.6c-26.9-33.7-67.7-59.3-129.5-54.8
				c-2.4,0.2-4.8,0.4-7.1,0.6C287.1,134,283,287.7,283.2,310c0.8,1.6,1.9,3.4,3.1,5.3c0,0,0,0,0,0c4.6,6.8,12.4,15.3,25.6,23
				c0.2,0.1,0.4,0.2,0.6,0.4c-0.7-1.9-0.9-3-0.9-3s-7.9-179.2,148.6-190.3c53.3-3.8,58.8,1.6,83.5,14.4
				c24.8,12.8,39.1,33.4,39.1,33.4L587.4,197.9z"/>
			<path class="st7" d="M389.5,166.3c-7.3-12.4-11.8-23.2-11.8-23.2c-54.4,14.8-75.6,92.1-75.6,92.1c-4,11.3,5.7,20.1,19.8,25.4
				C331.8,226.8,351.3,189.3,389.5,166.3z"/>
			<linearGradient id="SVGID_6_" gradientUnits="userSpaceOnUse" x1="309.2039" y1="239.3482" x2="593.2344" y2="239.3482">
				<stop  offset="0" style="stop-color:#FFF0EB"/>
				<stop  offset="2.370509e-02" style="stop-color:#F9DDD3"/>
				<stop  offset="7.148123e-02" style="stop-color:#EFBDAA"/>
				<stop  offset="0.1235" style="stop-color:#E6A085"/>
				<stop  offset="0.1792" style="stop-color:#DF8866"/>
				<stop  offset="0.2398" style="stop-color:#D9744D"/>
				<stop  offset="0.3071" style="stop-color:#D4653A"/>
				<stop  offset="0.385" style="stop-color:#D15A2C"/>
				<stop  offset="0.4826" style="stop-color:#CF5424"/>
				<stop  offset="0.6634" style="stop-color:#CE5222"/>
				<stop  offset="1" style="stop-color:#D97500"/>
			</linearGradient>
			<path class="st8" d="M312.5,340.6l-0.2-3.5c0,0-8-181.4,150.2-192.7c53.8-3.8,91.1,16.9,117,45.9c5,5.2,9.6,10.8,13.8,16.5
				c-25.5-39.9-66.9-73-133.8-68.3c-158.2,11.3-150.2,192.7-150.2,192.7l0.4,7.3L312.5,340.6z"/>
			
				<linearGradient id="SVGID_7_" gradientUnits="userSpaceOnUse" x1="283.8704" y1="221.7359" x2="589.6541" y2="221.7359" gradientTransform="matrix(0.9959 -9.000000e-02 9.000000e-02 0.9959 -26.7192 26.1075)">
				<stop  offset="0" style="stop-color:#FFF0EB"/>
				<stop  offset="2.370509e-02" style="stop-color:#F9DDD3"/>
				<stop  offset="7.148123e-02" style="stop-color:#EFBDAA"/>
				<stop  offset="0.1235" style="stop-color:#E6A085"/>
				<stop  offset="0.1792" style="stop-color:#DF8866"/>
				<stop  offset="0.2398" style="stop-color:#D9744D"/>
				<stop  offset="0.3071" style="stop-color:#D4653A"/>
				<stop  offset="0.385" style="stop-color:#D15A2C"/>
				<stop  offset="0.4826" style="stop-color:#CF5424"/>
				<stop  offset="0.6634" style="stop-color:#CE5222"/>
				<stop  offset="1" style="stop-color:#D97500"/>
			</linearGradient>
			<path class="st9" d="M440.6,115.2C276.1,127.1,284,311,284,311s0.1,0.3,0.2,1c-0.2-21.1,3-182.4,156.6-193.4
				c51.2-3.7,88,13.5,114.4,38.9c3.5,3.2,6.8,6.5,10,10c5.2,5.3,9.9,10.9,14.3,16.7C553.2,143.8,510.2,110.2,440.6,115.2z"/>
			<path class="st10" d="M257,295.3c0,0-23.9,12.1-29,22.3c-5.1,10.2,6.6,24.9,19.6,35.7c13,10.8,11.2-0.4,1.3-19.3
				C239,315.1,257,295.3,257,295.3z"/>
			
				<linearGradient id="SVGID_8_" gradientUnits="userSpaceOnUse" x1="330.4462" y1="195.0311" x2="524.1985" y2="402.5254" gradientTransform="matrix(0.9959 -9.000000e-02 9.000000e-02 0.9959 -26.7192 26.1075)">
				<stop  offset="0" style="stop-color:#FFFFFF"/>
				<stop  offset="0.1218" style="stop-color:#FFFEFD"/>
				<stop  offset="0.1851" style="stop-color:#FFF9F5"/>
				<stop  offset="0.2351" style="stop-color:#FFF1E7"/>
				<stop  offset="0.278" style="stop-color:#FFE6D4"/>
				<stop  offset="0.3164" style="stop-color:#FFD8BC"/>
				<stop  offset="0.3516" style="stop-color:#FFC69D"/>
				<stop  offset="0.3843" style="stop-color:#FFB179"/>
				<stop  offset="0.4151" style="stop-color:#FF994F"/>
				<stop  offset="0.4432" style="stop-color:#FF7E21"/>
				<stop  offset="0.4607" style="stop-color:#FF6B00"/>
				<stop  offset="0.5768" style="stop-color:#E85E00"/>
				<stop  offset="0.7297" style="stop-color:#D25100"/>
				<stop  offset="0.8741" style="stop-color:#C44A00"/>
				<stop  offset="1" style="stop-color:#BF4700"/>
			</linearGradient>
			<path class="st11" d="M420.4,356.6c-54.2,0.9-86.9-9.1-107.8-21c-1.1-0.6-2.2,1.4-3.2,0.7c-16.5-10.2-25.2-23.9-28.7-30.9
				c0,0.1,0,0.2,0,0.2s4.6,19.5,29.1,35.5c1.2,0.8,1.4-1.3,2.7-0.5c20.6,12.1,54.3,23.8,108.9,22.8c128.8-2.2,196.5-62.5,196.5-62.5
				s-0.2-1.9-0.6-5.3C606,304.8,538.8,354.6,420.4,356.6z"/>
			
				<linearGradient id="SVGID_9_" gradientUnits="userSpaceOnUse" x1="604.4152" y1="266.8158" x2="483.5503" y2="339.988" gradientTransform="matrix(0.9959 -9.000000e-02 9.000000e-02 0.9959 -26.7192 26.1075)">
				<stop  offset="0" style="stop-color:#FFCE4A"/>
				<stop  offset="1" style="stop-color:#F98800"/>
			</linearGradient>
			<path class="st12" d="M575.1,194.2c0,0,28,40.8,32.9,95.4c0,0-13,23.5-78.4,32C464,330.2,623,288.9,575.1,194.2z"/>
		</g>
	</g>
	<rect x="190" y="55.3" class="st13" width="463" height="441"/>
</g>
</svg>
