<svg xmlns="http://www.w3.org/2000/svg" viewBox="0 0 248.19 138.93"><title>Asset 3</title><g id="Layer_2" data-name="Layer 2"><g id="Layer_1-2" data-name="Layer 1"><path d="M117.26,63.36A59.35,59.35,0,0,0,111.78,67c-5.34,4.51-10.71,9-14.9,14.68C95.08,84.17,92,84,89.33,83.45c-2.47-.51-3.2-2.83-3.69-5.06-.8-3.71.08-7.26,1.09-10.79.17-.6.77-1.32.23-1.83s-1.13.09-1.71.27c-5.47,1.71-9.46,5.68-13.86,9-1.63,1.24-3.12,2.66-4.68,4a4,4,0,0,1-5.81,0,1.27,1.27,0,0,0-1.68,0,25.62,25.62,0,0,1-7.64,2.74c-4.15,1-8.13-2.33-7.64-6.38a9.06,9.06,0,0,1,2.19-4.79,47.24,47.24,0,0,1,7.44-7.12,6.39,6.39,0,0,1,3.6-1.58c.85,0,1.75,0,2.18.86a2.37,2.37,0,0,1-.18,2.68C58,66.77,56.72,68,55.43,69.22a1,1,0,0,1-1.48,0c-.73-.91-1.35-.55-1.89.13-1.42,1.76-3.12,3.34-3.76,5.62-.57,2,.07,3,2.19,3a15.35,15.35,0,0,0,13.33-6.49A32.2,32.2,0,0,0,67,65.22c.84-1.91-1.41-5-3.67-5.22-1.41-.11-2.87-.44-4.28.15a2.56,2.56,0,0,1-1,.12c-.71,0-1.36-.2-1.56-1s.26-1.12.79-1.51c2.06-1.5,6.23-1.68,8.38-.26a7.9,7.9,0,0,1,2.5,2.16c.69,1.08,1.1.6,1.4-.27C71.1,55,73,50.67,73.95,46c.53-2.5.91-5,1.25-7.53a4.11,4.11,0,0,0-.29-2.27,3.73,3.73,0,0,1,.61-3.76c.75-1.12,1.74-.95,2.81-.55s1.22,1,1.08,2.1c-.34,2.64-.37,5.33-.85,7.94-.52,2.82-1.38,5.57-2.13,8.34A88.91,88.91,0,0,1,71.67,63,116.11,116.11,0,0,0,66.9,74.7a4.65,4.65,0,0,0,2-1.2c6-4.56,11.83-9.4,19.18-11.81,2.79-.92,3.88-.11,3.64,2.81-.18,2.19-1.11,4.17-1.62,6.26a21.27,21.27,0,0,0-.37,7.73A2.84,2.84,0,0,0,90.45,80c.66.78,1.13,1,1.85-.08a47.22,47.22,0,0,0,4.09-7,12.13,12.13,0,0,1,.84-1.63c.43-.69.85-1.67,1.85-1.31s.61,1.37.54,2.19c0,.51-.58,1.19.07,1.5s1-.35,1.39-.72c4.49-4.58,9.83-8.12,14.71-12.22a5.9,5.9,0,0,1,4.5-1.78c1.37.14,2,.75,2,2.1a22.4,22.4,0,0,1-.84,5.56,12.57,12.57,0,0,0,.27,6.19c.9,3.7,1.62,7.49,3.6,10.84a11.21,11.21,0,0,0,1.54,2.17c.38.4.86.84.44,1.44a1.21,1.21,0,0,1-1.66.25,6.23,6.23,0,0,1-2.81-2.52,57.54,57.54,0,0,1-2.66-5.17C119,77,118,74.32,116.88,71.58a6.69,6.69,0,0,1,0-3.94A13.12,13.12,0,0,0,117.26,63.36Z"/><path d="M242.82,57.53c1.28,0,2.55,0,3.83,0,.69,0,1.46-.12,1.54.8s-.68,1.14-1.34,1.19c-1.83.15-3.63.45-5.44.71s-3.82,0-5.62.51c-4.4,1.15-9.12,1.53-12.72,4.82a1.8,1.8,0,0,0-.65,2.42c.73,1.64-.46,4.26-2.49,5.73a27.13,27.13,0,0,1-13.74,5.47A7.9,7.9,0,0,1,199.46,77c-1.07-1.17-2-1.35-3.29-.48a4.47,4.47,0,0,1-1.41.47c-.59.15-1.07.4-1,1.09a1.19,1.19,0,0,0,.95,1.21,4.23,4.23,0,0,1,1.92,1c.95.84.8,1.67-.36,2.15-2.33,1-4.37.28-5.33-2a16,16,0,0,1-1-9.28,33,33,0,0,0,.74-5.9,18.77,18.77,0,0,1,1.18-5c.62-2.19,1.1-4.39,1.58-6.61.78-3.65,1.84-7.25,2.75-10.88,1.36-5.41,2.71-10.83,4-16.25.26-1.07.26-2.2.42-3.29s1.62-2.33,2.61-2a1.88,1.88,0,0,1,1.45,2.42c-.13.59-.21,1.2-.39,1.78a88.44,88.44,0,0,0-3.17,12.16c-.46,3-1.61,6-2.41,9-1.32,5-2.23,10-3.4,15.06-.6,2.59-1,5.21-1.38,7.83,0,.33-.18.65.09.94.44.46,3.66,0,4-.6.91-1.53,1.07-3.36,2.06-4.89a19.21,19.21,0,0,1,13.91-9,3.37,3.37,0,0,1,3.55,1.31c.9,1.31.21,2.5-.48,3.55a24.78,24.78,0,0,1-6.2,6c-2.57,1.92-5.22,3.75-7.87,5.57-.84.58-.79,1.18-.14,1.75a4.93,4.93,0,0,0,3.42,1.51,21.05,21.05,0,0,0,11.16-3.82c1.1-.75,1.57-1.55.22-2.6-1-.79-.81-1.79-.24-2.83,1.53-2.79,4.13-4.27,6.82-5.62,3.75-1.87,7.89-2,11.94-2.64A50.23,50.23,0,0,1,242.82,57.53Zm-30.27,2.13a4.37,4.37,0,0,0-.86.2,18.44,18.44,0,0,0-8,6.72c-.25.36-.85.84-.37,1.29s.93-.09,1.34-.35a77.76,77.76,0,0,0,8.63-6.74c.24-.21.55-.47.33-.84S213,59.67,212.55,59.65Z"/><path d="M158,50.31c4.09-.17,8.18-.29,12.26-.53a28.6,28.6,0,0,0,4.24-.75,1.78,1.78,0,0,1,2.13.88c.48.88-.24,1.39-.84,1.73a13.6,13.6,0,0,1-9.55,1.73,12.25,12.25,0,0,0-5.09-.2,23.27,23.27,0,0,1-6.78.32c-1.13-.07-1.66.29-1.82,1.38-.45,3.18-.65,6.43-1.33,9.54-.93,4.28-.54,8.59-1,12.88a93.16,93.16,0,0,0-.31,19.1,106.39,106.39,0,0,0,2.5,15.52,56.81,56.81,0,0,0,5.74,14.68c.44.76.87.89,1.58.36a1.27,1.27,0,0,1,1.69,0c.6.5.27,1,.16,1.65a3,3,0,0,1-3,2.82,2.45,2.45,0,0,1-2.36-.91A38.39,38.39,0,0,1,150,117.61c-.53-1.75-1-3.53-1.42-5.29-.63-2.35-.88-4.77-1.28-7.16a53.37,53.37,0,0,1-.69-10.87c.21-5.17-.54-10.38.49-15.51a5.4,5.4,0,0,0,.13-1,152.7,152.7,0,0,1,2.14-22.12c.22-1.42-.13-1.67-1.54-1.56-5.2.38-10.25,1.79-15.47,2-.82,0-1.63.18-1.9-.82a1.71,1.71,0,0,1,1-1.93,7.62,7.62,0,0,1,4.14-1.06c4.06,0,8-1.27,12.07-1.14,2.32.07,2.55-.75,3.05-3,.71-3.11.93-6.3,2-9.36a45.67,45.67,0,0,0,1.58-7.63c.75-5,2.52-9.6,4.27-14.26,1-2.54,2-5.05,3-7.59.37-1,.94-1.93,0-2.94a.67.67,0,0,1-.09-.63c1.42-1.78,1.8-4.32,4-5.49a1.76,1.76,0,0,1,2.27.31A1.72,1.72,0,0,1,168,2.72c-1.73,3.88-3.58,7.72-5.12,11.69-1.82,4.69-3.44,9.46-5,14.24-.58,1.77-.65,3.7-1.06,5.54-1.1,5-2.25,10-3.38,15.06-.17.76,0,1.16.9,1.11,1.22-.06,2.44,0,3.66,0Z"/><path d="M39.3,68c.48-4.89-.73-10.38-2.18-15.78a54.09,54.09,0,0,0-7.93-16.73A14.39,14.39,0,0,0,26.71,33c-1.11-1-1-2.22.28-3.27s3-1.13,3.66,0a87.72,87.72,0,0,1,8.09,16.88,59.22,59.22,0,0,1,3.21,15.69,81.17,81.17,0,0,1-.5,16.23A103.64,103.64,0,0,1,39,92.78a68.85,68.85,0,0,1-6.22,15.36,107.8,107.8,0,0,1-6.25,10.2,76.29,76.29,0,0,1-5.73,6.88,56.35,56.35,0,0,1-8.53,7.88c-2.73,2-5.54,3.85-8.43,5.56-1,.59-2.31.12-3.27-.62s-.46-1.7-.09-2.57a25.13,25.13,0,0,1,3.47-6c.48-.6,1.21-1.26,2-.56s.34,1.49-.22,2.08a7,7,0,0,0-1,2.26c-.15.33-.52.73-.09,1s.75-.06,1.06-.27a72.28,72.28,0,0,0,7-5.07A112.4,112.4,0,0,0,21.38,120a74.78,74.78,0,0,0,9.46-13.81,54.86,54.86,0,0,0,5.91-15.78,116,116,0,0,0,2-13.25C39,74.4,39.27,71.59,39.3,68Z"/><path d="M172.12,75c-1.48.79-2.87,1.47-4.2,2.24a11.81,11.81,0,0,1-4.79,1.14c-1.76.19-3.55-2.33-3.34-4.65a22.91,22.91,0,0,1,2.15-8.33,3.46,3.46,0,0,1,1.23-1.32,1.75,1.75,0,0,1,2.17-.14,1.86,1.86,0,0,1,.63,2.24c-.56,1.56-1.17,3.11-1.72,4.67a11.06,11.06,0,0,0-.5,1.93c-.27,1.67.83,2.65,2.5,2.2a7.74,7.74,0,0,0,2.48-.93c3.22-2.3,6.7-4.31,9.31-7.38a35,35,0,0,1,5.22-4.63c.88-.7,1.88-1.11,2.87-.26s.38,1.84.06,2.76a2.5,2.5,0,0,1-1,1.28c-5.35,3.46-8.35,8.63-10.86,14.3a52.81,52.81,0,0,0-3.41,9.66c-.7,3.1-1.61,6.21-1.59,9.46a11.86,11.86,0,0,1-.51,3.94,2.68,2.68,0,0,0,.32,2.7c.74.88.19,1.5-.37,2.18a3.24,3.24,0,0,1-3.58,1.14c-1-.25-1-1.14-.93-1.92a33.9,33.9,0,0,1,.42-3.62c.8-4.41,1-8.9,2.27-13.24.62-2.15.82-4.41,1.49-6.59a57,57,0,0,1,3.39-7.7C171.94,75.86,172.26,75.65,172.12,75Z"/><path d="M17.65,9.82a2.37,2.37,0,0,1,2,1c1,1,1.57,2.4,2.79,3.26a1,1,0,0,1,.25,1.36.91.91,0,0,1-1.16.4A24.62,24.62,0,0,1,16.39,14c-1-.63-1.9-1.48-1.49-2.84S16.57,9.95,17.65,9.82Z"/></g></g></svg>