<svg xmlns="http://www.w3.org/2000/svg" viewBox="0 0 1745 2326"><defs><style>.cls-1{fill:#fff;}</style></defs><title>Asset 3</title><g id="Layer_2" data-name="Layer 2"><g id="Layer_1-2" data-name="Layer 1"><g id="jt"><path class="cls-1" d="M0,2326V0H1745V2326Zm1017-765.82a13.63,13.63,0,0,0-6.51,14.84c1,4.3.11,8.17.55,12.19.38,3.55-3,6.13-5.83,4.39a93.87,93.87,0,0,1-26.47-24c-3.11-4.2-6-9.61-10.26-11.68-6-2.9-5.92-9.38-10.31-13-2.43-2-2.9-6.37-4.3-9.65-2-4.59-3.7-9.29-6-13.69-1.91-3.63-5.27-6.61-6.62-10.37-2-5.47-6.58-9.74-6.77-16-.06-1.86-1.63-3.67-2.53-5.54l-1.71,1.07-4.39-15.37-1.89.43c0-2.21.54-4.3-.11-5.91-1.64-4.06-1.53-8.39-3.35-12.67-3.71-8.72-3.9-18.87-6.84-28-2.28-7.1,1.32-15.15-4.11-21.53-.32-.38.44-1.53.37-2.3-.16-1.94-.55-3.86-.77-5.8-.46-4.09-.72-8.21-1.32-12.28-.78-5.28-1.81-10.52-2.78-16,2.82-1.2,2.23-4.07,1.41-7.08-.73-2.68-2.43-5.76-1.71-8,1.19-3.71,1.92-6.78-.36-10.24-.64-1-.44-2.57-.39-3.87.28-6.46.47-12.94,1-19.38.65-7.81,1-15.65,1.84-23.46.66-6.21,1.59-12.44,2.29-18.66.4-3.51.84-7,1.38-10.52,1.14-7.31,2.35-14.61,3.54-21.91.68-4.18,1.3-8.36,2.13-12.51.22-1.12,1.62-2.12,1.59-3.16-.23-10.17,4.2-18.94,7.94-28,1.11-2.68,1.49-5.66,2.16-8.51.72-3,1.38-6.11,2.06-9.17l.14.18,2.27-18.14c0-1.09,1-2.29,1.2-3.61,1-7.22,1.65-14.33,4.7-21.29,2.16-4.93,2.92-10.38,7.08-13.94-.09-3.45-.23-7.33,1.61-9.61,2.17-2.69,2.18-5.57,2.84-8.37.79-3.37,0-7.25,1.3-10.32,3.14-7.46,7-14.59,5.31-23.14-.08-.41.79-1,1.05-1.52.88-1.9,1.74-3.81,2.52-5.75,1-2.54,2-5.09,2.92-7.69a43.56,43.56,0,0,0,1-4.49c.84-3.73.82-8,2.66-11.1,6.63-11.31,16.45-20.86,17.59-35.07.29-3.65,2.21-7.51,4.39-10.56,2-2.75,5.81-6.79,7.94-6.31,6.57,1.47,12.16-1.68,17-3.83a93.72,93.72,0,0,1,20.51-6.23c6.06-1.19,12-2.9,18.07-4.07,4.16-.81,8.41-1.16,12.63-1.61,3.78-.4,7.73-.1,11.34-1.09,5.49-1.51,10-4.46,16.66-4.19s16.28,1.29,21.49-7.27v2.36h8l-1.22-1.92c5.28-.59,10.42-1.13,15.54-1.8.46-.06.8-1,1.19-1.54,3.86,3,8.64-1,11.74.76,4.83,2.69,6.84-2.82,11.11-2.41,2.41.23,5.95-4.71,10.32-5.16,3.09-.32,6.11-1.69,9.19-1.78,6.36-.19,12.31-1.38,16.75-4.24,4.64-.27,8.42-.18,12.06-.81,2.09-.36,3.89-2.58,6-2.82,8.9-1,15.89-8.41,25.36-7.4.79.08,1.66-.88,2.53-1.25a23.34,23.34,0,0,1,4.41-1.64c4-.78,8.17-.89,12-2.16,3-1,4.69-.11,6.17,2.05,2.13,3.11,4.87,3.15,8.38,2.9,4.41-.31,5.16-4,7-6.37,4.24-5.31,9.15-10.64,7.34-18.51-.43-1.87.16-4.08-.59-5.75a100.22,100.22,0,0,0-5.58-10.08c-3.22-5.47-11.81-9.6-17.58-7.73-6,1.93-11.61,4.76-17.39,7.22a11.47,11.47,0,0,1-2.63,1.24c-4.71.6-9.57.52-14.13,1.67-7.46,1.89-14.73,4.54-20.69,6.42-2.11-1.44-3.57-2.9-4-2.65-6.06,3.76-12.57,4.51-19.5,3.82-1.58-.16-3.43.77-4.93,1.59-5.42,3-10.51,6.59-16.91,7.31-3,.34-8.19.15-8.63,1.45-1.41,4.21-4.39,3.85-7.38,4.49-4.67,1-8.92,4-14.25,1.4-1.25-.61-5.33-1.24-7.18,2.14-.7,1.28-3.28,2.58-4.6,2.25-3.06-.77-5,.81-7.46,1.82-4.42,1.81-9.09,3-13.65,4.48-5.83,1.89-11.61,3.93-17.5,5.64-1.22.35-2.78-.47-4-.71-2.81,1.27-5.76,2.73-8.82,4-2.76,1.11-5.61,2-8.44,2.91-.5.16-1.14-.16-1.69-.09-4.79.6-9.45,1.82-14.32,2.34-9.42,1-18.55,4.54-27.86,6.78-3,.73-7.52-3.5-6.88-6.22.84-3.58,1.91-7.11,3-10.63.37-1.22.72-2.7,1.6-3.45a28,28,0,0,0,8-11.77c2.39-6.33,3.92-13.49,8-18.58,6.15-7.72,7.56-17.36,12.74-25.36,5-7.71,9.28-15.91,13.53-24.07s8.06-16.4,12-24.65c.79-1.65,1-3.57,1.89-5.17,2.84-5.37,6.45-10.42,8.62-16,2-5.13,2.43-10.83,6.74-14.91a2,2,0,0,0,.36-1.4c-.23-5.88,3.7-9.91,6.27-14.59,3.58-6.54,6.78-13.3,10.23-20.15.58-.54,1.91-1.25,2.4-2.35.85-1.92.8-4.28,1.79-6.09,4.31-7.89,8.8-15.69,13.34-23.46,3.73-6.37,7.57-12.68,11.47-19,2.78-4.47,5.77-8.8,8.58-13.25,2.39-3.79,4.63-7.67,7-11.48,1.78-2.88,3.77-5.64,5.44-8.59,2.95-5.19,5.56-10.57,8.63-15.68,2.47-4.1,5.44-7.9,8.14-11.87,2.87-4.23,6.53-8.19,8.21-12.85,1.17-3.26,3.37-5.49,4.9-8.29a131.05,131.05,0,0,1,9-13.77c3.06-4.22,6.48-8.19,9.73-12.28,1.3-1.64,2.69-3.22,3.81-5,1.47-2.28,2.44-4.93,4.11-7,5.11-6.45,10.49-12.7,15.69-19.08,2.41-3,6-5.8,6.65-9.15,1.08-5.59,5.39-11.41.84-17.38-.18-.23.18-.87.29-1.32,1-4.58-2.37-7.84-5.1-9.34-2.56-1.4-7.44-.77-10.14.88-3.53,2.16-6.26,6-8.69,9.48-3,4.36-5.34,9.18-7.95,13.81-.92,1.64-1.83,3.29-2.66,5-3,6.16-6,12.35-13.19,13.43a39.44,39.44,0,0,1-2,5.73,32.34,32.34,0,0,1-3.8,5.52c-4,4.8-5.1,11.18-9.48,16-6.11,6.73-11,14.53-16.43,21.9-1.64,2.23-1.58,5.06-4,7.37-3.24,3.12-6.59,6.35-9,10.67-1.72,3-3.44,5.49-3.58,9a10.42,10.42,0,0,1-1.2,3.68c-2.68,5.87-8.88,9.2-10.22,16.49-.94,5.16-5.5,9.62-8.29,14.48-3.27,5.68-5,12.1-9.17,17.44-3.05,3.87-4.19,9.24-7.15,13.21-2.83,3.79-6.15,6.77-7.86,11.71-2.05,5.93-6.46,11-9.73,16.55-1.29,2.18-2,4.68-3.42,6.79-2.61,4-7,7.52-7.92,11.83a67.64,67.64,0,0,1-6.79,17.46c-.89,1.68-1.38,3.65-2.57,5.06-2.08,2.45-5.25,4.19-6.7,6.91-1.9,3.56-2.64,7.75-3.78,11.7-1.57,5.42-3,10.87-4.59,16.47-.06,0-1.3-.32-1.56.05-2.58,3.6-5.55,7.07-7.31,11.07-1.9,4.32-2.31,9.26-4.63,13.53s-3.75,9.48-7.08,12.72c-7,6.78-8.85,15.56-11.79,24.06a40.17,40.17,0,0,1-3,6c-2.55,4.66-4.91,9.46-9.37,12.75-.59.44-.61,1.62-1,2.43-1.63,3.75-3.35,7.47-4.88,11.26-.66,1.64-.83,3.47-1.41,5.15-1.12,3.26-1.47,7.6-3.78,9.45a14.09,14.09,0,0,0-5.34,10c-1.89,1.31-3.37,2.09-3.29,2.31,2.28,6.3-3.59,10-5.26,14.93-3.05,9-13.37,10.87-21.15,14.54-5.64,2.67-12.59,2.43-18.63,4.45-7,2.34-13.83,4.72-21.31,4.14-2.42-.19-4.14-.17-6,2.23-1.35,1.72-6.66,3-7,2.36-2.11-3.27-4,.29-5.8-.28-.38-.12-1,.82-1.61,1.13-6.66,3.49-14.33,2.61-21.43,4.27-6.88,1.61-14.19,4.88-21.85,3.25-.93-.2-2.69.33-3,1-1.67,3.43-4.38,4.14-7.72,3.46-9.93-2-16.07,8.11-25.42,7.9-.11,0-.32.12-.34.21-.82,4.31-4.26,3-7,3.35-1.24.16-3.09.33-3.55,1.14a87.11,87.11,0,0,0-6.09,12.36c-.57,1.5,1.5,4.17.8,5.42-4.34,7.7,5.26,10.56,4.46,16.8,2.9-1.88,4.42-4.28,7.64-1.53,1.09.94,4.22.45,5.89-.41,6.59-3.4,11.81-9.29,19.66-10.44,3.6-.53,7.13-1.52,10.53-2.27l-.23-2.09c3.56.41,8.35,2.33,9.81.89,4.67-4.63,10.93-3.6,16-4.74,4.24-1,8.72-2,13.1-3a13.7,13.7,0,0,1,4.11-.14c8.12.68,16-.17,23.27-4,1.36-.72,2.55-2.18,3.94-2.37,5-.66,9.47-2.13,12.48-6.72,4.36,1,8.65,2.14,13,3.07,4.81,1,6.14,4.33,6.15,8.75,0,7.89-3.34,14.83-6.18,21.85-1.45,3.6-1.35,8.28-5.73,10.32.33,7.89-6.73,13.33-7,20.94-.19,4.83-7.73,7.9-3.18,13.78.12.15-.39.8-.62,1.21-3,5.21-6.27,10.14-4.58,16.85.59,2.34-.48,5.7-1.92,7.82A33.22,33.22,0,0,0,917,1128.1c-.06.81-.08,2.24-.39,2.32-4.4,1.16-2.18,4.87-2.76,7.35-.92,3.87-1.11,7.91-1.73,11.86-.86,5.49-5.09,9.58-4.79,16,.31,6.66-2.92,13.44-4.29,20.23-1.31,6.54-1.9,13.23-3.4,19.72a143.37,143.37,0,0,1-5.33,17.13c-1.36,3.7,1.22,8.7-3.68,11.29-.26.14.21,1.62.3,2.48a13.38,13.38,0,0,1,.22,3c-1,8.47-2.9,16.93-3,25.41-.11,10.15-3.17,19.94-2.5,30.2.42,6.44-4.29,12.22-2.07,19.65,1.62,5.44-.5,12-1,18.06a26.65,26.65,0,0,0-.34,4.25c.5,5.74,1.17,11.46,1.72,17.2.38,4,.72,7.93,1,11.9.42,7,3.13,13.8,1.35,21a19.69,19.69,0,0,0-.69,7.73c.74,4.41,2.36,8.67,3.36,13q3,13.12,5.67,26.31c.77,3.8.75,7.81,1.86,11.49,2.46,8.21,5.53,16.24,8.12,24.41,2.33,7.36,4.29,14.85,6.54,22.24,1.23,4.06,6.36,6.46,5,11.7-.07.26,1.08.68,1.32,1.19,3.05,6.3,6.4,12.5,8.89,19,1.24,3.23.76,7,4,9.57a28.57,28.57,0,0,1,5.24,6.42c5,7.5,9.9,15.08,14.78,22.66,4.13,6.41,8.13,12.89,12.33,19.25.54.81,1.95,1.06,3,1.53.75.34,1.81.4,2.26,1,1.36,1.68,2.27,3.75,3.74,5.3,4.18,4.41,8.34,8.87,12.91,12.87a117.93,117.93,0,0,0,13.39,10c5.89,3.83,9.64,12,18.73,9.57,4.29-1.16,10-1.18,12.45-4,2.71-3.09,3.28-8.65,2.21-13.52-.88-4-1.56-8-2.31-12-.39-2.1-1.68-4.77-.85-6.19,1.61-2.77,0-4.15-1.11-6-.69-1.11-1.29-2.27-2-3.37-.9-1.44-1.86-2.85-3.36-5.15Zm570.51-344.6-.43,1a7.19,7.19,0,0,0-2.64-.13c-4.47,1.6-8.76,4.13-13.65.84-.6-.4-2.49,1.32-3.87,1.84a11.31,11.31,0,0,1-4.26,1.06c-1.93-.08-3.88-1.25-5.75-1.08-4.68.42-9.33,1.23-14,2.05-3,.53-6.19,2.48-8.8,1.82-7.45-1.88-13.23.36-19.19,4.59-3.69,2.62-9.26,3.75-13.07,3.59s-8.6.6-11-1.47c-2.07,1.24-3.06,2.28-4.15,2.41-5.09.61-10.39.31-15.28,1.59-6.06,1.58-11.83,4.34-17.67,6.72-2.95,1.2-5.76,2.73-8.69,4-6.08,2.59-12,5.61-18.34,7.45-5.21,1.52-11.23.61-16.18,2.58-6.69,2.66-13.77,6-18.67,11s-11.07,5.77-16.13,9.51c-4.76,3.51-10.89,5.1-16.14,8-9.27,5.18-19.29,9.22-26.91,17.06-.95,1-2.55,1.3-3.77,2-3.63,2.19-7.08,4.74-10.88,6.57a20.84,20.84,0,0,0-9.53,9.29,9.09,9.09,0,0,1-2.95,2.76c-5.38,3.69-11.26,6.81-16.09,11.1-3.75,3.33-6.78,6.94-12.21,7.76-2.67.4-5.22,2.3-7.56,3.91-3.41,2.35-6.51,5.13-9.85,7.6q-6.53,4.82-13.25,9.41a11.38,11.38,0,0,1-3.13,1.08c-4.08,1.25-8.34,2.08-12.19,3.83-4.14,1.88-7.64,5.69-11.87,6.67-4.52,1-9.58-.23-14.45-.49l-.92,2.09c-1.75-1-3.22-2.29-4.92-2.81-5.49-1.67-5.12-6.88-5.56-10.61-.55-4.67,1.07-9.58,1.6-14.41s7.4-11.24,12-11.06a50.52,50.52,0,0,0,8.91,0c2.59-.37,5.06-1.61,7.59-2.46,3.58-.81,7.54-.85,11.08-2.09,4.3-1.51,8.1-5.34,12.36-5.79,5.39-.57,8.88-3.58,13.15-5.88,5.26-2.83,7.94-8.94,14.12-10.42a26.32,26.32,0,0,0,5.88-2c2-1,4.4-2.05,5.36-3.78a192.53,192.53,0,0,0,9.07-18.62c1.62-3.83,5.38-7.55,1.73-12.34-1-1.25-1-3.15-1.55-4.74-2.58-8-6.42-15-12.82-20.73-7.79-6.92-17.54-6.18-24.94-2.66-5.62,2.67-13.83,2.4-17.18,9.61-.17.36-1.16.39-1.78.49-13.81,2.13-22.86,11.29-31.18,21.36-4.23,5.12-7.93,10.54-15,12.52-1.71.48-2.63,3.59-4.06,5.37a28.13,28.13,0,0,1-3.31,3.26,10.58,10.58,0,0,1-2.16,1.46,3.2,3.2,0,0,1-1.81.48c-1.58-.28-3.13-.75-4.59-1.12a86.82,86.82,0,0,0,1.75-10.23c.39-5.69.54-11.07,3.42-16.52,2.22-4.19,2.07-9.64,6.14-13.16a27.27,27.27,0,0,0,7.75-11.4c2.35-6.12,3.95-13.23,10.61-16.84,0-6,4.51-9.79,7.32-14.36,1.73-2.82,3.86-6.82,6.4-7.32a7.47,7.47,0,0,0,5.41-3.34c2.57-3.89,4.12-8.77,7.4-11.82,4.42-4.1,8.27-8.45,10.76-13.79,1.47-3.16,3.17-7.21,2.36-10.21-1.53-5.7-5.22-10.79-7.17-16.42-1.13-3.26-1.79-6.33-5.8-6.09-4.25.25-8.24,1.23-10.49,5.71s-3.24,10.27-9.08,12.28c-.36.13-.59.67-.86,1-2.06,2.83-4,5.78-6.19,8.48-3.89,4.75-8.05,9.27-11.91,14-2.37,2.92-4.38,6.13-6.78,9.52l1.14,1.74a42.12,42.12,0,0,0-3.92,4.2c-2.29,3.25-4.38,6.64-6.56,10-1.58,2.4-3.3,4.72-4.71,7.21-.82,1.46-.69,4-1.8,4.65-5.79,3.15-5.48,10.06-9.31,14.36-1,1.14-2,2.93-1.91,4.32.64,6.73-4.31,12.31-3.11,19.53.58,3.51-2.79,8.11-3.72,12.64-1.28,6.26,1,12.47-1.23,18.76-1.18,3.33-.38,8.08,1.12,11.49,2.85,6.47,3.15,14.22,9.89,19,2.5,1.78,3.88,5.84,4.69,9.12,1.21,4.88,1.51,10,2.09,15,.76,6.6,1.9,13.2,2,19.82.14,9.32,3.89,16.51,10.81,22.4a50.32,50.32,0,0,1,5.44,5.34c3.06,3.53,5.76,7.42,9,10.72,1.17,1.18,3.61,1.57,5.46,1.53,6.63-.13,13.26-.52,19.87-1a18.66,18.66,0,0,0,5.88-1.24c3.22-1.35,6.17-3.42,9.44-4.61,5.8-2.1,11.39-4.24,16.47-8.06,5.45-4.09,11.83-6.9,17.62-10.57,9.93-6.3,19.68-12.89,29.61-19.2,1.59-1,3.71-1.15,5.54-1.79a24.13,24.13,0,0,0,5-2.09c2.58-1.65,4.7-4.42,7.46-5.28,5.69-1.77,7.81-3.29,10.58-7.66,1.77-2.8,4.81-4.78,7.19-7.21a13.91,13.91,0,0,0,1.57-2.88c2.52-1.9,5.72-4.24,8.81-6.72.6-.48.52-2,1.11-2.27,5.75-2.82,11.67-5.32,17.35-8.27,3.55-1.85,6.75-4.36,10.16-6.5,2.2-1.38,4.52-3.74,6.75-3.7,9.41.19,15.12-5.54,20.89-11.61,2.31-2.42,4.39-6.66,7.48-3.71,3.43-.82,6.14-.77,7.82-2.07s2.49-4,3.27-5.33l11.87-2.05c0-.57,0,.36,0,.36,5.46.68,11,1.63,15.46-2.92,1.86-1.89,3.6-3.91,5.55-5.69,5.33-4.85,12.31-4.59,18.78-6.09,7.47-1.73,16.4.16,21.58-8,.48-.76,2-.91,3.07-1.25q7.47-2.35,15-4.64c1.24-.38,2.54-.58,3.76-1,2.52-.88,5.35-1.39,7.43-2.91,3.06-2.24,5.46-3.79,8.09.35a2.91,2.91,0,0,0,2.46.82c2.48-.45,4.89-1.37,7.38-1.75,2.77-.42,5.62-.32,8.4-.7,1.22-.17,2.83-.65,3.43-1.55,3.9-5.8,10.51-5.45,16.1-7.15,4.45-1.35,9.6-.75,13.76-2.57,5.65-2.47,10.65-6.42,16-9.7a7.33,7.33,0,0,1,3-1.39c5.33-.32,8.26-2.93,8.29-9.55l5.35,7.3,4.3-4.9c-3.17-.71-3.82-6.31-7.47-3.53-1.86-1-3.38-2.29-5.11-2.66a84.31,84.31,0,0,0-11.63-1.62c-3.89-.27-7.82-.06-11.73-.06l0,1.09ZM564.59,978.44c4.11,2,.62,6.8,1.72,10.43s.45,8.08,2.29,11.13c1.44,2.38,2.59,4.32,2.39,7s-.92,5.59-.63,8.31c.66,6.28,2.38,12.5,2.59,18.77.25,7.61-.62,15.25-1,22.88,0,1,.22,2,.25,3.06.14,4.1,1.45,8.7,0,12.14-1.24,2.94-1,3.71,1.07,5.34.69.54,1.2,2.51.79,3.07-2.68,3.57-.77,6.94-.23,10.54.61,4,.1,8.14.28,12.22.25,5.45.7,10.89,1.05,16.13l-1.74-.33c0,3.12-1,6.52.19,8.59,4.05,6.87.46,13-.85,19.36-.48,2.35-1.83,4.67-1.73,7,.36,8.65,1.24,17.28,1.74,25.92.15,2.59.71,6-.64,7.68-4.53,5.47-1.35,11.84-2.87,17.62-1,3.64.71,7.93-.06,11.68-1.15,5.61-3.49,11-5.12,16.48-.48,1.63-.12,3.5-.49,5.18-.29,1.34-1.59,2.56-1.59,3.84,0,4.13.92,8.32.44,12.36-.46,3.89-2.67,7.56-3.31,11.45-1.37,8.31-1.29,16.81-4.09,24.93-2.17,6.28-3.61,12.8-5.53,19.16-.2.66-1.48,1-1.2.81.51,2.17,1.55,4,1.21,5.55q-2.16,10-5,19.78c-2.37,8.15-4.81,16.29-7.66,24.27-2.28,6.38-5.59,12.39-7.76,18.79-2.66,7.81-4.58,15.88-6.88,23.81-.67,2.33-1,5-2.41,6.83-4.91,6.46-5.29,14.62-8.46,21.76-3.32,7.47-5.46,15.46-10,22.5-1,1.55-.45,4.1-.57,5.7a27,27,0,0,0-2.45,2.91c-3.31,5.29-6.49,10.66-9.84,15.92-2,3.2-5.82,6.07-6.2,9.38-.88,7.67-6.56,12.89-8.54,19.9-.94,3.32-3.1,6.35-5,9.32-.9,1.41-2.78,2.19-3.69,3.59-3.34,5.14-6.47,10.42-9.64,15.67-1,1.66-1.45,4.21-2.88,5A21.66,21.66,0,0,0,442,1553c-4,9-13.07,14.63-18.61,22.88a160.11,160.11,0,0,1-11.93,15c-3.52,4.08-7.39,7.88-11.18,11.72-3.17,3.2-6.87,6-9.59,9.49-3.32,4.32-5.59,9.43-8.82,13.83-1.64,2.24-5.57,3.26-6.37,5.56-1.61,4.64-5.7,5.94-8.81,8.55-3.37,2.84-5.9,6.68-10.55,8-2.06.61-3.6,2.81-5.63,3.78-3,1.45-6.56,2-9.31,3.77-2.24,1.46-4.25,3.27-4.45,7-.39,7.43,3.09,13.68,4.66,20.48.13.55.92.92,1.37,1.41,3.25,3.55,7.15,6.63,12,5.93,4.28-.61,9.19-1.9,12.28-4.63,4.44-3.94,9-7.63,13.6-11.34,8.61-6.92,16.21-15.12,24.1-22.92,2.15-2.13,3.78-4.78,5.72-7.13,4.27-5.17,9.49-9.81,12.67-15.58,4.18-7.59,10.72-12.61,16.24-18.78,2.37-2.65,8-4.1,5.73-10,4.07.64,6.28-.92,6.19-5.16,0-.39.8-.78,1.22-1.19a55.8,55.8,0,0,0,5.12-5.19c3.5-4.55,6.91-9.18,10.12-13.94,1.78-2.64,3.66-5.46,4.41-8.47.64-2.58,1.22-4.78,3.36-6.48a6.14,6.14,0,0,0,2.32-2.82c1.75-7.5,6-13.41,11.19-18.89,1.3-1.37,1.65-3.63,2.5-5.64,1.6-1.47,4-2.92,5.31-5.05,2.09-3.43,3.35-7.36,5.16-11,1.15-2.3,2.75-4.37,4-6.65,2.47-4.65,3.36-10.11,7.58-13.9.95-.85.76-2.92,1.21-4.4a19,19,0,0,1,1.61-4.33c1-1.68,2.9-3,3.51-4.72,1.92-5.51,3.19-11.25,5.17-16.74,1.18-3.26,3.78-6,4.77-9.31,2.19-7.27,3.67-14.75,5.67-22.08.38-1.38,2.17-2.31,2.76-3.69q3.71-8.64,7-17.43c1-2.57,1.44-5.33,2.34-7.94,1.09-3.17,2.8-6.18,3.52-9.42,1.23-5.54,1.15-11.46,3-16.75,3.22-9.28,3.56-19,5.93-28.41,1-4,1.38-8.72,3.86-11.49,3.24-3.62,1.26-9.77,6.6-11.86.09,0-.06-.56,0-.84.66-3.21,1.35-6.41,2-9.62.77-3.73,3.86-7.29.75-11.41l2.16-.47a13.21,13.21,0,0,1,.41-3c.3-.71,1.56-1.43,1.43-1.85-2.91-9.26,3-18,1.6-27.25-.37-2.45,2.49-5.2,2.89-8,1.64-11.28,2.14-22.78,4.53-33.88,2.21-10.28.61-20.87,4-31,1.78-5.29,1.24-11.36,1.78-17.07.22-2.28.45-4.56.81-6.81.92-5.72,3.26-11.6,2.52-17.08-.78-5.78,1.89-12.06-2.15-17.5-.66-.89,0-2.83.19-4.28a25,25,0,0,0,.5-4.24c-.23-2.9-2.07-6.65-.86-8.49,2.38-3.64,4-9.07,3.23-11.19-2-5.51-.46-10.79-1.19-16.09s-.16-10.71-.23-16.07c-.09-6.67-.82-13.39-.18-20,.4-4.1-2.56-7.11-1.47-11.71,1.31-5.47-.75-11.68-.9-17.58-.06-2.4,1-4.83,1.35-6.13-.85-4.26-1.84-7.86-2.19-11.51-.21-2.23,1.12-4.63.79-6.81-1.32-8.72-1.91-17.43-5-26-2.85-8-2.7-17.14-3.87-25.77-1.14-8.37-2.07-16.77-3.51-25.09-1-5.53-2.57-10.95-4-16.39-1.6-6.14-2.55-12.6-5.18-18.28a52.69,52.69,0,0,1-5-22.89c0-3.25-1.81-6.51-2.84-9.74-.64-2-1.37-4-2.07-6-.64-2.4-2.11-4.54-2.84-6.91-3.13-10.23-6-20.52-9-30.78-1.1-3.75-1.71-7.76-3.49-11.16-3.66-7-7.75-13.8-12.07-20.42-1.68-2.58-4.32-5.69-8-3.45-2.34,1.44-4,4.13-5.72,6.39a4.13,4.13,0,0,0-.49,2.68c.5,5.36,1.09,10.71,1.68,16.06.54,4.85.61,9.83,1.8,14.53,1.61,6.33,4.2,12.41,6.19,18.66,1.83,5.76,3.17,11.69,5.2,17.38,1.48,4.17,4.17,7.94,5.5,12.14s1.29,8.7,2.4,12.93c1.32,5,3.2,9.8,4.9,14.67q3.11,8.93,6.34,17.83c1,2.86,2.49,5.59,3.26,8.52,1.56,5.92,2.86,11.92,4.13,17.92,1.12,5.24,2.12,10.51,3.06,15.78a75.94,75.94,0,0,1,1.21,9.26C565.12,972,564.77,974.76,564.59,978.44Zm89.73,321.39c2.71.15,5,.19,7.31.43,7.88.84,15.73,5.87,23.64.1a2.22,2.22,0,0,1,.94-.22c6.22-.95,12.3,1.58,18.93-1.14,5.33-2.19,12.13-.8,18.29-1,3.07-.1,6.34.78,8.67-2.38.36-.49,2-.49,2.78-.14,2.11.94,4.08,2.2,6.09,3.32-1.46,4.54,1.55,11.39-5.44,11.66-.59,3.68-1,6.78-1.6,9.86-.94,5.22-4.23,9.85-3,15.66.74,3.65,0,7.58.17,11.37.2,4.14,6.11,9.14,10,8.74,2.89-.3,5.8-.52,8.13-.72,2.37-4.07,4.91-8,7-12.12,1.86-3.77,3.19-7.79,4.69-11.73.24-.64-.06-1.57.29-2.08,5.05-7.23,10.91-14,15.09-21.71,5-9.16,13.23-12.82,22.15-15.18,3.24-.85,5.7-1.48,7.81-4.07.76-.93,2.61-.94,3.91-1.48,2.61-1.09,5.2-2.24,7.77-3.41,1-.46,1.94-1.47,2.94-1.52,4-.18,8-.07,12.75-.07l-.66,12.69-3.26.5c-.3,1.83-.18,3.24-.77,4.22-2,3.42-4.31,6.68-6.47,10-.5.77-.62,4.63-.44,6.88a3.93,3.93,0,0,1-.59,1.78c-2.71,5.72-4.68,11.52-1.81,17.8.61,1.33,1.36,2.59,2,3.89,2.13-1.37,4.49-2.49,6.35-4.15,2.86-2.55,5.25-5.63,8.1-8.19,2.42-2.16,5.88-3.42,7.72-5.93a189.87,189.87,0,0,0,12.83-19.8c3.08-5.5,5-11.64,3.22-18.09-.7-2.5-3.56-4.81-3.38-7a13.94,13.94,0,0,0-3.66-10.31c-2.44-2.85-3.34-9.25-9.77-6.46-.08,0-.39-.83-.74-1-2.34-1.28-4.6-2.85-7.11-3.6a13.68,13.68,0,0,0-6.19,0c-4.15.77-8.19,2.36-12.35,2.73-5,.44-9.78.79-14.36,3.56-3.14,1.9-7.37,3.54-10.8,3.07-4.38-.6-7.28,2-10.95,2.63-3.37.58-7.11,2.11-10.09,1.21-8.1-2.44-10.51-1.49-18.27-2.07-5.64-.43-12.65,2.82-16.47-2.13-3.56,1.3-6.48,2.39-9.42,3.43-1.06.38-2.79.31-3.15,1-1.65,3.19-4.19,2.34-6.8,2.08-3.66-.37-7.41-1-11-.58-5.27.68-10.39,4-15.68,0-.46-.35-1.69-.07-2.36.29-9.68,5.21-16.53-.54-23.11-6.25-3.3-2.86-2.91-10.58-.46-14.66,1.07-1.78,2.26-5.06,1.43-6.12-2.47-3.17-1.38-6.44-.55-9.1,1.52-4.85,4.16-9.37,6.48-14,1.15-2.27,3-4.23,3.86-6.58,1.48-4.1,1.59-8.46,2-12.75a40.1,40.1,0,0,0-1.09-12.08c-.62-2.92-3.59-7.13-6-7.49-4.21-.63-9.59-.67-11.84,5.12-1.73,4.43-3.8,8.73-5.82,13.05-1.51,3.24-3.56,6.29-4.66,9.66-1.24,3.79-1.7,7.83-2.45,11.77-.47,2.47-.86,4.95-1.44,8.32-.3.3-4.77-.5-1.31,3.28.63.69-.64,3.13-1,4.76,0,5.92-.6,9-4,16a9.24,9.24,0,0,0-.76,3.76c0,1.24,2.08,3-.61,3.42a5.53,5.53,0,0,1-4.11-1.41c-4.29-4.23-9.16-4.91-14.7-3.24a3.77,3.77,0,0,1-2.48-.61c-4.18-2.29-10.8-2.25-13.21.16-3.72,3.72-5.92,11.81-3.9,15.76,4.29,8.38,1.54,16.78.36,25.18-.07.52-.9.92-1.35,1.39-2.74,2.87-5.77,5.54-8.11,8.7-1.34,1.81-2.66,4.76-2.1,6.62,1.54,5.07-1.9,7.7-3.51,11,.51,2.53,1.55,5.93.3,7.43-3.23,3.91-.09,7.08.1,10.53.33,5.8,3.69,9.7,7.66,13.73,3.59,3.64,10.24,6.23,14.63,3.32,3.13-2.08,5.3-6.22,8.59-7.27,5.67-1.82,6.21-7.39,9.73-10.65a21.93,21.93,0,0,0,5.84-8.35c1.2-3.43,6.37-5.95,3-10.33,1.24-.72,3.12-1.18,3.31-2,1.12-5,3.2-9.94,1.74-15.28-.38-1.37-.9-3.28-.28-4.24,2.51-3.88,2.11-7.65,1-11.83-.39-1.44,1.06-3.38,1.67-5.09,1.41,1,3.76,1.67,4.07,2.9.87,3.47,3.12,5,6.08,6.18C653.35,1294.45,654.73,1296.89,654.32,1299.83Zm316.21,19.81c.39-.22-1.36.42-1.3.76a72.5,72.5,0,0,0,2,8.37c.35,1.18,1.14,2.22,1.58,3.38,1.74,4.6,3.1,9.38,5.27,13.77,1.15,2.33,3.34,5,5.63,5.73,3.56,1.12,7.36,2.67,11.5.85,1.8-.79,4.85-.77,6.38.27,6,4.1,12.61,2.25,17.25-.48,7.93-4.67,16.84-4,24.9-7.11,2.47-.94,5.19-1.18,7.8-1.74,3.62-.33,7.66.61,11.28-.24a14.88,14.88,0,0,0,7.91-5.55c2.52-3.52,4-1.8,7.14,1-1,1-3.43,1.36-3.58,2.16-1,5.22-3.07,9.61-5.55,14.39-2.74,5.27-5.7,10.39-8.87,15.46-3.48,5.55-5,12.22-9.5,17.23-.2.23-.19.64-.35.92-1.75,3.09-3.58,6.13-5.27,9.25s-3.18,6.24-4.75,9.37c-2.35,4.67-4.6,9.4-7,14-3.55,6.7-7.38,13.25-10.75,20-.9,1.8,0,4.51-.92,6.29-3,5.86-7.24,11.19-9.58,17.27-2.07,5.35-5.71,11.43,0,17.2a4.89,4.89,0,0,1,.8,4.17c-1.45,4.38,1.66,6.59,4.27,8.38,1.92,1.32,6,2.41,7.19,1.38,6-5.26,11.46-11,13.32-19.49a70.48,70.48,0,0,1,13.92-29.23l-1.15-2c1.91-1.71,3.83-2.78,4.79-4.41,3.21-5.44,6-11.11,9.08-16.64,1.21-2.18,3-4.08,3.94-6.35,2.51-5.82,3.76-12,8.95-16.75,3.69-3.41,5.22-9.1,7.9-13.67a9.14,9.14,0,0,1,3.45-3.58c2.38-1.16,4.5-6.08,3.12-8.28,4.66-3.1,6.6-7.82,8.24-12.92.62-1.94,2.69-3.41,4.07-5.11,1-1.26,2.44-2.43,2.91-3.88,2-6.22,3.55-12.52,9.56-16.49,2-1.3,3-4.25,5-5.22,3.36-1.61,3.75-4.41,4.3-7.3.39-2,0-4.3.77-6.1,3.33-7.67,1.62-14.86-2.21-21.54-6.32-11-13.24-13.56-23.15-8.26-6.83,3.65-13.62,7.39-20.54,10.89-2.61,1.32-5.48,2.78-8.28,2.9-3.59.16-6.93-.54-9,3.52-.5,1-2.53,1.4-3.93,1.64-2.71.47-6.2-.32-8.07,1.11-3.58,2.74-9.56,1.47-11.36,6.94-.15.44-1.06.84-1.65.89-2.27.18-4.56.09-6.83.32-4.59.46-9.17,0-13.83,1.07-7.26,1.6-14.87,2.84-21.26-3a7.41,7.41,0,0,1-2-2.28c-1.2-2.81-2-5.8-3.32-8.54-4.11-8.4-7.58-10.56-14.63-9.5-4,.6-7.93,4.39-7.64,6.88.4,3.44.26,6.95.6,10.4C969.3,1314.6,970,1316.86,970.53,1319.63ZM414.8,622.46l1,1.22a18.32,18.32,0,0,1,.45,3.61c-.26,3.69-1,7.38-1,11.06,0,4.61.68,9.21.9,13.83.16,3.38,5.64,11.82,8.44,12.66,5.48,1.64,10.94,3.32,16.45,4.86a17.39,17.39,0,0,0,4.55.46c3.89,0,7.82.36,9.94-4.25.6-1.32,2.59-2,3.92-3,.87-.66,2.08-1.21,2.5-2.1,3.12-6.7,6.7-12.79,5.42-21.22-1.38-9.11-6-15.54-11.91-21.47-3.28-3.27-7.47-5.6-11.14-8.49-4-3.16-8.06-3.42-12-.47Q423.56,615.79,414.8,622.46Z"/><path d="M1017,1560.18l4.74,11.93c1.5,2.29,2.46,3.7,3.36,5.15.69,1.1,1.29,2.27,2,3.37,1.15,1.83,2.71,3.21,1.11,6-.83,1.42.46,4.1.85,6.19.74,4,1.43,8.05,2.31,12,1.07,4.87.49,10.44-2.21,13.52-2.47,2.81-8.15,2.83-12.45,4-9.08,2.45-12.84-5.74-18.73-9.57a117.93,117.93,0,0,1-13.39-10c-4.57-4-8.73-8.46-12.91-12.87-1.47-1.55-2.38-3.62-3.74-5.3-.45-.56-1.51-.62-2.26-1-1-.47-2.43-.72-3-1.53-4.2-6.35-8.21-12.84-12.33-19.25-4.88-7.58-9.78-15.16-14.78-22.66a28.57,28.57,0,0,0-5.24-6.42c-3.2-2.62-2.73-6.35-4-9.57-2.5-6.52-5.84-12.72-8.89-19-.25-.51-1.39-.93-1.32-1.19,1.33-5.23-3.81-7.64-5-11.7-2.24-7.39-4.21-14.88-6.54-22.24-2.59-8.17-5.66-16.2-8.12-24.41-1.11-3.68-1.09-7.69-1.86-11.49q-2.68-13.19-5.67-26.31c-1-4.38-2.62-8.63-3.36-13a19.69,19.69,0,0,1,.69-7.73c1.78-7.17-.93-14-1.35-21-.24-4-.58-7.94-1-11.9-.55-5.74-1.22-11.46-1.72-17.2a26.65,26.65,0,0,1,.34-4.25c.46-6.06,2.59-12.62,1-18.06-2.22-7.43,2.49-13.21,2.07-19.65-.67-10.26,2.39-20,2.5-30.2.1-8.48,2-16.93,3-25.41a13.38,13.38,0,0,0-.22-3c-.09-.86-.56-2.34-.3-2.48,4.9-2.59,2.32-7.59,3.68-11.29a143.37,143.37,0,0,0,5.33-17.13c1.49-6.49,2.08-13.18,3.4-19.72,1.36-6.79,4.6-13.57,4.29-20.23-.3-6.44,3.93-10.53,4.79-16,.62-4,.81-8,1.73-11.86.59-2.47-1.64-6.19,2.76-7.35.32-.08.33-1.51.39-2.32a33.22,33.22,0,0,1,5.78-16.61c1.44-2.12,2.51-5.48,1.92-7.82-1.69-6.71,1.62-11.64,4.58-16.85.23-.41.74-1.06.62-1.21-4.55-5.88,3-8.95,3.18-13.78.3-7.61,7.36-13,7-20.94,4.39-2,4.28-6.72,5.73-10.32,2.84-7,6.21-14,6.18-21.85,0-4.42-1.35-7.71-6.15-8.75-4.32-.94-8.6-2-13-3.07-3,4.59-7.46,6.06-12.48,6.72-1.39.18-2.58,1.65-3.94,2.37-7.31,3.87-15.16,4.71-23.27,4a13.7,13.7,0,0,0-4.11.14c-4.38,1-8.86,2-13.1,3-5.08,1.15-11.34.11-16,4.74-1.46,1.44-6.25-.47-9.81-.89l.23,2.09c-3.4.75-6.93,1.74-10.53,2.27-7.85,1.16-13.07,7-19.66,10.44-1.67.86-4.79,1.35-5.89.41-3.22-2.75-4.73-.35-7.64,1.53.81-6.24-8.8-9.11-4.46-16.8.71-1.25-1.37-3.92-.8-5.42a87.11,87.11,0,0,1,6.09-12.36c.46-.8,2.3-1,3.55-1.14,2.73-.34,6.18,1,7-3.35,0-.09.22-.21.34-.21,9.35.2,15.49-9.92,25.42-7.9,3.35.68,6,0,7.72-3.46.34-.7,2.1-1.23,3-1,7.66,1.63,15-1.64,21.85-3.25,7.1-1.66,14.77-.78,21.43-4.27.59-.31,1.23-1.25,1.61-1.13,1.82.57,3.7-3,5.8.28.38.59,5.68-.65,7-2.36,1.89-2.4,3.61-2.42,6-2.23,7.48.58,14.32-1.8,21.31-4.14,6-2,13-1.79,18.63-4.45,7.77-3.68,18.09-5.53,21.15-14.54,1.66-4.91,7.54-8.63,5.26-14.93-.08-.22,1.4-1,3.29-2.31a14.09,14.09,0,0,1,5.34-10c2.31-1.85,2.66-6.19,3.78-9.45.58-1.68.75-3.51,1.41-5.15,1.53-3.79,3.26-7.51,4.88-11.26.35-.81.37-2,1-2.43,4.46-3.3,6.82-8.09,9.37-12.75a40.17,40.17,0,0,0,3-6c2.94-8.5,4.81-17.28,11.79-24.06,3.33-3.24,4.75-8.43,7.08-12.72s2.73-9.21,4.63-13.53c1.76-4,4.73-7.47,7.31-11.07.27-.37,1.51-.05,1.56-.05,1.56-5.6,3-11.05,4.59-16.47,1.14-3.95,1.88-8.15,3.78-11.7,1.45-2.71,4.62-4.46,6.7-6.91,1.19-1.4,1.69-3.38,2.57-5.06a67.64,67.64,0,0,0,6.79-17.46c.94-4.31,5.3-7.82,7.92-11.83,1.38-2.11,2.13-4.61,3.42-6.79,3.27-5.53,7.68-10.63,9.73-16.55,1.71-4.94,5-7.92,7.86-11.71,3-4,4.1-9.33,7.15-13.21,4.2-5.34,5.9-11.76,9.17-17.44,2.79-4.86,7.35-9.33,8.29-14.48,1.33-7.3,7.53-10.62,10.22-16.49a10.42,10.42,0,0,0,1.2-3.68c.14-3.54,1.86-6,3.58-9,2.45-4.31,5.81-7.55,9-10.67,2.4-2.31,2.34-5.13,4-7.37,5.4-7.37,10.33-15.17,16.43-21.9,4.39-4.83,5.44-11.22,9.48-16a32.34,32.34,0,0,0,3.8-5.52,39.44,39.44,0,0,0,2-5.73c7.17-1.07,10.16-7.26,13.19-13.43.83-1.69,1.74-3.34,2.66-5,2.6-4.63,4.95-9.45,7.95-13.81,2.43-3.53,5.16-7.32,8.69-9.48,2.69-1.65,7.58-2.28,10.14-.88,2.74,1.49,6.14,4.75,5.1,9.34-.1.45-.46,1.09-.29,1.32,4.55,6,.24,11.79-.84,17.38-.65,3.36-4.25,6.19-6.65,9.15-5.2,6.39-10.58,12.63-15.69,19.08-1.67,2.11-2.64,4.75-4.11,7-1.13,1.75-2.51,3.34-3.81,5-3.25,4.09-6.67,8.05-9.73,12.28a131.05,131.05,0,0,0-9,13.77c-1.53,2.79-3.73,5-4.9,8.29-1.67,4.67-5.34,8.63-8.21,12.85-2.69,4-5.67,7.77-8.14,11.87-3.07,5.11-5.68,10.49-8.63,15.68-1.67,2.94-3.66,5.7-5.44,8.59-2.36,3.81-4.6,7.69-7,11.48-2.81,4.45-5.8,8.78-8.58,13.25-3.9,6.27-7.74,12.58-11.47,19-4.54,7.76-9,15.56-13.34,23.46-1,1.81-.94,4.17-1.79,6.09-.48,1.09-1.82,1.81-2.4,2.35-3.46,6.85-6.65,13.6-10.23,20.15-2.56,4.69-6.5,8.72-6.27,14.59a2,2,0,0,1-.36,1.4c-4.3,4.08-4.76,9.79-6.74,14.91-2.17,5.62-5.77,10.67-8.62,16-.85,1.61-1.1,3.52-1.89,5.17-3.93,8.25-7.76,16.55-12,24.65s-8.53,16.37-13.53,24.07c-5.18,8-6.59,17.64-12.74,25.36-4.05,5.09-5.58,12.25-8,18.58a28,28,0,0,1-8,11.77c-.88.75-1.23,2.24-1.6,3.45-1.07,3.52-2.14,7-3,10.63-.64,2.72,3.84,6.95,6.88,6.22,9.31-2.24,18.44-5.76,27.86-6.78,4.87-.53,9.52-1.74,14.32-2.34.55-.07,1.19.25,1.69.09,2.83-.91,5.68-1.8,8.44-2.91,3.05-1.23,6-2.68,8.82-4,1.25.25,2.81,1.07,4,.71,5.88-1.71,11.67-3.75,17.5-5.64,4.56-1.48,9.23-2.67,13.65-4.48,2.46-1,4.4-2.59,7.46-1.82,1.32.33,3.9-1,4.6-2.25,1.85-3.38,5.93-2.75,7.18-2.14,5.33,2.61,9.59-.4,14.25-1.4,3-.64,6-.28,7.38-4.49.44-1.31,5.61-1.11,8.63-1.45,6.4-.73,11.49-4.35,16.91-7.31,1.51-.82,3.35-1.75,4.93-1.59,6.93.7,13.45-.06,19.5-3.82.4-.25,1.86,1.21,4,2.65,6-1.89,13.23-4.54,20.69-6.42,4.56-1.15,9.42-1.07,14.13-1.67a11.47,11.47,0,0,0,2.63-1.24c5.78-2.46,11.44-5.29,17.39-7.22,5.77-1.87,14.36,2.26,17.58,7.73a100.22,100.22,0,0,1,5.58,10.08c.74,1.67.16,3.88.59,5.75,1.81,7.88-3.1,13.2-7.34,18.51-1.86,2.33-2.61,6.06-7,6.37-3.51.25-6.25.21-8.38-2.9-1.49-2.16-3.16-3.05-6.17-2.05-3.81,1.26-8,1.38-12,2.16a23.34,23.34,0,0,0-4.41,1.64c-.88.37-1.75,1.33-2.53,1.25-9.47-1-16.46,6.4-25.36,7.4-2.06.23-3.87,2.45-6,2.82-3.65.64-7.42.55-12.06.81-4.44,2.85-10.38,4-16.75,4.24-3.08.09-6.09,1.46-9.19,1.78-4.38.45-7.92,5.39-10.32,5.16-4.27-.41-6.27,5.09-11.11,2.41-3.09-1.72-7.88,2.26-11.74-.76-.39.53-.73,1.48-1.19,1.54-5.12.67-10.26,1.21-15.54,1.8l1.22,1.92h-8V965.7c-5.21,8.57-14.72,7.55-21.49,7.27s-11.17,2.68-16.66,4.19c-3.61,1-7.56.69-11.34,1.09-4.22.45-8.47.8-12.63,1.61-6.06,1.18-12,2.88-18.07,4.07a93.72,93.72,0,0,0-20.51,6.23c-4.82,2.15-10.41,5.3-17,3.83-2.13-.48-6,3.56-7.94,6.31-2.18,3-4.09,6.91-4.39,10.56-1.14,14.21-11,23.76-17.59,35.07-1.84,3.14-1.82,7.37-2.66,11.1a43.56,43.56,0,0,1-1,4.49c-.88,2.59-1.89,5.14-2.92,7.69-.78,1.94-1.64,3.86-2.52,5.75-.26.56-1.14,1.1-1.05,1.52,1.73,8.55-2.18,15.67-5.31,23.14-1.29,3.07-.51,7-1.3,10.32-.66,2.8-.66,5.68-2.84,8.37-1.84,2.28-1.7,6.16-1.61,9.61-4.16,3.57-4.92,9-7.08,13.94-3,7-3.7,14.07-4.7,21.29-.18,1.32-1.19,2.52-1.2,3.61l-2.27,18.14-.14-.18c-.68,3.06-1.35,6.12-2.06,9.17-.67,2.85-1.06,5.83-2.16,8.51-3.74,9-8.17,17.8-7.94,28,0,1-1.37,2-1.59,3.16-.83,4.15-1.45,8.34-2.13,12.51-1.19,7.3-2.4,14.6-3.54,21.91-.54,3.49-1,7-1.38,10.52-.71,6.23-1.63,12.45-2.29,18.66-.83,7.81-1.19,15.65-1.84,23.46-.54,6.44-.73,12.92-1,19.38-.06,1.3-.25,2.91.39,3.87,2.29,3.46,1.55,6.53.36,10.24-.72,2.27,1,5.34,1.71,8,.82,3,1.41,5.88-1.41,7.08,1,5.5,2,10.74,2.78,16,.6,4.07.87,8.19,1.32,12.28.22,1.94.61,3.86.77,5.8.06.77-.69,1.92-.37,2.3,5.43,6.38,1.83,14.43,4.11,21.53,2.93,9.15,3.13,19.3,6.84,28,1.82,4.28,1.72,8.61,3.35,12.67.65,1.61.11,3.71.11,5.91l1.89-.43,4.39,15.37,1.71-1.07c.9,1.87,2.47,3.68,2.53,5.54.19,6.27,4.81,10.54,6.77,16,1.35,3.76,4.71,6.75,6.62,10.37,2.31,4.4,4.06,9.1,6,13.69,1.4,3.28,1.87,7.63,4.3,9.65,4.39,3.66,4.27,10.14,10.31,13,4.31,2.07,7.15,7.47,10.26,11.68a93.87,93.87,0,0,0,26.47,24c2.8,1.74,6.22-.84,5.83-4.39-.43-4,.47-7.89-.55-12.19A13.63,13.63,0,0,1,1017,1560.18Z"/><path d="M1587.54,1215.59l-1.94-1.09,0-1.09c3.91,0,7.84-.21,11.73.06a84.31,84.31,0,0,1,11.63,1.62c1.72.36,3.25,1.66,5.11,2.66,3.65-2.79,4.3,2.81,7.47,3.53l-4.3,4.9-5.35-7.3c0,6.62-3,9.23-8.29,9.55a7.33,7.33,0,0,0-3,1.39c-5.3,3.28-10.3,7.24-16,9.7-4.16,1.82-9.32,1.22-13.76,2.57-5.59,1.7-12.2,1.35-16.1,7.15-.6.9-2.22,1.39-3.43,1.55-2.78.38-5.63.28-8.4.7-2.49.38-4.9,1.3-7.38,1.75a2.91,2.91,0,0,1-2.46-.82c-2.63-4.14-5-2.58-8.09-.35-2.08,1.52-4.91,2-7.43,2.91-1.22.43-2.52.63-3.76,1q-7.49,2.29-15,4.64c-1.07.34-2.59.49-3.07,1.25-5.18,8.17-14.11,6.28-21.58,8-6.47,1.5-13.45,1.24-18.78,6.09-2,1.78-3.7,3.8-5.55,5.69-4.47,4.55-10,3.6-15.46,2.92,0,0,.06-.93,0-.36l-11.87,2.05c-.78,1.36-1.52,4-3.27,5.33s-4.39,1.24-7.82,2.07c-3.09-3-5.17,1.29-7.48,3.71-5.78,6.06-11.48,11.79-20.89,11.61-2.23,0-4.55,2.32-6.75,3.7-3.41,2.13-6.61,4.65-10.16,6.5-5.68,3-11.6,5.44-17.35,8.27-.59.29-.52,1.79-1.11,2.27-3.08,2.48-6.28,4.81-8.81,6.72a13.91,13.91,0,0,1-1.57,2.88c-2.38,2.43-5.42,4.41-7.19,7.21-2.78,4.37-4.89,5.89-10.58,7.66-2.76.86-4.89,3.63-7.46,5.28a24.13,24.13,0,0,1-5,2.09c-1.84.65-4,.79-5.54,1.79-9.93,6.31-19.67,12.9-29.61,19.2-5.79,3.67-12.17,6.48-17.62,10.57-5.08,3.82-10.67,6-16.47,8.06-3.27,1.19-6.21,3.25-9.44,4.61a18.66,18.66,0,0,1-5.88,1.24c-6.62.45-13.24.84-19.87,1-1.85,0-4.29-.35-5.46-1.53-3.28-3.31-6-7.19-9-10.72a50.32,50.32,0,0,0-5.44-5.34c-6.93-5.89-10.67-13.08-10.81-22.4-.1-6.62-1.24-13.22-2-19.82-.58-5-.89-10.14-2.09-15-.81-3.29-2.19-7.35-4.69-9.12-6.74-4.8-7-12.54-9.89-19-1.5-3.41-2.3-8.16-1.12-11.49,2.23-6.29-.05-12.5,1.23-18.76.93-4.53,4.3-9.13,3.72-12.64-1.2-7.22,3.76-12.8,3.11-19.53-.13-1.38.89-3.18,1.91-4.32,3.83-4.3,3.51-11.21,9.31-14.36,1.1-.6,1-3.19,1.8-4.65,1.41-2.49,3.13-4.81,4.71-7.21,2.18-3.32,4.27-6.71,6.56-10a42.12,42.12,0,0,1,3.92-4.2l-1.14-1.74c2.39-3.39,4.41-6.6,6.78-9.52,3.86-4.77,8-9.3,11.91-14,2.21-2.7,4.13-5.65,6.19-8.48.27-.37.5-.91.86-1,5.84-2,6.79-7.71,9.08-12.28s6.25-5.46,10.49-5.71c4-.24,4.68,2.82,5.8,6.09,1.95,5.63,5.64,10.72,7.17,16.42.81,3-.89,7.06-2.36,10.21-2.5,5.34-6.34,9.69-10.76,13.79-3.29,3-4.83,7.92-7.4,11.82a7.47,7.47,0,0,1-5.41,3.34c-2.53.49-4.67,4.5-6.4,7.32-2.8,4.58-7.32,8.34-7.32,14.36-6.66,3.61-8.26,10.72-10.61,16.84a27.27,27.27,0,0,1-7.75,11.4c-4.07,3.52-3.92,9-6.14,13.16-2.89,5.45-3,10.83-3.42,16.52a86.82,86.82,0,0,1-1.75,10.23c1.45.37,3,.85,4.59,1.12a3.2,3.2,0,0,0,1.81-.48,10.58,10.58,0,0,0,2.16-1.46,28.13,28.13,0,0,0,3.31-3.26c1.43-1.78,2.35-4.88,4.06-5.37,7-2,10.72-7.39,15-12.52,8.32-10.07,17.37-19.23,31.18-21.36.62-.1,1.61-.12,1.78-.49,3.34-7.21,11.56-6.93,17.18-9.61,7.4-3.52,17.15-4.26,24.94,2.66,6.4,5.69,10.24,12.78,12.82,20.73.52,1.59.6,3.49,1.55,4.74,3.65,4.79-.11,8.51-1.73,12.34a192.53,192.53,0,0,1-9.07,18.62c-1,1.73-3.41,2.78-5.36,3.78a26.32,26.32,0,0,1-5.88,2c-6.17,1.48-8.86,7.59-14.12,10.42-4.27,2.3-7.76,5.31-13.15,5.88-4.27.45-8.07,4.28-12.36,5.79-3.54,1.24-7.5,1.28-11.08,2.09-2.52.85-5,2.09-7.59,2.46a50.52,50.52,0,0,1-8.91,0c-4.63-.18-11.49,6.18-12,11.06s-2.15,9.73-1.6,14.41c.44,3.73.06,8.94,5.56,10.61,1.7.52,3.17,1.78,4.92,2.81l.92-2.09c4.87.26,9.93,1.54,14.45.49,4.24-1,7.74-4.79,11.87-6.67,3.85-1.75,8.11-2.58,12.19-3.83a11.38,11.38,0,0,0,3.13-1.08q6.7-4.59,13.25-9.41c3.34-2.46,6.44-5.24,9.85-7.6,2.34-1.61,4.9-3.51,7.56-3.91,5.43-.82,8.46-4.43,12.21-7.76,4.83-4.29,10.71-7.41,16.09-11.1a9.09,9.09,0,0,0,2.95-2.76,20.84,20.84,0,0,1,9.53-9.29c3.8-1.83,7.25-4.38,10.88-6.57,1.23-.74,2.83-1.06,3.77-2,7.62-7.84,17.63-11.89,26.91-17.06,5.25-2.93,11.38-4.51,16.14-8,5.06-3.74,11.36-4.63,16.13-9.51s12-8.34,18.67-11c4.94-2,11-1.05,16.18-2.58,6.3-1.84,12.26-4.86,18.34-7.45,2.93-1.25,5.74-2.78,8.69-4,5.85-2.37,11.61-5.13,17.67-6.72,4.89-1.28,10.19-1,15.28-1.59,1.09-.13,2.08-1.17,4.15-2.41,2.43,2.07,7.24,1.31,11,1.47s9.37-1,13.07-3.59c6-4.23,11.74-6.47,19.19-4.59,2.61.66,5.82-1.29,8.8-1.82,4.63-.82,9.28-1.64,14-2.05,1.87-.17,3.82,1,5.75,1.08a11.31,11.31,0,0,0,4.26-1.06c1.38-.52,3.27-2.24,3.87-1.84,4.89,3.3,9.18.76,13.65-.84a7.19,7.19,0,0,1,2.64.13Z"/><path d="M564.59,978.44c.17-3.68.53-6.49.38-9.26a75.94,75.94,0,0,0-1.21-9.26c-.94-5.28-1.94-10.54-3.06-15.78-1.28-6-2.57-12-4.13-17.92-.77-2.92-2.23-5.66-3.26-8.52q-3.23-8.89-6.34-17.83c-1.7-4.87-3.58-9.7-4.9-14.67-1.12-4.23-1.09-8.78-2.4-12.93s-4-8-5.5-12.14c-2-5.69-3.36-11.62-5.2-17.38-2-6.25-4.58-12.32-6.19-18.66-1.19-4.69-1.27-9.67-1.8-14.53-.59-5.35-1.18-10.7-1.68-16.06a4.13,4.13,0,0,1,.49-2.68c1.76-2.27,3.38-5,5.72-6.39,3.65-2.24,6.29.87,8,3.45,4.32,6.62,8.41,13.41,12.07,20.42,1.78,3.4,2.39,7.41,3.49,11.16,3,10.26,5.91,20.56,9,30.78.73,2.37,2.2,4.5,2.84,6.91.69,2,1.43,4,2.07,6,1,3.24,2.85,6.5,2.84,9.74a52.69,52.69,0,0,0,5,22.89c2.63,5.68,3.57,12.14,5.18,18.28,1.42,5.44,3,10.86,4,16.39,1.43,8.32,2.37,16.72,3.51,25.09,1.18,8.63,1,17.73,3.87,25.77,3,8.6,3.64,17.31,5,26,.33,2.18-1,4.58-.79,6.81.35,3.65,1.34,7.25,2.19,11.51-.31,1.31-1.41,3.73-1.35,6.13.16,5.9,2.21,12.11.9,17.58-1.1,4.6,1.86,7.61,1.47,11.71-.64,6.59.09,13.31.18,20,.07,5.36-.49,10.8.23,16.07s-.77,10.57,1.19,16.09c.75,2.12-.85,7.55-3.23,11.19-1.2,1.84.63,5.59.86,8.49a25,25,0,0,1-.5,4.24c-.14,1.45-.85,3.39-.19,4.28,4,5.44,1.38,11.72,2.15,17.5.74,5.48-1.6,11.36-2.52,17.08-.36,2.26-.59,4.54-.81,6.81-.54,5.71,0,11.78-1.78,17.07-3.43,10.17-1.83,20.77-4,31-2.39,11.1-2.89,22.6-4.53,33.88-.4,2.76-3.25,5.51-2.89,8,1.38,9.26-4.51,18-1.6,27.25.13.41-1.13,1.14-1.43,1.85a13.21,13.21,0,0,0-.41,3l-2.16.47c3.1,4.12,0,7.68-.75,11.41-.66,3.21-1.35,6.41-2,9.62-.06.28.09.81,0,.84-5.34,2.09-3.36,8.24-6.6,11.86-2.48,2.77-2.86,7.53-3.86,11.49-2.37,9.38-2.71,19.14-5.93,28.41-1.83,5.29-1.75,11.22-3,16.75-.72,3.24-2.43,6.25-3.52,9.42-.9,2.61-1.36,5.37-2.34,7.94q-3.33,8.79-7,17.43c-.59,1.38-2.38,2.31-2.76,3.69-2,7.33-3.48,14.81-5.67,22.08-1,3.28-3.59,6.06-4.77,9.31-2,5.49-3.25,11.23-5.17,16.74-.61,1.76-2.5,3-3.51,4.72a19,19,0,0,0-1.61,4.33c-.45,1.47-.26,3.54-1.21,4.4-4.22,3.79-5.11,9.25-7.58,13.9-1.21,2.28-2.81,4.34-4,6.65-1.8,3.62-3.06,7.55-5.16,11-1.3,2.13-3.71,3.58-5.31,5.05-.85,2-1.21,4.27-2.5,5.64-5.17,5.49-9.43,11.39-11.19,18.89a6.14,6.14,0,0,1-2.32,2.82c-2.14,1.7-2.72,3.89-3.36,6.48-.75,3-2.63,5.83-4.41,8.47-3.21,4.76-6.62,9.39-10.12,13.94a55.8,55.8,0,0,1-5.12,5.19c-.41.41-1.22.8-1.22,1.19.09,4.24-2.12,5.8-6.19,5.16,2.3,5.93-3.36,7.38-5.73,10-5.51,6.16-12.06,11.19-16.24,18.78-3.17,5.77-8.4,10.4-12.67,15.58-1.94,2.35-3.57,5-5.72,7.13-7.89,7.8-15.49,16-24.1,22.92-4.62,3.72-9.16,7.41-13.6,11.34-3.08,2.73-8,4-12.28,4.63-4.87.7-8.76-2.39-12-5.93-.45-.49-1.24-.86-1.37-1.41-1.57-6.8-5-13.05-4.66-20.48.2-3.76,2.21-5.58,4.45-7,2.75-1.79,6.29-2.33,9.31-3.77,2-1,3.56-3.17,5.63-3.78,4.65-1.37,7.18-5.21,10.55-8,3.11-2.61,7.2-3.91,8.81-8.55.8-2.3,4.73-3.32,6.37-5.56,3.23-4.4,5.5-9.51,8.82-13.83,2.71-3.53,6.42-6.29,9.59-9.49,3.8-3.84,7.66-7.64,11.18-11.72a160.11,160.11,0,0,0,11.93-15C428.95,1567.65,438,1562,442,1553a21.66,21.66,0,0,1,10.58-11.2c1.43-.75,1.87-3.3,2.88-5,3.17-5.25,6.31-10.52,9.64-15.67.91-1.4,2.79-2.18,3.69-3.59,1.89-3,4.05-6,5-9.32,2-7,7.67-12.22,8.54-19.9.38-3.32,4.16-6.19,6.2-9.38,3.36-5.26,6.53-10.64,9.84-15.92a27,27,0,0,1,2.45-2.91c.12-1.6-.43-4.14.57-5.7,4.51-7,6.65-15,10-22.5,3.17-7.14,3.55-15.3,8.46-21.76,1.39-1.83,1.73-4.5,2.41-6.83,2.3-7.94,4.22-16,6.88-23.81,2.18-6.4,5.49-12.42,7.76-18.79,2.85-8,5.29-16.13,7.66-24.27q2.85-9.79,5-19.78c.33-1.54-.7-3.38-1.21-5.55-.28.17,1-.16,1.2-.81,1.92-6.36,3.37-12.89,5.53-19.16,2.81-8.13,2.73-16.63,4.09-24.93.64-3.9,2.85-7.56,3.31-11.45.48-4-.45-8.24-.44-12.36,0-1.28,1.3-2.5,1.59-3.84.37-1.68,0-3.55.49-5.18,1.64-5.52,4-10.87,5.12-16.48.77-3.74-.9-8,.06-11.68,1.52-5.78-1.66-12.15,2.87-17.62,1.35-1.63.79-5.09.64-7.68-.5-8.65-1.38-17.27-1.74-25.92-.1-2.29,1.25-4.61,1.73-7,1.31-6.37,4.9-12.49.85-19.36-1.22-2.07-.19-5.47-.19-8.59l1.74.33c-.35-5.24-.8-10.68-1.05-16.13-.19-4.07.32-8.22-.28-12.22-.55-3.6-2.45-7,.23-10.54.42-.56-.1-2.52-.79-3.07-2.07-1.63-2.32-2.39-1.07-5.34,1.45-3.43.14-8,0-12.14,0-1-.3-2-.25-3.06.34-7.63,1.21-15.27,1-22.88-.21-6.28-1.92-12.49-2.59-18.77-.29-2.72.42-5.54.63-8.31s-.95-4.64-2.39-7c-1.84-3-1.18-7.5-2.29-11.13S568.7,980.47,564.59,978.44Z"/><path d="M654.32,1299.83c.41-2.94-1-5.38-4.12-6.66-3-1.21-5.21-2.71-6.08-6.18-.31-1.23-2.65-1.95-4.07-2.9-.61,1.71-2.06,3.65-1.67,5.09,1.14,4.18,1.54,7.95-1,11.83-.62,1-.09,2.87.28,4.24,1.46,5.34-.62,10.28-1.74,15.28-.19.84-2.07,1.3-3.31,2,3.37,4.39-1.8,6.9-3,10.33a21.93,21.93,0,0,1-5.84,8.35c-3.52,3.26-4.06,8.83-9.73,10.65-3.29,1.06-5.47,5.2-8.59,7.27-4.39,2.92-11,.33-14.63-3.32-4-4-7.33-7.93-7.66-13.73-.2-3.45-3.33-6.62-.1-10.53,1.24-1.5.2-4.9-.3-7.43,1.61-3.32,5.05-5.95,3.51-11-.57-1.86.76-4.82,2.1-6.62,2.35-3.17,5.37-5.83,8.11-8.7.45-.47,1.28-.88,1.35-1.39,1.18-8.4,3.93-16.8-.36-25.18-2-3.94.18-12,3.9-15.76,2.41-2.41,9-2.44,13.21-.16a3.77,3.77,0,0,0,2.48.61c5.54-1.67,10.41-1,14.7,3.24a5.53,5.53,0,0,0,4.11,1.41c2.7-.41.59-2.18.61-3.42a9.24,9.24,0,0,1,.76-3.76c3.37-7,4-10.1,4-16,.39-1.63,1.66-4.06,1-4.76-3.46-3.78,1-3,1.31-3.28.58-3.37,1-5.86,1.44-8.32.75-3.94,1.21-8,2.45-11.77,1.1-3.37,3.15-6.42,4.66-9.66,2-4.32,4.09-8.62,5.82-13.05,2.26-5.79,7.64-5.74,11.84-5.12,2.41.36,5.38,4.57,6,7.49a40.1,40.1,0,0,1,1.09,12.08c-.38,4.29-.5,8.65-2,12.75-.85,2.35-2.72,4.31-3.86,6.58-2.32,4.58-5,9.1-6.48,14-.83,2.66-1.92,5.93.55,9.1.83,1.06-.36,4.34-1.43,6.12-2.45,4.07-2.84,11.8.46,14.66,6.58,5.71,13.43,11.46,23.11,6.25.67-.36,1.9-.64,2.36-.29,5.29,4.07,10.41.71,15.68,0,3.58-.46,7.33.21,11,.58,2.61.26,5.15,1.11,6.8-2.08.36-.69,2.08-.63,3.15-1,2.94-1,5.86-2.13,9.42-3.43,3.81,5,10.83,1.7,16.47,2.13,7.76.59,10.17-.37,18.27,2.07,3,.9,6.72-.64,10.09-1.21,3.66-.63,6.56-3.24,10.95-2.63,3.43.47,7.66-1.17,10.8-3.07,4.58-2.77,9.33-3.12,14.36-3.56,4.16-.37,8.2-2,12.35-2.73a13.68,13.68,0,0,1,6.19,0c2.51.76,4.77,2.33,7.11,3.6.34.19.66,1,.74,1,6.43-2.79,7.34,3.61,9.77,6.46a13.94,13.94,0,0,1,3.66,10.31c-.18,2.23,2.68,4.55,3.38,7,1.82,6.45-.14,12.58-3.22,18.09a189.87,189.87,0,0,1-12.83,19.8c-1.85,2.51-5.3,3.76-7.72,5.93-2.86,2.56-5.24,5.64-8.1,8.19-1.87,1.66-4.22,2.79-6.35,4.15-.69-1.29-1.44-2.56-2-3.89-2.87-6.28-.9-12.08,1.81-17.8a3.93,3.93,0,0,0,.59-1.78c-.18-2.25-.07-6.1.44-6.88,2.16-3.34,4.45-6.6,6.47-10,.59-1,.46-2.4.77-4.22l3.26-.5.66-12.69c-4.79,0-8.77-.1-12.75.07-1,0-1.93,1.06-2.94,1.52-2.57,1.17-5.16,2.32-7.77,3.41-1.3.54-3.15.55-3.91,1.48-2.11,2.59-4.57,3.21-7.81,4.07-8.92,2.35-17.18,6-22.15,15.18-4.17,7.7-10,14.48-15.09,21.71-.36.51,0,1.44-.29,2.08-1.5,3.94-2.84,8-4.69,11.73-2,4.15-4.59,8-7,12.12-2.34.2-5.24.42-8.13.72-3.87.4-9.79-4.6-10-8.74-.18-3.79.57-7.72-.17-11.37-1.18-5.82,2.11-10.45,3-15.66.55-3.08,1-6.17,1.6-9.86,7-.26,4-7.12,5.44-11.66-2-1.12-4-2.38-6.09-3.32-.79-.35-2.42-.36-2.78.14-2.32,3.16-5.6,2.29-8.67,2.38-6.15.19-13-1.19-18.29,1-6.63,2.72-12.71.19-18.93,1.14a2.22,2.22,0,0,0-.94.22c-7.91,5.78-15.76.75-23.64-.1C659.34,1300,657,1300,654.32,1299.83Z"/><path d="M970.53,1319.63c-.57-2.77-1.24-5-1.47-7.35-.34-3.45-.2-7-.6-10.4-.29-2.5,3.67-6.28,7.64-6.88,7-1.06,10.52,1.1,14.63,9.5,1.34,2.73,2.12,5.73,3.32,8.54a7.41,7.41,0,0,0,2,2.28c6.39,5.8,14,4.56,21.26,3,4.66-1,9.24-.61,13.83-1.07,2.26-.23,4.56-.14,6.83-.32.59,0,1.51-.45,1.65-.89,1.8-5.48,7.78-4.21,11.36-6.94,1.87-1.43,5.36-.64,8.07-1.11,1.4-.24,3.43-.66,3.93-1.64,2.09-4.06,5.44-3.35,9-3.52,2.81-.13,5.67-1.58,8.28-2.9,6.91-3.5,13.7-7.24,20.54-10.89,9.91-5.3,16.84-2.73,23.15,8.26,3.83,6.67,5.55,13.87,2.21,21.54-.78,1.8-.38,4.09-.77,6.1-.55,2.89-.94,5.68-4.3,7.3-2,1-3,3.92-5,5.22-6,4-7.58,10.27-9.56,16.49-.46,1.46-1.89,2.62-2.91,3.88-1.38,1.71-3.44,3.17-4.07,5.11-1.64,5.1-3.58,9.82-8.24,12.92,1.38,2.2-.74,7.11-3.12,8.28a9.14,9.14,0,0,0-3.45,3.58c-2.68,4.57-4.21,10.26-7.9,13.67-5.18,4.79-6.44,10.92-8.95,16.75-1,2.26-2.74,4.17-3.94,6.35-3.06,5.53-5.88,11.2-9.08,16.64-1,1.63-2.88,2.7-4.79,4.41l1.15,2a70.48,70.48,0,0,0-13.92,29.23c-1.86,8.49-7.29,14.23-13.32,19.49-1.18,1-5.27-.06-7.19-1.38-2.61-1.79-5.73-4-4.27-8.38a4.89,4.89,0,0,0-.8-4.17c-5.74-5.78-2.1-11.85,0-17.2,2.35-6.08,6.56-11.42,9.58-17.27.92-1.78,0-4.49.92-6.29,3.38-6.78,7.21-13.34,10.75-20,2.45-4.62,4.7-9.34,7-14,1.57-3.13,3.09-6.29,4.75-9.37s3.51-6.17,5.27-9.25c.16-.28.15-.69.35-.92,4.51-5,6-11.68,9.5-17.23,3.17-5.07,6.13-10.18,8.87-15.46,2.48-4.77,4.59-9.16,5.55-14.39.15-.8,2.54-1.19,3.58-2.16-3.12-2.83-4.62-4.55-7.14-1a14.88,14.88,0,0,1-7.91,5.55c-3.61.85-7.65-.1-11.28.24-2.61.56-5.34.8-7.8,1.74-8.07,3.06-17,2.45-24.9,7.11-4.64,2.73-11.23,4.59-17.25.48-1.53-1-4.59-1.06-6.38-.27-4.14,1.82-7.95.26-11.5-.85-2.29-.72-4.47-3.4-5.63-5.73-2.16-4.39-3.52-9.17-5.27-13.77-.44-1.16-1.23-2.2-1.58-3.38a72.5,72.5,0,0,1-2-8.37C969.18,1320.06,970.93,1319.42,970.53,1319.63Z"/><path d="M414.8,622.46q8.78-6.65,17.56-13.3c3.92-2.95,8-2.69,12,.47,3.67,2.89,7.86,5.22,11.14,8.49,5.95,5.93,10.52,12.36,11.91,21.47,1.28,8.43-2.31,14.52-5.42,21.22-.42.89-1.62,1.44-2.5,2.1-1.33,1-3.31,1.68-3.92,3-2.11,4.61-6.05,4.27-9.94,4.25a17.39,17.39,0,0,1-4.55-.46c-5.51-1.54-11-3.22-16.45-4.86-2.8-.84-8.27-9.28-8.44-12.66-.22-4.61-.89-9.22-.9-13.83,0-3.69.72-7.37,1-11.06a18.32,18.32,0,0,0-.45-3.61Z"/></g></g></g></svg>