<?xml version="1.0" encoding="utf-8"?>
<!-- Generator: Adobe Illustrator 21.1.0, SVG Export Plug-In . SVG Version: 6.00 Build 0)  -->
<svg version="1.1" id="Layer_1" xmlns="http://www.w3.org/2000/svg" xmlns:xlink="http://www.w3.org/1999/xlink" x="0px" y="0px"
	 viewBox="0 0 53.4 51" style="enable-background:new 0 0 53.4 51;" xml:space="preserve">
<style type="text/css">
	.st0{fill:#FFFFFF;}
</style>
<title>Asset 1</title>
<g id="Layer_2">
	<g id="svg3070">
		<g id="layer1">
			<g id="g3019">
				<path id="path28" class="st0" d="M21.8,34.1V22.5h-3.9v11.6H21.8z M19.9,20.9c1.3,0,2.2-0.9,2.2-2c0-1.1-0.8-2-2.2-2
					s-2.2,0.9-2.2,2S18.5,20.9,19.9,20.9L19.9,20.9z"/>
				<path id="path30" class="st0" d="M23.9,34.1h3.9v-6.5c0-0.3,0-0.6,0.1-0.9c0.3-0.8,1.1-1.4,2-1.4c1.4,0,2,1.1,2,2.6v6.2h3.9
					v-6.6c0-3.6-1.9-5.2-4.4-5.2c-1.4-0.1-2.8,0.7-3.5,2h0v-1.7h-3.9C24,23.6,23.9,34.1,23.9,34.1L23.9,34.1z"/>
			</g>
		</g>
	</g>
</g>
</svg>
