<?xml version="1.0" encoding="UTF-8"?>
<svg width="152px" height="65px" viewBox="0 0 152 65" version="1.1" xmlns="http://www.w3.org/2000/svg" xmlns:xlink="http://www.w3.org/1999/xlink">
    <!-- Generator: Sketch 49.3 (51167) - http://www.bohemiancoding.com/sketch -->
    <title>myworkshift</title>
    <desc>Created with Sketch.</desc>
    <defs></defs>
    <g id="Page-1" stroke="none" stroke-width="1" fill="none" fill-rule="evenodd">
        <g id="myworkshift" fill="#07426F" fill-rule="nonzero">
            <path d="M145.510087,31.006091 C148.975283,29.5985906 153.285649,29.0014692 151.637568,28.2337417 C150.031746,27.5086657 145.341053,29.2147268 145.341053,29.2147268 L146.355257,22.8596492 C141.622306,20.5564667 141.537789,30.4516211 141.537789,30.4516211 L135.6216,33.2239704 C135.6216,33.2239704 140.354551,19.7887392 140.94617,18.7651025 C141.537789,17.7414658 144.200074,-2.26210076 138.072592,0.211687856 C131.945111,2.68547647 132.325438,34.4182132 132.325438,34.4182132 C132.325438,34.4182132 130.466064,39.1098813 129.536377,38.8966237 C128.564432,38.683366 127.972813,34.802077 127.972813,34.802077 C128.099588,25.4613924 123.324379,31.5179093 123.324379,31.5179093 C121.33823,41.2851092 120.746611,39.493745 120.746611,39.493745 C117.492707,35.1859407 117.957551,28.3190447 117.112381,26.2291199 C116.309469,24.139195 113.435892,27.3380596 113.435892,27.3380596 L110.477798,33.0107128 L110.351022,27.8072264 C110.351022,27.8072264 113.097824,26.485029 114.32332,23.328816 C115.591075,20.2152544 113.520409,9.08320566 111.23845,6.90797774 C108.956492,4.73274981 106.590016,7.9316144 106.590016,7.9316144 L106.590016,27.2527565 L104.012248,28.2337417 C104.012248,28.2337417 104.012248,28.2337417 98.9834878,26.2291199 C93.9547273,24.2244981 94.8421557,20.9403304 94.8421557,20.9403304 C95.1379651,15.5662379 98.4763859,16.7604807 98.4763859,16.7604807 C100.251243,20.4285121 102.237392,18.4665418 102.237392,18.4665418 C103.800956,17.7841173 101.857065,14.7985104 98.8567123,14.5852528 C94.4195707,14.2440405 91.3769593,20.5564667 91.3769593,20.5564667 C88.4188649,26.3570745 99.7441407,29.7265452 99.7441407,29.7265452 C90.658565,33.3092735 90.8698574,38.3848053 90.8698574,38.3848053 L82.8830026,33.2239704 C83.009778,29.3426814 85.672063,25.7599531 88.1230555,20.6417697 C90.574048,15.4809348 86.0523894,18.0400265 86.0523894,18.0400265 L79.4178063,30.0251059 C79.4178063,30.0251059 78.9107044,19.9593453 78.9107044,15.651541 C78.9107044,11.3437366 75.6568005,14.4572982 75.6568005,14.4572982 L74.8538892,27.210105 C71.5154683,26.9968474 70.9238495,28.7029085 70.9238495,28.7029085 C70.0364211,26.399726 69.1489928,26.8262413 69.1489928,26.8262413 L63.8244229,28.5323024 C65.0921776,25.5466954 60.4860021,27.935181 60.4860021,27.935181 C60.4860021,27.935181 58.2040435,26.6129836 57.6969416,20.4711636 C57.1898397,14.3293436 53.7246434,18.7651025 53.7246434,18.7651025 L54.0204529,20.9403304 C55.2036906,31.2193486 53.513351,39.5790481 53.513351,39.5790481 C50.6397735,35.3991984 50.8088075,31.3899547 50.8088075,31.3899547 C50.8088075,31.3899547 50.6397735,24.0112404 50.8088075,20.8976789 C50.935583,17.7841173 49.6255697,17.9120719 49.6255697,17.9120719 C45.3574621,17.2296475 43.6248639,37.5317748 43.6248639,37.5317748 C43.6248639,37.5317748 42.6106602,22.3904824 40.6667695,17.1016929 C38.7228789,11.8129034 36.3141449,12.5379794 36.3141449,12.5379794 C34.7083222,13.0497978 33.3560505,14.4572982 35.0463902,14.8411619 C36.7367298,15.2250257 38.215777,20.4285121 39.1877223,30.1104089 C40.1596676,39.7923057 37.4973827,41.754276 37.4973827,41.754276 C36.7789883,28.4896508 35.807043,29.5985906 35.807043,29.5985906 C33.7363769,29.470636 32.8489486,31.2193486 32.8489486,31.2193486 C32.8489486,32.9254098 29.5950448,40.6879878 29.5950448,40.6879878 L28.8766504,36.2095774 C28.3695485,32.8401067 29.1302014,29.9398028 27.8624466,28.2337417 C25.9608145,25.67465 22.7069107,37.7876839 22.7069107,37.7876839 C21.1433465,38.4701084 20.932054,24.2244981 20.7207616,21.3668457 C20.5094691,18.5518449 21.101088,17.7841173 18.52332,17.4002536 C15.945552,17.0163898 12.9874576,31.2620002 12.9874576,31.2620002 C12.9874576,31.2620002 11.212601,17.2296475 11.0858255,13.0071462 C10.95905,8.74199343 9.01515941,9.93623622 9.01515941,9.93623622 C4.87382724,13.1351008 4.78931026,17.8267689 4.78931026,17.8267689 C3.39478004,35.8683652 3.01445361,36.5507896 3.01445361,36.5507896 C3.0989706,38.4274568 2.16928378,40.133518 1.45088943,40.4320787 C-1.422688,41.7116245 0.859270546,42.5220035 0.859270546,42.5220035 C7.87418014,40.6026848 6.52190841,32.6695006 7.15578578,26.0585138 C7.62062919,21.1962396 8.16998958,18.2959357 8.16998958,18.2959357 C8.76160846,33.5225311 11.9309953,41.4983669 11.9309953,41.4983669 C13.621335,43.6735948 15.6074841,40.9012455 15.6074841,40.9012455 C15.2271577,29.9398028 17.5091162,24.7789679 17.5091162,24.7789679 C19.4107483,54.2938252 25.8762975,37.5317748 25.8762975,37.5317748 L26.6792089,42.7779127 C26.6792089,42.7779127 26.8059843,43.6735948 26.9750183,43.8868524 C27.1440523,44.0574585 27.7779296,44.2707162 28.2005145,44.3986708 C32.2573297,45.4223074 33.9476694,37.95829 33.9476694,37.95829 L34.5392883,45.2090498 C34.5392883,45.2090498 31.158609,50.4125362 26.0453315,55.5733711 C20.932054,60.7342059 22.1152918,68.411481 30.7782825,63.3359491 C39.4412733,58.2604173 37.9622261,44.9957921 37.9622261,44.9957921 C38.6806204,44.9104891 41.1316129,41.2851092 41.1316129,41.2851092 C45.69553,51.4788244 47.7661961,33.0960159 47.7661961,33.0960159 C48.7381414,41.5410184 52.6259226,43.5456402 52.6259226,43.5456402 C58.9224379,41.9248821 57.8659756,29.3000299 57.8659756,29.3000299 C57.9504926,30.3236665 60.3169681,30.3236665 60.3169681,30.3236665 L58.9224379,35.3138953 C58.1195265,46.7871563 64.3315248,43.1617764 64.3315248,43.1617764 C66.4021909,42.1381398 67.1205852,40.6879878 67.6699456,39.2804874 C69.6560947,33.8210918 64.8808852,30.195712 64.8808852,30.195712 L67.1628437,28.8735146 C69.9096457,30.7075303 69.0222173,39.0672298 69.0222173,39.0672298 C69.2335098,46.9151109 73.1635495,42.3513974 73.1635495,42.3513974 L73.5438759,29.2147268 L76.3329364,29.5132875 L76.8400383,43.7588978 C78.3190855,46.0620803 80.770078,43.3750341 80.770078,43.3750341 C80.3897516,39.3657905 81.9533157,35.3991984 81.9533157,35.3991984 C81.9533157,35.3991984 88.6724159,40.1761695 90.743082,41.668973 C92.8137481,43.1617764 99.4483312,46.5738987 104.054507,41.3704123 C108.618424,36.1669259 104.941935,29.7265452 104.941935,29.7265452 L107.223894,28.8735146 L108.533907,38.9819267 C108.533907,39.1525328 108.576165,39.2804874 108.576165,39.4510935 C109.548111,46.9577624 113.013307,42.2660944 113.013307,42.2660944 C112.210396,36.1669259 114.914939,31.006091 114.914939,31.006091 C114.830422,33.6931373 116.774313,39.493745 116.774313,39.493745 C121.33823,49.0050358 125.183753,37.7876839 125.183753,37.7876839 L126.282473,40.0908664 C128.437656,46.275338 132.494472,39.1098813 132.494472,39.1098813 C132.494472,39.1098813 131.818336,44.1001101 133.212866,53.7820069 C134.015777,59.1987509 137.523232,58.1324627 139.382606,56.0425379 C140.819394,54.3791283 140.692619,52.0759458 140.692619,52.0759458 C140.396809,33.5225311 137.227423,35.6551075 137.354198,34.7594255 C137.480974,33.8637434 141.622306,32.2856368 141.622306,32.2856368 L141.706823,39.8776088 C146.524291,45.8488227 148.51044,41.668973 148.51044,41.668973 C144.369108,40.2614725 144.960727,38.683366 144.960727,38.683366 L145.510087,31.006091 Z M27.3553447,62.6535247 C22.2843257,61.544585 34.2857373,49.0050358 34.2857373,49.0050358 C34.9196147,50.6684454 32.4263637,63.7624644 27.3553447,62.6535247 Z M63.2750625,41.1145031 C61.1198794,39.8776088 62.8524776,31.8591216 62.8524776,31.8591216 C66.1063814,36.7640473 63.2750625,41.1145031 63.2750625,41.1145031 Z M99.2370388,42.3087459 C96.7860463,42.3087459 93.5321424,40.0055634 94.0815028,36.5081381 C94.5886047,33.0107128 101.265446,30.8354849 101.265446,30.8354849 C104.477092,33.6931373 101.688031,42.3087459 99.2370388,42.3087459 Z M109.970696,12.1114641 C109.970696,12.1114641 110.984899,14.926465 111.280709,16.8884353 C112.548464,24.7789679 109.970696,25.8452561 109.970696,25.8452561 C108.787458,21.5801033 109.970696,12.1114641 109.970696,12.1114641 Z M138.241626,6.48146246 C140.608102,13.4336615 135.748375,25.8452561 135.748375,25.8452561 C134.945464,18.8504055 138.241626,6.48146246 138.241626,6.48146246 Z M137.269681,54.9335981 C135.832892,57.748599 135.410307,38.598063 135.410307,38.598063 C136.762579,37.2758656 138.748728,52.1185973 137.269681,54.9335981 Z" id="Shape"></path>
            <path d="M126.768146,23.4799107 C126.768146,23.4799107 123.232456,21.0887741 123.001868,26.9812177 C122.886574,30.098235 128.151677,25.2305642 126.768146,23.4799107 Z" id="Shape"></path>
        </g>
    </g>
</svg>