<svg xmlns="http://www.w3.org/2000/svg" viewBox="0 0 522.61 145.36"><title>Asset 1</title><g id="Layer_2" data-name="Layer 2"><g id="Layer_1-2" data-name="Layer 1"><path d="M549,109.08c-.33-.49-.76-.39-1.12-.4-5.22-.11-10.44-.41-15.65-.25-5,.15-9.91.82-14.87,1.2-1.49.12-3,.08-4.5.08-1.11,0-2.24.39-3.27.35-2.87-.1-6,.61-8.34-2a1.83,1.83,0,0,0-2.25-.47c-4.56,1.77-9.39,2.59-14.1,3.84-3.42.91-7.06.74-10.6.47a3.8,3.8,0,0,1-3.13-2.68,1.32,1.32,0,0,0-1.78-1c-1.39.34-2.8.63-4.21.88a10.51,10.51,0,0,1-8-1.95,4.51,4.51,0,0,1-1.77-3.46,11.8,11.8,0,0,1,2.14-7.85c1.85-2.76,3.45-5.69,5.73-8.15.21-.23.48-.58.23-.88a1,1,0,0,0-.77-.16c-2.77.51-5.59.68-8.21,2-3.26,1.6-5.41,4.35-7.72,6.95a29.29,29.29,0,0,0-2.31,3.25c-1.24,1.85-1.23,4.15-1.26,6.1,0,4.08-2.77,5.65-5.53,7.39a6.81,6.81,0,0,1-4.39,1.29c-1.76-.18-2.52-1.1-2.07-2.79a21.66,21.66,0,0,1,1-2.66c.4-1,0-1.37-.86-1-2.14.78-4.38,1.12-6.56,1.76a29.3,29.3,0,0,1-12.15,1.32,3.48,3.48,0,0,1-2.82-5.18c1.23-2.6,3.5-4.11,5.73-5.63a25.25,25.25,0,0,1,11.23-4.3c2.72-.33,4.86,1.22,7.07,2.47a1,1,0,0,1,.41,1.19,6,6,0,0,1-1.13,2.91c-.73.79-1.18,2.19-2.52,1.79s-.94-1.83-.92-2.88c0-1.22-.73-1.47-1.68-1.62a10.77,10.77,0,0,0-6,1.11,27.31,27.31,0,0,0-7.22,4.41c-.58.5-1.29,1.09-1,2a1.92,1.92,0,0,0,2.07,1.11,49.81,49.81,0,0,0,8.88-1.2c2.82-.57,5.56-1.5,8.44-1.8,2-.21,3.73-1.37,5.59-2.09a2.26,2.26,0,0,0,1.26-1.68,17.16,17.16,0,0,1,4.16-7.49c3.5-3.93,7.34-7.42,12.46-9.17A21.84,21.84,0,0,1,465,83a4.9,4.9,0,0,0,3.85-1.53c4.83-4.48,9.56-9.08,14.73-13.18.91-.72,1.94-1.28,2.86-2a2.06,2.06,0,0,1,3,.18,2.17,2.17,0,0,1-.64,3.07c-1.58.91-3,2.07-4.64,2.87-2.94,1.45-5.21,3.65-7.54,5.82-1.5,1.4-2.86,2.94-4.25,4.46-.76.84-.74,1.45.58,1.65s2.54.81,3.91.69a1,1,0,0,1,1.1.58c.19.59-.27.91-.64,1.24a2.28,2.28,0,0,1-2,.42c-1.37-.24-2.75-.38-4.1-.7a3.67,3.67,0,0,0-3.53,1,34,34,0,0,0-8.42,12.43c-1.65,4.08.69,5.55,3.82,6.27,2.49.57,5-.15,7.37-.86,1.46-.43,1.69-2,2.24-3.16a19.64,19.64,0,0,1,7.63-8.13,47,47,0,0,1,7.44-4,16.7,16.7,0,0,1,7.11-1.39c3.37.15,4.59,2.25,3.08,5.29-1.74,3.49-4.76,5.45-8,7.23-4.36,2.38-9.11,3.76-13.76,5.39-.55.19-1.38.12-1.45.88s.68,1.09,1.27,1.37c2.12,1,4.43.73,6.56.38a90.72,90.72,0,0,0,17.49-4.6c2.17-.82,3.67-2.67,5.61-3.85.76-.46,1.48-1,2.19-1.51a2,2,0,0,1,2.34-.15c.91.52,2,1,2,2.22,0,.94-1.86,2.92-2.79,3.1a3.13,3.13,0,0,0-1.11.31c-.71.46-1.92.78-1.65,1.81.23.86,1.36.46,2.09.49a98.62,98.62,0,0,0,15.3-.5c5.81-.67,11.61-.55,17.41-.72,3.87-.11,7.77.13,11.65.19.71,0,1.51,0,1.83.83a2,2,0,0,1-.61,2.11c-2.43,2.69-5.56,4.36-8.68,6.06-5.36,2.91-10.79,5.7-16.06,8.77-11.84,6.9-23.84,13.55-35.13,21.35-8.6,5.94-16.86,12.3-23.94,20-2.78,3-5.79,5.83-8.52,8.89a8.26,8.26,0,0,1-.6.57c-.49.45-1,.78-1.59.17s-.3-1.15.24-1.72c2.29-2.39,4.76-4.58,6.93-7.09a177.76,177.76,0,0,1,15.35-15,59.56,59.56,0,0,1,5.29-4A346,346,0,0,1,517,127.79c6.81-3.94,13.63-7.87,20.49-11.73,3.14-1.76,6.32-3.45,9.38-5.35A5.32,5.32,0,0,0,549,109.08Zm-72.68-5.92a.57.57,0,0,0,.69.16,83.7,83.7,0,0,0,10.53-4.05,16.14,16.14,0,0,0,6.68-4.81c.32-.42.82-.88.52-1.48s-.91-.61-1.46-.58a15.12,15.12,0,0,0-6.69,1.73,32.37,32.37,0,0,0-6.32,4.54C478.8,100,477,101.17,476.32,103.16Z" transform="translate(-32.39 -29.72)"/><path d="M371.55,61.44c-2.63,1.34-5.16,2.65-7.72,3.92-6.25,3.1-12.46,6.29-18.78,9.23-5.66,2.63-11.45,5-17.18,7.47a13.49,13.49,0,0,1-4.55.91c-2.22.15-3.27-1-3.67-3.21-.54-3,.23-6,.63-8.89.54-3.94,1.07-7.9,1.79-11.81.52-2.82,1.42-5.56,2.15-8.34.06-.21.21-.41.24-.62.11-.69.52-1.66-.15-2s-.95.69-1.35,1.15c-2.29,2.63-4.61,5.24-6.84,7.92-1.65,2-3.18,4.08-4.75,6.13-3.51,4.59-5.9,9.88-9.05,14.68-3.68,5.6-6.36,11.68-9.23,17.65-3.23,6.71-6.59,13.4-9.08,20.45-.27.76-.36,1.35.32,1.93a1.48,1.48,0,0,1,0,2.44c-1.34,1.3-1.54,3.49-3.41,4.37-.13.06-.16.4-.2.61a37.14,37.14,0,0,1-1.91,7.21,7.94,7.94,0,0,0,.08,5.38,2.2,2.2,0,0,1-1.41,3.05,2.33,2.33,0,0,0-.59.29c-.75.6-1.53,1.32-2.48.48a2.77,2.77,0,0,1-.89-3.17c1.28-2.51,1.42-5.33,2.43-7.9,2.34-6,4.41-12,7-17.9,2.7-6.07,6.06-11.81,8.47-18,1.09-2.81,3-5.31,4.08-8.11,2.19-5.56,5.72-10.36,8.44-15.62,2.84-5.51,6.69-10.44,10.47-15.36,3.43-4.46,7.2-8.67,10.57-13.18.63-.84,1.36-1.51,2.53-1.12A2.15,2.15,0,0,1,329,43.86a26.61,26.61,0,0,1-.93,5.07c-1.61,7.29-3.45,14.52-4.41,21.94-.18,1.43-.55,2.83-.78,4.25a4.62,4.62,0,0,0-.07,1.82c.66,2.59,1,3.37,3.71,2.57,5.13-1.52,9.89-3.89,14.81-5.87,4.15-1.67,8.22-3.54,12.25-5.49,3.54-1.72,6.9-3.8,10.46-5.48,4.15-2,8.24-4.05,12.35-6.09a7.28,7.28,0,0,1,1.1-.37c.83-.26,1.69-.4,2.24.48s.1,1.69-.58,2.36c-3.23,3.19-6.65,6.2-9.65,9.63-3.35,3.84-6.88,7.53-10,11.52a37.18,37.18,0,0,0-4.28,6.11c-.88,1.72-2.46,3-3.38,4.7a112,112,0,0,0-6,11.92,68.37,68.37,0,0,0-2.92,7.39c-1.26,4.89-2.32,9.84-.47,14.82,1.7,4.57,5.7,6.23,10.37,4.7a16.85,16.85,0,0,0,3.57-1.78,1.22,1.22,0,0,1,1.85.5,1.12,1.12,0,0,1-.65,1.64c-3.12,1.45-6.23,2.84-9.8,2.83a8.55,8.55,0,0,1-7.28-4,14.66,14.66,0,0,1-2.18-11.13,62.65,62.65,0,0,1,4-15.06A93.42,93.42,0,0,1,354.6,81.66c4-5,8-10.09,12.22-14.91,1.17-1.32,2.46-2.53,3.68-3.8C370.9,62.54,371.52,62.27,371.55,61.44Z" transform="translate(-32.39 -29.72)"/><path d="M149.64,93.08a59.35,59.35,0,0,0-5.47,3.67c-5.34,4.51-10.71,9-14.9,14.68-1.81,2.47-4.9,2.29-7.56,1.74-2.47-.51-3.2-2.83-3.69-5.06-.8-3.71.08-7.26,1.09-10.79.17-.6.77-1.32.23-1.83s-1.13.09-1.71.27c-5.47,1.71-9.46,5.68-13.86,9-1.63,1.24-3.12,2.66-4.68,4a4,4,0,0,1-5.81,0,1.27,1.27,0,0,0-1.68,0A25.62,25.62,0,0,1,84,111.49c-4.15,1-8.13-2.33-7.64-6.38a9.06,9.06,0,0,1,2.19-4.79A47.24,47.24,0,0,1,86,93.2a6.39,6.39,0,0,1,3.6-1.58c.85,0,1.75,0,2.18.86a2.37,2.37,0,0,1-.18,2.68c-1.17,1.33-2.46,2.55-3.75,3.77a1,1,0,0,1-1.48,0c-.73-.91-1.35-.55-1.89.13-1.42,1.76-3.12,3.34-3.76,5.62-.57,2,.07,3,2.19,3a15.35,15.35,0,0,0,13.33-6.49,32.2,32.2,0,0,0,3.15-6.23c.84-1.91-1.41-5-3.67-5.22-1.41-.11-2.87-.44-4.28.15a2.56,2.56,0,0,1-1,.12c-.71,0-1.36-.2-1.56-1s.26-1.12.79-1.51c2.06-1.5,6.23-1.68,8.38-.26a7.9,7.9,0,0,1,2.5,2.16c.69,1.08,1.1.6,1.4-.27,1.56-4.43,3.41-8.76,4.4-13.39.53-2.5.91-5,1.25-7.53a4.11,4.11,0,0,0-.29-2.27,3.73,3.73,0,0,1,.61-3.76c.75-1.12,1.74-.95,2.81-.55s1.22,1,1.08,2.1c-.34,2.64-.37,5.33-.85,7.94-.52,2.82-1.38,5.57-2.13,8.34a88.91,88.91,0,0,1-4.75,12.71,116.11,116.11,0,0,0-4.77,11.71,4.65,4.65,0,0,0,2-1.2c6-4.56,11.83-9.4,19.18-11.81,2.79-.92,3.88-.11,3.64,2.81-.18,2.19-1.11,4.17-1.62,6.26a21.27,21.27,0,0,0-.37,7.73,2.84,2.84,0,0,0,.74,1.47c.66.78,1.13,1,1.85-.08a47.22,47.22,0,0,0,4.09-7,12.13,12.13,0,0,1,.84-1.63c.43-.69.85-1.67,1.85-1.31s.61,1.37.54,2.19c0,.51-.58,1.19.07,1.5s1-.35,1.39-.72C138,98,143.3,94.48,148.18,90.38a5.9,5.9,0,0,1,4.5-1.78c1.37.14,2,.75,2,2.1a22.4,22.4,0,0,1-.84,5.56,12.57,12.57,0,0,0,.27,6.19c.9,3.7,1.62,7.49,3.6,10.84a11.21,11.21,0,0,0,1.54,2.17c.38.4.86.84.44,1.44a1.21,1.21,0,0,1-1.66.25,6.23,6.23,0,0,1-2.81-2.52,57.54,57.54,0,0,1-2.66-5.17c-1.18-2.68-2.25-5.42-3.33-8.15a6.69,6.69,0,0,1,0-3.94A13.12,13.12,0,0,0,149.64,93.08Z" transform="translate(-32.39 -29.72)"/><path d="M275.2,87.24c1.28,0,2.55,0,3.83,0,.69,0,1.46-.12,1.54.8s-.68,1.14-1.34,1.19c-1.83.15-3.63.45-5.44.71s-3.82,0-5.62.51c-4.4,1.15-9.12,1.53-12.72,4.82a1.8,1.8,0,0,0-.65,2.42c.73,1.64-.46,4.26-2.49,5.73a27.13,27.13,0,0,1-13.74,5.47,7.9,7.9,0,0,1-6.72-2.21c-1.07-1.17-2-1.35-3.29-.48a4.47,4.47,0,0,1-1.41.47c-.59.15-1.07.4-1,1.09a1.19,1.19,0,0,0,.95,1.21,4.23,4.23,0,0,1,1.92,1c.95.84.8,1.67-.36,2.15-2.33,1-4.37.28-5.33-2a16,16,0,0,1-1-9.28,33,33,0,0,0,.74-5.9,18.77,18.77,0,0,1,1.18-5c.62-2.19,1.1-4.39,1.58-6.61.78-3.65,1.84-7.25,2.75-10.88,1.36-5.41,2.71-10.83,4-16.25.26-1.07.26-2.2.42-3.29s1.62-2.33,2.61-2a1.88,1.88,0,0,1,1.45,2.42c-.13.59-.21,1.2-.39,1.78a88.44,88.44,0,0,0-3.17,12.16c-.46,3-1.61,6-2.41,9-1.32,5-2.23,10-3.4,15.06-.6,2.59-1,5.21-1.38,7.83,0,.33-.18.65.09.94.44.46,3.66,0,4-.6.91-1.53,1.07-3.36,2.06-4.89a19.21,19.21,0,0,1,13.91-9,3.37,3.37,0,0,1,3.55,1.31c.9,1.31.21,2.5-.48,3.55a24.78,24.78,0,0,1-6.2,6c-2.57,1.92-5.22,3.75-7.87,5.57-.84.58-.79,1.18-.14,1.75a4.93,4.93,0,0,0,3.42,1.51,21.05,21.05,0,0,0,11.16-3.82c1.1-.75,1.57-1.55.22-2.6-1-.79-.81-1.79-.24-2.83,1.53-2.79,4.13-4.27,6.82-5.62,3.75-1.87,7.89-2,11.94-2.64A50.23,50.23,0,0,1,275.2,87.24Zm-30.27,2.13a4.37,4.37,0,0,0-.86.2,18.44,18.44,0,0,0-8,6.72c-.25.36-.85.84-.37,1.29s.93-.09,1.34-.35a77.76,77.76,0,0,0,8.63-6.74c.24-.21.55-.47.33-.84S245.37,89.39,244.93,89.37Z" transform="translate(-32.39 -29.72)"/><path d="M190.37,80c4.09-.17,8.18-.29,12.26-.53a28.6,28.6,0,0,0,4.24-.75,1.78,1.78,0,0,1,2.13.88c.48.88-.24,1.39-.84,1.73a13.6,13.6,0,0,1-9.55,1.73,12.25,12.25,0,0,0-5.09-.2,23.27,23.27,0,0,1-6.78.32c-1.13-.07-1.66.29-1.82,1.38-.45,3.18-.65,6.43-1.33,9.54-.93,4.28-.54,8.59-1,12.88a93.16,93.16,0,0,0-.31,19.1,106.39,106.39,0,0,0,2.5,15.52,56.81,56.81,0,0,0,5.74,14.68c.44.76.87.89,1.58.36a1.27,1.27,0,0,1,1.69,0c.6.5.27,1,.16,1.65a3,3,0,0,1-3,2.82,2.45,2.45,0,0,1-2.36-.91,38.39,38.39,0,0,1-6.25-12.93c-.53-1.75-1-3.53-1.42-5.29-.63-2.35-.88-4.77-1.28-7.16A53.37,53.37,0,0,1,179,124c.21-5.17-.54-10.38.49-15.51a5.4,5.4,0,0,0,.13-1,152.7,152.7,0,0,1,2.14-22.12c.22-1.42-.13-1.67-1.54-1.56-5.2.38-10.25,1.79-15.47,2-.82,0-1.63.18-1.9-.82a1.71,1.71,0,0,1,1-1.93A7.62,7.62,0,0,1,167.94,82c4.06,0,8-1.27,12.07-1.14,2.32.07,2.55-.75,3.05-3,.71-3.11.93-6.3,2-9.36a45.67,45.67,0,0,0,1.58-7.63c.75-5,2.52-9.6,4.27-14.26,1-2.54,2-5.05,3-7.59.37-1,.94-1.93,0-2.94a.67.67,0,0,1-.09-.63c1.42-1.78,1.8-4.32,4-5.49a1.76,1.76,0,0,1,2.27.31,1.72,1.72,0,0,1,.26,2.14c-1.73,3.88-3.58,7.72-5.12,11.69-1.82,4.69-3.44,9.46-5,14.24-.58,1.77-.65,3.7-1.06,5.54-1.1,5-2.25,10-3.38,15.06-.17.76,0,1.16.9,1.11,1.22-.06,2.44,0,3.66,0Z" transform="translate(-32.39 -29.72)"/><path d="M396.47,121.28A55.72,55.72,0,0,0,416.69,117a9.26,9.26,0,0,0,3.06-2.25c.56-.6,1.36-1,2.06-.44s.21,1.47-.16,2.12a4.59,4.59,0,0,1-2,1.5,51.89,51.89,0,0,1-15.61,5.25,77,77,0,0,1-12.22,1.1c-4.76.17-9.61-.61-13.36-3.68-2.06-1.69-3.14-1-4.78,0a21.06,21.06,0,0,1-11.9,2.82,7.59,7.59,0,0,1-3.49-1c-2.35-1.4-3.07-3.7-2.11-6.5a19.16,19.16,0,0,1,5.13-7.66,67.11,67.11,0,0,1,10.93-8.56c.86-.52,1.8-1.09,2.75-.25s.47,1.64,0,2.56a5.4,5.4,0,0,1-2.74,2.57,68.55,68.55,0,0,0-7.77,5.34,1.23,1.23,0,0,0-.43.86,2.13,2.13,0,0,1-2,2.39c-1.3.28-2.15,3-1.83,5.15.24,1.55,1.51,1.51,2.64,1.76,3.6.81,6.91-.08,10.09-1.68,1.13-.57,1.71-1.07,1.27-2.79a13,13,0,0,1,.7-9.43,48.44,48.44,0,0,1,3.07-5.88c3.27-4.54,6.5-9.09,10.7-12.87,2.14-1.93,4.14-4,6.29-5.95,3.84-3.41,7.57-7,11.6-10.15.69-.55,1.3-1.2,1.94-1.82.87-.84,2.76-1.18,3.3-.46.82,1.08.3,2.09-.47,3-1.87,2.2-4.41,3.48-6.86,4.86a16.32,16.32,0,0,0-1.67,1.33c-3.15,2.35-5.78,5.27-8.8,7.76a69,69,0,0,0-6.24,6.43,68,68,0,0,0-7.62,10.41,16.62,16.62,0,0,0-2.9,9.87,6.59,6.59,0,0,0,3.59,5.43C385.27,120.68,390,121.28,396.47,121.28Z" transform="translate(-32.39 -29.72)"/><path d="M71.69,97.7c.48-4.89-.73-10.38-2.18-15.78a54.09,54.09,0,0,0-7.93-16.73,14.39,14.39,0,0,0-2.49-2.44c-1.11-1-1-2.22.28-3.27s3-1.13,3.66,0a87.72,87.72,0,0,1,8.09,16.88A59.22,59.22,0,0,1,74.33,92a81.17,81.17,0,0,1-.5,16.23,103.64,103.64,0,0,1-2.45,14.22,68.85,68.85,0,0,1-6.22,15.36,107.8,107.8,0,0,1-6.25,10.2,76.29,76.29,0,0,1-5.73,6.88,56.35,56.35,0,0,1-8.53,7.88c-2.73,2-5.54,3.85-8.43,5.56-1,.59-2.31.12-3.27-.62s-.46-1.7-.09-2.57a25.13,25.13,0,0,1,3.47-6c.48-.6,1.21-1.26,2-.56s.34,1.49-.22,2.08a7,7,0,0,0-1,2.26c-.15.33-.52.73-.09,1s.75-.06,1.06-.27a72.28,72.28,0,0,0,7-5.07,112.4,112.4,0,0,0,8.72-8.89A74.78,74.78,0,0,0,63.22,136a54.86,54.86,0,0,0,5.91-15.78,116,116,0,0,0,2-13.25C71.37,104.12,71.65,101.31,71.69,97.7Z" transform="translate(-32.39 -29.72)"/><path d="M204.51,104.76c-1.48.79-2.87,1.47-4.2,2.24a11.81,11.81,0,0,1-4.79,1.14c-1.76.19-3.55-2.33-3.34-4.65a22.91,22.91,0,0,1,2.15-8.33,3.46,3.46,0,0,1,1.23-1.32,1.75,1.75,0,0,1,2.17-.14,1.86,1.86,0,0,1,.63,2.24c-.56,1.56-1.17,3.11-1.72,4.67a11.06,11.06,0,0,0-.5,1.93c-.27,1.67.83,2.65,2.5,2.2a7.74,7.74,0,0,0,2.48-.93c3.22-2.3,6.7-4.31,9.31-7.38a35,35,0,0,1,5.22-4.63c.88-.7,1.88-1.11,2.87-.26s.38,1.84.06,2.76a2.5,2.5,0,0,1-1,1.28c-5.35,3.46-8.35,8.63-10.86,14.3a52.81,52.81,0,0,0-3.41,9.66c-.7,3.1-1.61,6.21-1.59,9.46a11.86,11.86,0,0,1-.51,3.94,2.68,2.68,0,0,0,.32,2.7c.74.88.19,1.5-.37,2.18a3.24,3.24,0,0,1-3.58,1.14c-1-.25-1-1.14-.93-1.92a33.9,33.9,0,0,1,.42-3.62c.8-4.41,1-8.9,2.27-13.24.62-2.15.82-4.41,1.49-6.59a57,57,0,0,1,3.39-7.7C204.33,105.58,204.65,105.36,204.51,104.76Z" transform="translate(-32.39 -29.72)"/><path d="M50,39.54a2.37,2.37,0,0,1,2,1c1,1,1.57,2.4,2.79,3.26a1,1,0,0,1,.25,1.36.91.91,0,0,1-1.16.4,24.62,24.62,0,0,1-5.13-1.84c-1-.63-1.9-1.48-1.49-2.84S49,39.67,50,39.54Z" transform="translate(-32.39 -29.72)"/></g></g></svg>