<?xml version="1.0" encoding="utf-8"?>
<!-- Generator: Adobe Illustrator 23.0.2, SVG Export Plug-In . SVG Version: 6.00 Build 0)  -->
<svg version="1.1" id="Layer_1" xmlns="http://www.w3.org/2000/svg" xmlns:xlink="http://www.w3.org/1999/xlink" x="0px" y="0px"
	 viewBox="0 0 153 28.5" style="enable-background:new 0 0 153 28.5;" xml:space="preserve">
<style type="text/css">
	.st0{fill:#31343C;}
	.st1{fill:#3761FB;}
</style>
<title>Asset 1</title>
<g>
	<g id="content">
		<path class="st0" d="M61.2,24.1v-3.4l7-7.7h-6.8V9.7H73V13l-7.3,7.9h7.4v3.2H61.2z"/>
		<path class="st0" d="M40.5,19.8c-0.6,0.8-1.5,1.4-2.9,1.4c-1.9,0-3.5-1.4-3.6-3.3h10.3c0-0.1,0.1-0.6,0.1-1.2
			c0-4.6-2.7-7.4-7.1-7.4c-3.7,0-7.1,3-7.1,7.6c0,4.8,3.5,7.7,7.4,7.7c2.9,0,4.9-1.4,6-3.2L40.5,19.8z M37.3,12.4
			c2.2,0,3.1,1.4,3.2,2.8h-6.4C34.2,14,35.3,12.4,37.3,12.4z"/>
		<path class="st0" d="M84.6,19.8c-0.6,0.8-1.5,1.4-2.9,1.4c-1.9,0-3.5-1.4-3.6-3.3h10.3c0-0.1,0.1-0.6,0.1-1.2
			c0-4.6-2.7-7.4-7.1-7.4c-3.7,0-7.1,3-7.1,7.5c0,4.8,3.5,7.7,7.4,7.7c2.9,0,4.9-1.4,6-3.2L84.6,19.8z M81.4,12.4
			c2.2,0,3.1,1.4,3.2,2.8h-6.4C78.3,14,79.4,12.4,81.4,12.4z"/>
		<path class="st0" d="M25.3,9.7H29v3.2h-3.7v6.2c0,1.2,0.5,1.9,1.5,1.9c0.5,0,1-0.2,1.5-0.4l1.2,2.7c-0.8,0.6-2.2,1.1-3.5,1.1
			c-2.8,0-4.6-1.9-4.6-4.7V5.9h3.8V9.7z"/>
		<path class="st0" d="M116.5,9.7h3.7v3.2h-3.7v6.2c0,1.2,0.5,1.9,1.5,1.9c0.5,0,1-0.2,1.5-0.4l1.2,2.7c-0.8,0.6-2.2,1.1-3.5,1.1
			c-2.8,0-4.5-1.9-4.5-4.7V5.9h3.8V9.7z"/>
		<path class="st0" d="M106.2,24.1h3.9V9.7h-3.9V24.1z M106.2,4.4v3.4h3.9V4.4L106.2,4.4z"/>
		<path class="st0" d="M46.3,4.4h3.8v10.7h1.5l3.7-5.3h4.2L55,16.1l4.8,7.9h-4.4l-3.7-5.9h-1.6v5.9h-3.8V4.4z"/>
		<path class="st0" d="M94.3,24.1h-3.9V9.7h3.8v1.8c0.9-1.5,2.6-2.2,4.1-2.2c3.6,0,5.2,2.5,5.2,5.7v9h-3.9v-8.4
			c0-1.6-0.8-2.9-2.7-2.9c-1.7,0-2.7,1.3-2.7,3V24.1z"/>
		<path class="st1" d="M126.9,4.1c-2.5,0-4.6,2.1-4.6,4.6s2.1,4.6,4.6,4.6c2.5,0,4.6-2.1,4.6-4.6S129.4,4.1,126.9,4.1
			C126.9,4.1,126.9,4.1,126.9,4.1z M126.9,10.7c-1.1,0-2-0.9-2-2s0.9-2,2-2c1.1,0,2,0.9,2,2C128.9,9.8,128,10.7,126.9,10.7
			C126.9,10.7,126.9,10.7,126.9,10.7z"/>
	</g>
</g>
</svg>
