<?xml version="1.0" encoding="UTF-8"?>
<svg width="877px" height="177px" viewBox="0 0 877 177" version="1.1" xmlns="http://www.w3.org/2000/svg" xmlns:xlink="http://www.w3.org/1999/xlink">
    <!-- Generator: Sketch 50.2 (55047) - http://www.bohemiancoding.com/sketch -->
    <title>Floating Header</title>
    <desc>Created with Sketch.</desc>
    <defs>
        <linearGradient x1="100%" y1="0%" x2="6.16002653%" y2="100%" id="linearGradient-1">
            <stop stop-color="#C9A6FF" offset="0%"></stop>
            <stop stop-color="#986DFF" offset="100%"></stop>
        </linearGradient>
        <linearGradient x1="50%" y1="0.517070087%" x2="50%" y2="100%" id="linearGradient-2">
            <stop stop-color="#986DFF" stop-opacity="0.7" offset="0%"></stop>
            <stop stop-color="#7236FF" offset="100%"></stop>
        </linearGradient>
    </defs>
    <g id="Website" stroke="none" stroke-width="1" fill="none" fill-rule="evenodd">
        <g id="Artboard" transform="translate(-135.000000, -156.000000)">
            <g id="Floating-Header" transform="translate(135.000000, 156.000000)">
                <g id="Logo">
                    <g id="ud-logo">
                        <polygon id="Rectangle" fill="url(#linearGradient-1)" points="0 109.658247 61.5115195 54.8291233 61.5115195 121.696193 0 176.523031"></polygon>
                        <polygon id="Rectangle-Copy" fill-opacity="0.9" fill="#986DFF" transform="translate(30.755760, 60.846954) scale(-1, 1) translate(-30.755760, -60.846954) " points="0 54.8291233 61.5115195 5.68434189e-14 61.5115195 66.86707 0 121.693908"></polygon>
                    </g>
                </g>
                <g id="UD" transform="translate(106.983655, 62.852897)">
                    <path d="M36.8357053,28.8354383 C36.8357053,30.6289558 36.4569828,32.2613806 35.6995264,33.7327614 C34.9420699,35.2041423 33.8102555,36.4665507 32.304049,37.5200246 C30.7978426,38.5734985 28.9129362,39.3875343 26.6492733,39.9621564 C24.3856104,40.5367785 21.7476121,40.8240853 18.7351992,40.8240853 C15.7227863,40.8240853 13.084788,40.5367785 10.8211251,39.9621564 C8.55746221,39.3875343 6.66820269,38.5734985 5.15328984,37.5200246 C3.63837699,36.4665507 2.5022094,35.2041423 1.74475297,33.7327614 C0.987296547,32.2613806 0.608574016,30.6289558 0.608574016,28.8354383 L0.608574016,4.23128715 L3.87345607,4.23128715 L3.87345607,29.0966289 C3.87345607,30.2981115 4.19123475,31.4342791 4.82680163,32.5051658 C5.46236852,33.5760524 6.40699828,34.5119759 7.66071926,35.3129643 C8.91444024,36.1139527 10.4641554,36.7495101 12.3099113,37.2196555 C14.1556672,37.6898008 16.2974084,37.92487 18.7351992,37.92487 C21.1555772,37.92487 23.2886121,37.6898008 25.134368,37.2196555 C26.9801239,36.7495101 28.5298391,36.1139527 29.7835601,35.3129643 C31.0372811,34.5119759 31.9819108,33.5760524 32.6174777,32.5051658 C33.2530446,31.4342791 33.5708233,30.2981115 33.5708233,29.0966289 L33.5708233,4.23128715 L36.8357053,4.23128715 L36.8357053,28.8354383 Z M90.9543903,9.53345561 C90.2752915,9.20261257 89.4917276,8.85000884 88.6036752,8.47563382 C87.7156229,8.10125881 86.701343,7.7660676 85.5608052,7.47005015 C84.4202673,7.1740327 83.1360932,6.92590414 81.7082443,6.72565704 C80.2803954,6.52540994 78.6958552,6.42528789 76.9545761,6.42528789 C74.8476283,6.42528789 72.9714282,6.5471756 71.3259194,6.79095468 C69.6804106,7.03473376 68.2874082,7.41345629 67.1468704,7.92713364 C66.0063325,8.44081098 65.135706,9.08942773 64.5349647,9.87300334 C63.9342234,10.656579 63.6338573,11.5881493 63.6338573,12.6677424 C63.6338573,13.5732075 63.9168109,14.3654777 64.4827266,15.0445765 C65.0486423,15.7236754 65.8147936,16.3244077 66.7812036,16.8467914 C67.7476135,17.3691752 68.8794279,17.8436666 70.1766809,18.27028 C71.4739339,18.6968934 72.8495237,19.0973816 74.3034918,19.4717566 C75.7574599,19.8461316 77.2549375,20.2248541 78.7959695,20.6079355 C80.3370016,20.991017 81.8344792,21.4045646 83.2884473,21.8485907 C84.7424153,22.2926169 86.1180052,22.788874 87.4152582,23.337377 C88.7125111,23.8858799 89.8443256,24.5257904 90.8107355,25.2571276 C91.7771454,25.9884648 92.5432968,26.8242663 93.1092125,27.764557 C93.6751282,28.7048478 93.9580818,29.7931309 93.9580818,31.0294391 C93.9580818,32.370224 93.7056001,33.5412167 93.2006292,34.5424522 C92.6956582,35.5436877 92.0122164,36.4056079 91.1502832,37.1282388 C90.2883501,37.8508696 89.2784233,38.4516019 88.1204727,38.9304537 C86.9625221,39.4093054 85.7262324,39.788028 84.4115667,40.0666326 C83.0969009,40.3452373 81.7387236,40.5411282 80.3369939,40.6543114 C78.9352642,40.7674945 77.5553211,40.8240853 76.1971234,40.8240853 C73.0802338,40.8240853 70.2550507,40.5977224 67.7214896,40.1449898 C65.1879285,39.6922572 62.7719399,39.0741124 60.4734514,38.2905368 L60.4734514,34.2943211 C62.8415911,35.7047572 65.3446423,36.6711527 67.9826802,37.1935364 C70.6207181,37.7159201 73.3936635,37.9771081 76.3015996,37.9771081 C78.356309,37.9771081 80.2542748,37.8552204 81.995554,37.6114413 C83.7368331,37.3676622 85.243017,36.9802334 86.5141507,36.4491433 C87.7852845,35.9180532 88.7734456,35.2259051 89.4786636,34.3726783 C90.1838817,33.5194515 90.5364854,32.4746997 90.5364854,31.2383915 C90.5364854,30.2458624 90.2535318,29.3752359 89.6876161,28.6264859 C89.1217004,27.8777359 88.355549,27.2204128 87.3891391,26.6544971 C86.4227292,26.0885814 85.2909147,25.5879712 83.9936618,25.1526514 C82.6964088,24.7173316 81.3251721,24.3124903 79.8799104,23.9381152 C78.4346487,23.5637402 76.9415242,23.1980771 75.4004922,22.8411149 C73.8594602,22.4841527 72.3663357,22.0967239 70.921074,21.6788169 C69.4758123,21.2609099 68.1045756,20.7907716 66.8073226,20.2683878 C65.5100697,19.7460041 64.3782552,19.1322124 63.4118453,18.4269943 C62.4454354,17.7217763 61.679284,16.9077405 61.1133683,15.9848626 C60.5474526,15.0619846 60.264499,13.991114 60.264499,12.7722186 C60.264499,11.570736 60.4908619,10.5042185 60.9435944,9.57263419 C61.396327,8.64104986 62.018825,7.83572033 62.811107,7.15662147 C63.603389,6.47752261 64.5306062,5.90726224 65.5927865,5.44582327 C66.6549668,4.9843843 67.7911344,4.61872117 69.0013234,4.3488229 C70.2115124,4.07892463 71.4695677,3.88303367 72.775527,3.76114413 C74.0814864,3.63925459 75.3700136,3.57831074 76.6411474,3.57831074 C78.0341707,3.57831074 79.3531699,3.63925459 80.5981844,3.76114413 C81.843199,3.88303367 83.0446636,4.04409957 84.2026142,4.24434668 C85.3605649,4.44459378 86.4923793,4.6753098 87.5980916,4.93650167 C88.7038038,5.19769354 89.8225589,5.47629403 90.9543903,5.77231148 L90.9543903,9.53345561 Z M117.439114,40.1188707 L117.439114,4.23128715 L147.345433,4.23128715 L147.345433,7.28721675 L120.991305,7.28721675 L120.991305,19.6415305 L146.013361,19.6415305 L146.013361,22.671341 L120.991305,22.671341 L120.991305,37.0629411 L147.737219,37.0629411 L147.737219,40.1188707 L117.439114,40.1188707 Z M174.457014,24.7608655 L174.457014,40.1188707 L171.192132,40.1188707 L171.192132,4.23128715 L189.057566,4.23128715 C191.791375,4.23128715 194.13336,4.44459064 196.083593,4.87120403 C198.033825,5.29781742 199.631425,5.94208104 200.876439,6.80401421 C202.121454,7.66594738 203.031259,8.74117112 203.605881,10.0297177 C204.180503,11.3182642 204.46781,12.8244481 204.46781,14.5483145 C204.46781,17.2298843 203.762602,19.3759787 202.352166,20.9866619 C200.94173,22.5973451 198.669395,23.6986876 195.535092,24.2907225 L207.78493,40.1188707 L203.684238,40.1188707 L192.113496,24.6563893 C191.625938,24.6912149 191.129681,24.7173337 190.62471,24.7347465 C190.119739,24.7521593 189.597363,24.7608655 189.057566,24.7608655 L174.457014,24.7608655 Z M201.098451,14.5483145 C201.098451,13.0159888 200.828557,11.775346 200.288761,10.8263489 C199.748964,9.87735177 198.869631,9.14167237 197.650736,8.61928863 C196.431841,8.09690489 194.834241,7.74430116 192.857889,7.56146685 C190.881537,7.37863254 188.456842,7.28721675 185.583732,7.28721675 L174.457014,7.28721675 L174.457014,21.7049359 L185.479256,21.7049359 C188.352366,21.7049359 190.781414,21.6222264 192.766472,21.4568049 C194.751531,21.2913834 196.36219,20.951839 197.598498,20.4381617 C198.834806,19.9244843 199.727198,19.2018643 200.275701,18.27028 C200.824204,17.3386957 201.098451,16.0980529 201.098451,14.5483145 Z" id="USER" fill="#131313"></path>
                    <path d="M298.433727,22.1489599 C298.433727,24.4474483 298.181246,26.4890675 297.676275,28.2738786 C297.171304,30.0586897 296.461743,31.6127581 295.547572,32.9361302 C294.6334,34.2595023 293.536411,35.3826105 292.25657,36.3054885 C290.97673,37.2283664 289.553256,37.968399 287.986105,38.5256083 C286.418953,39.0828176 284.729938,39.4876589 282.919008,39.7401444 C281.108077,39.9926299 279.218818,40.1188707 277.251172,40.1188707 L254.475355,40.1188707 L254.475355,4.23128715 L277.198934,4.23128715 C279.16658,4.23128715 281.055839,4.35752799 282.86677,4.61001347 C284.6777,4.86249894 286.371068,5.26734027 287.946926,5.82454959 C289.522784,6.38175892 290.954964,7.11743832 292.243511,8.03160986 C293.532057,8.94578141 294.6334,10.0688896 295.547572,11.4009681 C296.461743,12.7330467 297.171304,14.287115 297.676275,16.0632197 C298.181246,17.8393244 298.433727,19.8678842 298.433727,22.1489599 Z M288.6652,22.1489599 C288.6652,20.4250935 288.44319,18.9276159 287.999164,17.6564822 C287.555138,16.3853484 286.841224,15.3362435 285.857402,14.5091359 C284.873579,13.6820283 283.589405,13.0638835 282.004841,12.6546829 C280.420277,12.2454823 278.487486,12.040885 276.20641,12.040885 L264.165525,12.040885 L264.165525,32.3092728 L276.20641,32.3092728 C278.487486,32.3092728 280.420277,32.1046756 282.004841,31.695475 C283.589405,31.2862744 284.873579,30.6594233 285.857402,29.814903 C286.841224,28.9703826 287.555138,27.9125714 287.999164,26.6414376 C288.44319,25.3703038 288.6652,23.8728262 288.6652,22.1489599 Z M348.268887,25.4660801 L348.268887,40.1188707 L338.604836,40.1188707 L338.604836,25.4660801 L321.209544,4.23128715 L332.075072,4.23128715 L343.462981,18.6751254 L354.798651,4.23128715 L365.664179,4.23128715 L348.268887,25.4660801 Z M426.312628,40.1188707 L402.100262,15.4624814 L402.100262,40.1188707 L392.410092,40.1188707 L392.410092,4.23128715 L402.936072,4.23128715 L427.174557,28.9921527 L427.174557,4.23128715 L436.812488,4.23128715 L436.812488,40.1188707 L426.312628,40.1188707 Z M496.938556,33.327916 L476.931359,33.327916 L473.562001,40.1188707 L462.748711,40.1188707 L481.528313,4.23128715 L492.341602,4.23128715 L511.121204,40.1188707 L500.307915,40.1188707 L496.938556,33.327916 Z M480.405194,26.3280089 L493.51696,26.3280089 L486.987196,13.1117663 L480.405194,26.3280089 Z M582.687419,40.1188707 L582.687419,14.9139812 L569.3667,40.1188707 L560.068316,40.1188707 L546.747597,14.9139812 L546.747597,40.1188707 L537.057427,40.1188707 L537.057427,4.23128715 L550.221432,4.23128715 L564.717508,31.3951059 L579.213584,4.23128715 L592.325351,4.23128715 L592.325351,40.1188707 L582.687419,40.1188707 Z M623.61598,40.1188707 L623.61598,4.23128715 L633.30615,4.23128715 L633.30615,40.1188707 L623.61598,40.1188707 Z M704.141031,37.6636794 C702.88731,38.1860632 701.624902,38.6562015 700.353768,39.0741085 C699.082634,39.4920155 697.767988,39.8533255 696.409791,40.1580493 C695.051593,40.4627732 693.619412,40.6934892 692.113206,40.8502043 C690.606999,41.0069194 688.991987,41.0852758 687.268121,41.0852758 C683.611435,41.0852758 680.246463,40.6934939 677.173105,39.9099183 C674.099748,39.1263427 671.453043,37.9466437 669.232912,36.3707861 C667.012781,34.7949285 665.284588,32.8273126 664.04828,30.4678794 C662.811971,28.1084461 662.193827,25.3529132 662.193827,22.201198 C662.193827,19.0494828 662.811971,16.2939499 664.04828,13.9345166 C665.284588,11.5750834 667.012781,9.60746748 669.232912,8.03160986 C671.453043,6.45575224 674.099748,5.27605332 677.173105,4.49247771 C680.246463,3.7089021 683.611435,3.31712017 687.268121,3.31712017 C688.991987,3.31712017 690.606999,3.39547656 692.113206,3.55219168 C693.619412,3.7089068 695.051593,3.93962283 696.409791,4.24434668 C697.767988,4.54907052 699.082634,4.91038053 700.353768,5.32828752 C701.624902,5.74619451 702.88731,6.21633283 704.141031,6.73871657 L704.141031,15.4624814 C703.148502,14.9226849 702.10375,14.3872496 701.006745,13.8561595 C699.909739,13.3250693 698.699568,12.8462247 697.376196,12.4196113 C696.052824,11.992998 694.598877,11.6447474 693.014313,11.3748491 C691.429749,11.1049508 689.644965,10.9700037 687.659907,10.9700037 C684.612668,10.9700037 682.083498,11.2834293 680.072321,11.9102897 C678.061143,12.5371502 676.454837,13.3729517 675.253355,14.4177192 C674.051872,15.4624867 673.207365,16.6595981 672.719806,18.0090894 C672.232248,19.3585808 671.988473,20.7559363 671.988473,22.201198 C671.988473,23.1589015 672.092948,24.1035313 672.301901,25.0351156 C672.510855,25.9667 672.859106,26.8460327 673.346664,27.6731403 C673.834222,28.5002479 674.469779,29.2620461 675.253355,29.9585578 C676.03693,30.6550694 677.012032,31.2558017 678.178689,31.7607727 C679.345346,32.2657436 680.707877,32.6618787 682.266322,32.9491897 C683.824766,33.2365008 685.62261,33.3801542 687.659907,33.3801542 C689.644965,33.3801542 691.429749,33.2539133 693.014313,33.0014278 C694.598877,32.7489424 696.052824,32.4137512 697.376196,31.9958442 C698.699568,31.5779372 699.909739,31.1034457 701.006745,30.5723556 C702.10375,30.0412655 703.148502,29.4971239 704.141031,28.9399146 L704.141031,37.6636794 Z M766.304386,14.339362 C765.625287,14.008519 764.728542,13.6341496 763.614123,13.2162426 C762.499704,12.7983356 761.237296,12.4022005 759.82686,12.0278255 C758.416424,11.6534505 756.884121,11.3400249 755.229906,11.0875395 C753.575691,10.835054 751.877969,10.7088132 750.13669,10.7088132 C748.743666,10.7088132 747.555261,10.7523445 746.571439,10.8394084 C745.587616,10.9264724 744.760521,11.0396538 744.090128,11.1789562 C743.419736,11.3182585 742.888654,11.4793244 742.496866,11.6621587 C742.105078,11.844993 741.804712,12.0321777 741.595758,12.2237184 C741.386805,12.4152591 741.251858,12.606797 741.190913,12.7983377 C741.129968,12.9898784 741.099496,13.1640037 741.099496,13.3207188 C741.099496,13.8431025 741.360684,14.3001815 741.883068,14.6919693 C742.405452,15.0837571 743.119365,15.4320077 744.024831,15.7367315 C744.930296,16.0414554 745.983754,16.3287621 747.185236,16.5986604 C748.386719,16.8685586 749.662187,17.1471591 751.011678,17.4344702 C752.361169,17.7217812 753.754172,18.0352068 755.190727,18.3747562 C756.627282,18.7143057 758.020285,19.1104407 759.369776,19.5631733 C760.719268,20.0159059 761.994735,20.5426349 763.196218,21.1433762 C764.397701,21.7441175 765.451159,22.4449718 766.356624,23.2459603 C767.262089,24.0469487 767.976003,24.9698128 768.498386,26.0145802 C769.02077,27.0593477 769.281958,28.252106 769.281958,29.592891 C769.281958,31.3167573 768.977239,32.7968224 768.367791,34.0331306 C767.758343,35.2694388 766.944308,36.3141906 765.925659,37.1674173 C764.907011,38.0206441 763.727312,38.7040859 762.386527,39.2177633 C761.045742,39.7314406 759.63968,40.1275757 758.1683,40.4061803 C756.696919,40.684785 755.208147,40.8676166 753.701941,40.9546805 C752.195734,41.0417445 750.763554,41.0852758 749.405356,41.0852758 C745.853147,41.0852758 742.566532,40.7936159 739.545412,40.2102874 C736.524293,39.6269589 733.855823,38.8999858 731.539922,38.0293462 L731.539922,29.4622957 C733.925474,30.7856678 736.646182,31.8217134 739.702127,32.5704634 C742.758072,33.3192134 746.027274,33.6935828 749.509832,33.6935828 C751.564542,33.6935828 753.240498,33.5847545 754.537751,33.3670946 C755.835004,33.1494347 756.849284,32.8708343 757.580621,32.5312848 C758.311958,32.1917354 758.808215,31.8217191 759.069407,31.4212249 C759.330599,31.0207307 759.461193,30.6376551 759.461193,30.2719864 C759.461193,29.6973643 759.200005,29.1967541 758.677621,28.7701407 C758.155237,28.3435273 757.441324,27.9691579 756.535859,27.6470213 C755.630393,27.3248846 754.576935,27.0288716 753.375453,26.7589733 C752.17397,26.4890751 750.898502,26.2191809 749.549011,25.9492826 C748.19952,25.6793843 746.81087,25.3877244 745.383021,25.0742942 C743.955173,24.760864 742.566523,24.3908477 741.217032,23.9642343 C739.867541,23.5376209 738.592073,23.0413638 737.39059,22.4754481 C736.189108,21.9095324 735.135649,21.23915 734.230184,20.4642807 C733.324719,19.6894115 732.610805,18.7926662 732.088422,17.7740179 C731.566038,16.7553696 731.30485,15.5756707 731.30485,14.2348858 C731.30485,12.6503218 731.583451,11.2834381 732.14066,10.1341939 C732.697869,8.98494968 733.450961,8.00549485 734.399958,7.19580006 C735.348955,6.38610526 736.445945,5.72878224 737.690959,5.22381129 C738.935974,4.71884034 740.246267,4.32705841 741.621877,4.04845375 C742.997488,3.76984909 744.39049,3.57831126 745.800926,3.47383451 C747.211362,3.36935776 748.552127,3.31712017 749.823261,3.31712017 C751.216284,3.31712017 752.648465,3.38677029 754.119846,3.52607262 C755.591227,3.66537495 757.04082,3.86126592 758.468669,4.11375139 C759.896518,4.36623687 761.276461,4.65789675 762.608539,4.98873978 C763.940618,5.31958282 765.172554,5.66783342 766.304386,6.03350204 L766.304386,14.339362 Z" id="DYNAMICS" fill="url(#linearGradient-2)"></path>
                </g>
            </g>
        </g>
    </g>
</svg>