<?xml version="1.0" encoding="utf-8"?>
<!-- Generator: Adobe Illustrator 21.1.0, SVG Export Plug-In . SVG Version: 6.00 Build 0)  -->
<svg version="1.1" id="Layer_1" xmlns="http://www.w3.org/2000/svg" xmlns:xlink="http://www.w3.org/1999/xlink" x="0px" y="0px"
	 viewBox="0 0 118 96" style="enable-background:new 0 0 118 96;" xml:space="preserve">
<style type="text/css">
	.st0{fill:url(#Combined-Shape_1_);}
</style>
<title>Combined Shape</title>
<desc>Created with Sketch.</desc>
<g id="Page-1">
	<g id="Splash" transform="translate(-148.000000, -292.000000)">
		<g id="Group-2" transform="translate(132.000000, 292.000000)">
			
				<linearGradient id="Combined-Shape_1_" gradientUnits="userSpaceOnUse" x1="-1393.5507" y1="731.668" x2="-1393.2069" y2="732.0117" gradientTransform="matrix(117.1513 0 0 -96 163308.7344 70303)">
				<stop  offset="0" style="stop-color:#BD78FF"/>
				<stop  offset="1" style="stop-color:#6670FF"/>
			</linearGradient>
			<path id="Combined-Shape" class="st0" d="M74.6,33.6c0,0-0.2,0-0.7,0.6c-1,1.1-7.9,20.9-7.9,20.9s-3.8-16.9-4.8-21.6
				s-6.7,0.2-6.7,0.2s5,30.8,11.6,30.8c3.4,0,8.5-15,8.6-15.3c0.1,0.2,5.2,15.3,8.6,15.3c6.6,0,11.6-30.8,11.6-30.8S89,28.9,88,33.5
				c-1,4.6-4.8,21.6-4.8,21.6s-7-19.8-7.9-20.9C74.8,33.6,74.6,33.6,74.6,33.6L74.6,33.6z"/>
		</g>
	</g>
</g>
</svg>
