<?xml version="1.0" encoding="UTF-8"?>
<svg width="67px" height="55px" viewBox="0 0 67 55" version="1.1" xmlns="http://www.w3.org/2000/svg" xmlns:xlink="http://www.w3.org/1999/xlink">
    <!-- Generator: Sketch 50.2 (55047) - http://www.bohemiancoding.com/sketch -->
    <title>Combined Shape</title>
    <desc>Created with Sketch.</desc>
    <defs>
        <linearGradient x1="100%" y1="3.74939946e-31%" x2="1.11022302e-14%" y2="100%" id="linearGradient-1">
            <stop stop-color="#6F4EFF" offset="0%"></stop>
            <stop stop-color="#AD7AFF" offset="100%"></stop>
        </linearGradient>
    </defs>
    <g id="current" stroke="none" stroke-width="1" fill="none" fill-rule="evenodd">
        <g id="logo" transform="translate(-172.000000, -131.000000)" fill="url(#linearGradient-1)">
            <path d="M205.229167,134.773327 L205.229167,134.428608 C205.229167,134.428608 205.319047,134.424407 205.515625,134.551193 C205.712203,134.424407 205.802083,134.428608 205.802083,134.428608 L205.802083,134.773327 C205.955273,134.909423 206.141415,135.09922 206.363144,135.363898 C207.962769,137.273372 219.641196,170.257575 219.641196,170.257575 C219.641196,170.257575 226.053359,142.024563 227.751416,134.320347 C229.449472,126.616132 239.03125,134.732771 239.03125,134.732771 C239.03125,134.732771 230.70916,186 219.641196,186 C214.551901,186 207.064085,165.702095 205.515625,161.345671 C203.967165,165.702095 196.479349,186 191.390054,186 C180.32209,186 172,134.732771 172,134.732771 C172,134.732771 181.581778,126.616132 183.279834,134.320347 C184.977891,142.024563 191.390054,170.257575 191.390054,170.257575 C191.390054,170.257575 203.068481,137.273372 204.668106,135.363898 C204.889835,135.09922 205.075977,134.909423 205.229167,134.773327 Z" id="Combined-Shape"></path>
        </g>
    </g>
</svg>