<?xml version="1.0" encoding="UTF-8"?>
<svg width="49px" height="40px" viewBox="0 0 49 40" version="1.1" xmlns="http://www.w3.org/2000/svg" xmlns:xlink="http://www.w3.org/1999/xlink">
    <!-- Generator: Sketch 50.2 (55047) - http://www.bohemiancoding.com/sketch -->
    <title>Combined Shape</title>
    <desc>Created with Sketch.</desc>
    <defs>
        <linearGradient x1="0%" y1="6.123234e-15%" x2="100%" y2="100%" id="linearGradient-1">
            <stop stop-color="#7A5BFF" offset="0%"></stop>
            <stop stop-color="#A166FF" offset="100%"></stop>
        </linearGradient>
    </defs>
    <g id="current" stroke="none" stroke-width="1" fill="none" fill-rule="evenodd">
        <g id="logo" transform="translate(-172.000000, -131.000000)" fill="url(#linearGradient-1)">
            <path d="M196.166667,133.744238 L196.166667,133.493533 C196.166667,133.493533 196.232034,133.490478 196.375,133.582685 C196.517966,133.490478 196.583333,133.493533 196.583333,133.493533 L196.583333,133.744238 C196.694744,133.843216 196.83012,133.981251 196.991377,134.173744 C198.154741,135.562452 206.648143,159.550963 206.648143,159.550963 C206.648143,159.550963 211.311534,139.017864 212.546484,133.414798 C213.781435,127.811732 220.75,133.714743 220.75,133.714743 C220.75,133.714743 214.697571,171 206.648143,171 C202.946837,171 197.501152,156.237887 196.375,153.069579 C195.248848,156.237887 189.803163,171 186.101857,171 C178.052429,171 172,133.714743 172,133.714743 C172,133.714743 178.968565,127.811732 180.203516,133.414798 C181.438466,139.017864 186.101857,159.550963 186.101857,159.550963 C186.101857,159.550963 194.595259,135.562452 195.758623,134.173744 C195.91988,133.981251 196.055256,133.843216 196.166667,133.744238 Z" id="Combined-Shape"></path>
        </g>
    </g>
</svg>