<?xml version="1.0" encoding="UTF-8"?>
<svg width="360px" height="640px" viewBox="0 0 360 640" version="1.1" xmlns="http://www.w3.org/2000/svg" xmlns:xlink="http://www.w3.org/1999/xlink" style="background: #F6F6F6;">
    <!-- Generator: Sketch 49.3 (51167) - http://www.bohemiancoding.com/sketch -->
    <title>7.1.4 Conversation - Group - Text - No Name Avatars</title>
    <desc>Created with Sketch.</desc>
    <defs>
        <polygon id="path-1" points="360 0 0 0 0 50 360 50"></polygon>
        <filter x="-0.1%" y="-1.0%" width="100.3%" height="104.0%" filterUnits="objectBoundingBox" id="filter-2">
            <feOffset dx="0" dy="1" in="SourceAlpha" result="shadowOffsetOuter1"></feOffset>
            <feColorMatrix values="0 0 0 0 0.894117653   0 0 0 0 0.898039222   0 0 0 0 0.890196085  0 0 0 1 0" type="matrix" in="shadowOffsetOuter1"></feColorMatrix>
        </filter>
        <polygon id="path-3" points="0 0 360 0 360 24 0 24"></polygon>
        <polyline id="path-4" points="12.21 12.3316667 12.21 0.332666667 0.211666667 12.3316667 12.21 12.3316667"></polyline>
        <path d="M7.208,1.33266667 L6.208,1.33266667 L6.208,0.333 L2.20866667,0.333 L2.20866667,1.33266667 L1.20833333,1.33266667 C0.656333333,1.33266667 0.208666667,1.78033333 0.208666667,2.33233333 L0.208666667,12.3313333 C0.208666667,12.8836667 0.656333333,13.3316667 1.20833333,13.3316667 L7.208,13.3316667 C7.76033333,13.3316667 8.208,12.8836667 8.208,12.3313333 L8.208,2.33233333 C8.208,1.78033333 7.76033333,1.33266667 7.208,1.33266667" id="path-6"></path>
        <rect id="path-8" x="0" y="0" width="360" height="100"></rect>
        <filter x="-0.1%" y="-1.5%" width="100.3%" height="102.0%" filterUnits="objectBoundingBox" id="filter-9">
            <feOffset dx="0" dy="-1" in="SourceAlpha" result="shadowOffsetOuter1"></feOffset>
            <feColorMatrix values="0 0 0 0 0.894117653   0 0 0 0 0.898039222   0 0 0 0 0.890196085  0 0 0 1 0" type="matrix" in="shadowOffsetOuter1"></feColorMatrix>
        </filter>
    </defs>
    <g id="7.1.4-Conversation---Group---Text---No-Name-Avatars" stroke="none" stroke-width="1" fill="none" fill-rule="evenodd">
        <g id="appHeaderConversationDetail" transform="translate(0.000000, 24.000000)">
            <g id="Group">
                <g id="frameBgHeader">
                    <use fill="black" fill-opacity="1" filter="url(#filter-2)" xlink:href="#path-1"></use>
                    <use fill="#FFFFFF" fill-rule="evenodd" xlink:href="#path-1"></use>
                </g>
                <g id="Group-2" transform="translate(80.000000, 7.000000)">
                    <circle id="Mask-Copy-2" fill="#82CEAC" cx="18" cy="18" r="18"></circle>
                    <text id="#" font-family="NHaasGroteskTXStd-75Bd, Neue Haas Grotesk Text Std" font-size="18" font-weight="bold" fill="#333333">
                        <tspan x="12.249" y="24.5">#</tspan>
                    </text>
                </g>
                <g id="Group-3" transform="translate(40.000000, 7.000000)">
                    <circle id="Mask-Copy-2" fill="#ABE0F9" cx="18" cy="18" r="18"></circle>
                    <text id="#" font-family="NHaasGroteskTXStd-75Bd, Neue Haas Grotesk Text Std" font-size="18" font-weight="bold" fill="#333333">
                        <tspan x="12.249" y="24.5">#</tspan>
                    </text>
                </g>
                <g id="Group-2" transform="translate(120.000000, 7.000000)">
                    <circle id="Mask-Copy-2" fill="#F9B295" cx="18" cy="18" r="18"></circle>
                    <text id="TM" font-family="NHaasGroteskTXStd-75Bd, Neue Haas Grotesk Text Std" font-size="18" font-weight="bold" fill="#333333">
                        <tspan x="4.032" y="24.5">TM</tspan>
                    </text>
                </g>
                <text id="5-Member-Group" font-family="NHaasGroteskTXStd-75Bd, Neue Haas Grotesk Text Std" font-size="15" font-weight="bold" letter-spacing="0.300000012" fill="#57595D">
                    <tspan x="166" y="31">5 Member Group</tspan>
                </text>
                <g id="iconNavigationBack" transform="translate(10.000000, 5.000000)">
                    <rect id="bounding-box" fill-opacity="0" fill="#FFFFFF" x="0" y="0" width="20" height="40"></rect>
                    <path d="M8.60122176,20 L14.6270777,13.8698002 C15.1243074,13.3639605 15.1243074,12.5438497 14.6270777,12.0380099 L14.6270777,12.0380099 C14.129919,11.5321702 13.3237676,11.5321702 12.8265379,12.0380099 L5,20 L12.8265379,27.9619901 C13.3236965,28.4678298 14.129919,28.4678298 14.6270777,27.9619901 L14.6270777,27.9619901 C15.1243074,27.4561503 15.1243074,26.6360395 14.6270777,26.1301998 L8.60122176,20 Z" id="Fill-1" fill="#CD040B"></path>
                </g>
                <g id="iconNavigationOverflow-(Off)" transform="translate(330.000000, 5.000000)">
                    <rect id="bounding-box" fill-opacity="0" fill="#FFFFFF" x="0" y="0" width="20" height="40"></rect>
                    <path d="M11.2992832,20 C11.2992832,20.7363556 10.697491,21.3333333 9.95519713,21.3333333 C9.21290323,21.3333333 8.61111111,20.7363556 8.61111111,20 C8.61111111,19.2636444 9.21290323,18.6666667 9.95519713,18.6666667 C10.697491,18.6666667 11.2992832,19.2636444 11.2992832,20 L11.2992832,20 Z M9.95519713,24 C9.21290323,24 8.61111111,24.5969778 8.61111111,25.3333333 C8.61111111,26.0696889 9.21290323,26.6666667 9.95519713,26.6666667 C10.697491,26.6666667 11.2992832,26.0696889 11.2992832,25.3333333 C11.2992832,24.5969778 10.697491,24 9.95519713,24 L9.95519713,24 Z M9.95519713,13.3333333 C9.21290323,13.3333333 8.61111111,13.9303111 8.61111111,14.6666667 C8.61111111,15.4030222 9.21290323,16 9.95519713,16 C10.697491,16 11.2992832,15.4030222 11.2992832,14.6666667 C11.2992832,13.9303111 10.697491,13.3333333 9.95519713,13.3333333 L9.95519713,13.3333333 Z" id="Overflow" fill="#333333"></path>
                </g>
            </g>
        </g>
        <g id="andHeaderHandset-(Default)">
            <g id="frameAndroidHeader">
                <use fill="#CCCCCC" xlink:href="#path-3"></use>
                <use fill-opacity="0.200000003" fill="#000000" xlink:href="#path-3"></use>
            </g>
            <g id="Info" stroke-width="1" transform="translate(248.000000, 4.000000)">
                <g id="WiFi-Signal" transform="translate(0.000000, 2.000000)" fill="#E6E6E6">
                    <path d="M6.88,0.332666667 C4.37766667,0.332666667 2.05433333,1.09966667 0.131333333,2.41033333 L1.81866667,4.89066667 C3.26066667,3.90766667 5.003,3.33233333 6.88,3.33233333 C8.757,3.33233333 10.4993333,3.90766667 11.9416667,4.89066667 L13.6286667,2.41033333 C11.706,1.09966667 9.38266667,0.332666667 6.88,0.332666667" id="4" fill-opacity="0.500283062"></path>
                    <path d="M6.88,3.33233333 C5.003,3.33233333 3.26066667,3.90766667 1.81866667,4.89066667 L3.50633333,7.37133333 C4.46766667,6.716 5.62866667,6.332 6.88,6.332 C8.13133333,6.332 9.29266667,6.716 10.254,7.37133333 L11.9416667,4.89066667 C10.4993333,3.90766667 8.757,3.33233333 6.88,3.33233333" id="3"></path>
                    <path d="M6.88,6.332 C5.62866667,6.332 4.46766667,6.716 3.50633333,7.37133333 L5.193,9.85133333 C5.67366667,9.52366667 6.25433333,9.33166667 6.88,9.33166667 C7.50566667,9.33166667 8.08633333,9.52366667 8.567,9.85166667 L10.254,7.37133333 C9.29266667,6.716 8.13133333,6.332 6.88,6.332" id="2"></path>
                    <path d="M6.88,9.33166667 C6.25433333,9.33166667 5.67366667,9.52366667 5.193,9.85133333 L6.88,12.3316667 L8.567,9.85166667 C8.08633333,9.52366667 7.50566667,9.33166667 6.88,9.33166667" id="1"></path>
                </g>
                <g id="Tower-Signal" transform="translate(24.666667, 2.000000)">
                    <mask id="mask-5" fill="white">
                        <use xlink:href="#path-4"></use>
                    </mask>
                    <g id="frameTowerSignal"></g>
                    <polyline id="4" fill-opacity="0.500283062" fill="#E6E6E6" mask="url(#mask-5)" points="12.21 0.332666667 9.21066667 3.33233333 9.21066667 12.3316667 12.21 12.3316667 12.21 0.332666667"></polyline>
                    <polyline id="3" fill-opacity="0.500283062" fill="#E6E6E6" mask="url(#mask-5)" points="9.21066667 3.33233333 6.21066667 6.332 6.21066667 12.3316667 9.21066667 12.3316667 9.21066667 3.33233333"></polyline>
                    <polyline id="2" fill="#E6E6E6" mask="url(#mask-5)" points="6.21066667 6.332 3.211 9.332 3.211 12.3316667 6.21066667 12.3316667 6.21066667 6.332"></polyline>
                    <polyline id="1" fill="#E6E6E6" mask="url(#mask-5)" points="3.211 9.332 0.211666667 12.3316667 3.211 12.3316667 3.211 9.332"></polyline>
                </g>
                <g id="Battery" transform="translate(50.666667, 1.000000)">
                    <mask id="mask-7" fill="white">
                        <use xlink:href="#path-6"></use>
                    </mask>
                    <g id="Clip-14"></g>
                    <path d="M8.208,10.3316667 L0.208666667,10.3316667 L0.208666667,12.3313333 C0.208666667,12.8836667 0.656333333,13.3316667 1.20833333,13.3316667 L7.208,13.3316667 C7.76033333,13.3316667 8.208,12.8836667 8.208,12.3313333 L8.208,10.3316667" id="1" fill="#E6E6E6" mask="url(#mask-7)"></path>
                    <polygon id="2" fill="#E6E6E6" mask="url(#mask-7)" points="0.208666667 7.332 8.208 7.332 8.208 10.3316667 0.208666667 10.3316667"></polygon>
                    <polygon id="3" fill-opacity="0.5" fill="#FFFFFF" mask="url(#mask-7)" points="0.208666667 4.33233333 8.208 4.33233333 8.208 7.332 0.208666667 7.332"></polygon>
                    <path d="M7.208,1.33266667 L1.20833333,1.33266667 C0.656333333,1.33266667 0.208666667,1.78033333 0.208666667,2.33233333 L0.208666667,4.33233333 L8.208,4.33233333 L8.208,2.33233333 C8.208,1.78033333 7.76033333,1.33266667 7.208,1.33266667" id="4" fill-opacity="0.5" fill="#FFFFFF" mask="url(#mask-7)"></path>
                    <polygon id="5" fill-opacity="0.5" fill="#FFFFFF" mask="url(#mask-7)" points="2.20866667 0.333 6.20833333 0.333 6.20833333 1.333 2.20866667 1.333"></polygon>
                </g>
                <text id="12:52" font-family="Roboto-Regular, Roboto" font-size="12" font-weight="normal" fill="#FFFFFF">
                    <tspan x="71.5376458" y="11.8685242">12:52</tspan>
                </text>
            </g>
        </g>
        <g id="actionBar-(Pre-Message---Not-Focused)" transform="translate(0.000000, 540.000000)">
            <g id="actionBar-(Message)">
                <use fill="black" fill-opacity="1" filter="url(#filter-9)" xlink:href="#path-8"></use>
                <use fill="#FFFFFF" fill-rule="evenodd" xlink:href="#path-8"></use>
            </g>
            <text id="Enter-Text" font-family="NHaasGroteskTXStd-55Rg, Neue Haas Grotesk Text Std" font-size="15" font-weight="normal" fill="#959595">
                <tspan x="50" y="76">Enter Text</tspan>
            </text>
            <g id="iconMessageActionSend-(Inactive)" transform="translate(314.000000, 50.000000)">
                <rect id="bounding-box" fill-opacity="0" fill="#FFFFFF" x="0" y="0" width="40" height="40"></rect>
                <path d="M10.0921847,25.6198779 C9.84996251,26.4421001 10.3055181,26.8665445 11.1088514,26.5621001 L27.6499625,20.2798779 C28.4521847,19.9754334 28.4488514,19.4854334 27.6432958,19.1876557 L11.0699625,13.0943223 C10.2655181,12.7976557 9.81551807,13.2243223 10.0721847,14.0443223 L10.9755181,16.9254334 C11.2310736,17.7454334 12.1377403,18.5076557 12.9877403,18.620989 L19.6810736,19.5187668 C20.5321847,19.6332112 20.5310736,19.8132112 19.6799625,19.920989 L13.0232958,20.7576557 C12.1721847,20.8632112 11.2755181,21.6232112 11.0310736,22.4476557 L10.0921847,25.6198779" id="Imported-Layers" fill="#959595" opacity="0.5"></path>
            </g>
            <g id="iconMessageActionEmoji" transform="translate(269.000000, 50.000000)">
                <rect id="Frame" fill-opacity="0" fill="#FFFFFF" x="0" y="0" width="40" height="40"></rect>
                <path d="M20.4165278,10 C14.6726389,10 10,14.6729167 10,20.4166667 C10,26.1602778 14.6726389,30.8333333 20.4165278,30.8333333 C26.1605556,30.8333333 30.8333333,26.1605556 30.8333333,20.4166667 C30.8333333,14.6727778 26.1602778,10 20.4165278,10 L20.4165278,10 Z M20.4165278,29.2747222 C15.5323611,29.2747222 11.5586111,25.3009722 11.5586111,20.4166667 C11.5586111,15.5323611 15.5323611,11.55875 20.4165278,11.55875 C25.3009722,11.55875 29.2745833,15.5323611 29.2745833,20.4166667 C29.2745833,25.3009722 25.3009722,29.2747222 20.4165278,29.2747222 L20.4165278,29.2747222 Z M25.7020833,23.5997222 C24.6040278,25.3895833 22.5901389,26.5013889 20.4469444,26.5013889 C18.2472222,26.5013889 16.2073611,25.3455556 15.1230556,23.4851389 C14.9363889,23.1648611 15.0447222,22.7540278 15.3648611,22.5676389 C15.685,22.3806944 16.0956944,22.4893056 16.2822222,22.8093056 C17.1272222,24.2591667 18.7230556,25.1597222 20.4469444,25.1597222 C22.1270833,25.1597222 23.7026389,24.2931944 24.5588889,22.8980556 C24.7527778,22.5823611 25.1661111,22.4834722 25.4813889,22.6773611 C25.7972222,22.8709722 25.89625,23.2841667 25.7020833,23.5997222 L25.7020833,23.5997222 Z M19.02375,17.4634722 C19.02375,18.3605556 18.2965278,19.0877778 17.3995833,19.0877778 C16.5026389,19.0877778 15.7754167,18.3605556 15.7754167,17.4634722 C15.7754167,16.5665278 16.5026389,15.8393056 17.3995833,15.8393056 C18.2965278,15.8393056 19.02375,16.5665278 19.02375,17.4634722 L19.02375,17.4634722 Z M25.0576389,17.4634722 C25.0576389,18.3605556 24.3304167,19.0877778 23.4333333,19.0877778 C22.5363889,19.0877778 21.8091667,18.3605556 21.8091667,17.4634722 C21.8091667,16.5665278 22.5363889,15.8393056 23.4333333,15.8393056 C24.3304167,15.8393056 25.0576389,16.5665278 25.0576389,17.4634722 L25.0576389,17.4634722 Z" id="Emoji" fill="#333333"></path>
            </g>
            <g id="iconMessageActionAttach" transform="translate(6.000000, 50.000000)">
                <rect id="Frame" fill-opacity="0" fill="#FFFFFF" x="0" y="0" width="40" height="40"></rect>
                <polygon id="Plus" fill="#333333" transform="translate(20.283786, 20.000000) rotate(-45.000000) translate(-20.283786, -20.000000) " points="21.3397864 19.9578333 26.5675729 14.7317136 25.5115729 13.6763802 20.2837864 18.9021667 15.056 13.6763802 14 14.7317136 19.2277864 19.9578333 19.1897864 19.9958333 19.2277864 20.0411667 14.0003333 25.2679531 15.0563333 26.3236198 20.2837864 21.0971667 25.5112395 26.3236198 26.5672395 25.2679531 21.3397864 20.0411667"></polygon>
            </g>
        </g>
        <g id="composerSwitch" transform="translate(0.000000, 540.000000)">
            <polygon id="actionBarTabBG" fill="#FFFFFF" points="360 0 0 0 0 40 360 40"></polygon>
            <g id="actionBarTabBG-+-From-Business-Line" transform="translate(126.000000, 12.000000)">
                <text id="Call" font-family="NHaasGroteskTXStd-55Rg, Neue Haas Grotesk Text Std" font-size="12" font-weight="normal" fill="#333333">
                    <tspan x="-0.632" y="12.5">Call</tspan>
                </text>
                <text id="Message" font-family="NHaasGroteskTXStd-75Bd, Neue Haas Grotesk Text Std" font-size="13" font-weight="bold" fill="#57595D">
                    <tspan x="84" y="13.5">Message</tspan>
                </text>
            </g>
            <g id="composerSwitchRight" transform="translate(159.500000, 10.000000)">
                <rect id="bounds" x="0" y="0" width="40" height="20"></rect>
                <path d="M30,17 L10,17 C6.1,17 3,13.9 3,10 C3,6.1 6.1,3 10,3 L30,3 C33.9,3 37,6.1 37,10 C37,13.9 33.9,17 30,17 Z" id="track" fill="#D1D3D4" fill-rule="evenodd"></path>
                <circle id="knob" fill="#4B4B4B" fill-rule="evenodd" cx="30" cy="10" r="10"></circle>
            </g>
        </g>
        <g id="Conversation" transform="translate(0.000000, 198.000000)">
            <g id="Rectangle-199-+-Rectangle-202-+-Type-something-+-Rectangle-199-+-Rectangle-202-+-Type-something-+-Rectangle-199-+-Rectangle-201-+-Type-something">
                <g id="Rectangle-199-+-Rectangle-202-+-Type-something" transform="translate(50.000000, 80.000000)">
                    <rect id="Rectangle-199" fill="#4B4B4B" x="0" y="0" width="300" height="36" rx="3"></rect>
                    <polygon id="Rectangle-202" fill="#4B4B4B" points="280 36 290 36 290 46"></polygon>
                    <text id="So,-I’d-love-to-know" font-family="NHaasGroteskTXStd-55Rg, Neue Haas Grotesk Text Std" font-size="14" font-weight="normal" line-spacing="18" fill="#FFFFFF">
                        <tspan x="10" y="23">So, I’d love to know more about the text box.</tspan>
                    </text>
                </g>
                <g id="Timestamp" transform="translate(0.000000, 126.000000)">
                    <rect id="Frame" fill-opacity="0" fill="#FFFFFF" x="0" y="0" width="360" height="56"></rect>
                    <path d="M0.5,29.5 L132.685471,29.5" id="Line" stroke="#D1D3D4" stroke-linecap="square"></path>
                    <path id="Line-decoration-1" d="M0.5,26.5 L0.5,32.5" stroke="#D1D3D4" stroke-linecap="square"></path>
                    <path id="Line-decoration-2" d="M132.685471,26.5 L132.685471,32.5" stroke="#D1D3D4" stroke-linecap="square"></path>
                    <text id="12:52pm" font-family="Roboto-Regular, Roboto" font-size="12" font-weight="normal" fill="#A8A8A8">
                        <tspan x="156.445312" y="32">12:52pm</tspan>
                    </text>
                </g>
                <g id="Rectangle-199-+-Rectangle-201-+-Type-something" transform="translate(10.000000, 182.000000)">
                    <g id="Group-2" transform="translate(0.000000, 42.000000)">
                        <circle id="Mask-Copy-2" fill="#82CEAC" cx="9" cy="9" r="9"></circle>
                        <text id="#" font-family="NHaasGroteskTXStd-55Rg, Neue Haas Grotesk Text Std" font-size="10" font-weight="normal" fill="#333333">
                            <tspan x="6.19" y="12.96">#</tspan>
                        </text>
                    </g>
                    <rect id="Rectangle-199" fill="#FFFFFF" x="0" y="0" width="300" height="36" rx="3"></rect>
                    <polygon id="Rectangle-201" fill="#FFFFFF" points="10 36 20 36 10 46"></polygon>
                    <text id="The-max-width-of-a-t" font-family="NHaasGroteskTXStd-55Rg, Neue Haas Grotesk Text Std" font-size="14" font-weight="normal" line-spacing="18" fill="#57595D">
                        <tspan x="10" y="23">The max width of a text box is 300px.</tspan>
                    </text>
                </g>
                <g id="Rectangle-199-+-Rectangle-201-+-Type-something" transform="translate(10.000000, 0.000000)">
                    <g id="Group-3" transform="translate(0.000000, 42.000000)">
                        <circle id="Mask-Copy-2" fill="#ABE0F9" cx="9" cy="9" r="9"></circle>
                        <text id="#" font-family="NHaasGroteskTXStd-55Rg, Neue Haas Grotesk Text Std" font-size="10" font-weight="normal" fill="#333333">
                            <tspan x="6.19" y="12.96">#</tspan>
                        </text>
                    </g>
                    <rect id="Rectangle-199" fill="#FFFFFF" x="0" y="0" width="300" height="36" rx="3"></rect>
                    <polygon id="Rectangle-201" fill="#FFFFFF" points="10 36 20 36 10 46"></polygon>
                    <text id="The-max-width-of-a-t" font-family="NHaasGroteskTXStd-55Rg, Neue Haas Grotesk Text Std" font-size="14" font-weight="normal" line-spacing="18" fill="#57595D">
                        <tspan x="10" y="23">The max width of a text box is 300px.</tspan>
                    </text>
                </g>
                <g id="Rectangle-199-+-Rectangle-201-+-Type-something" transform="translate(10.000000, 262.000000)">
                    <g id="Group-2" transform="translate(0.000000, 42.000000)">
                        <circle id="Mask-Copy-2" fill="#F9B295" cx="9" cy="9" r="9"></circle>
                        <text id="TM" font-family="NHaasGroteskTXStd-55Rg, Neue Haas Grotesk Text Std" font-size="10" font-weight="normal" fill="#333333">
                            <tspan x="1.625" y="12.96">TM</tspan>
                        </text>
                    </g>
                    <rect id="Rectangle-199" fill="#FFFFFF" x="0" y="0" width="300" height="36" rx="3"></rect>
                    <polygon id="Rectangle-201" fill="#FFFFFF" points="10 36 20 36 10 46"></polygon>
                    <text id="The-max-width-of-a-t" font-family="NHaasGroteskTXStd-55Rg, Neue Haas Grotesk Text Std" font-size="14" font-weight="normal" line-spacing="18" fill="#57595D">
                        <tspan x="10" y="23">The max width of a text box is 300px.</tspan>
                    </text>
                </g>
            </g>
        </g>
    </g>
</svg>