<?xml version="1.0" encoding="UTF-8"?>
<svg width="153px" height="33px" viewBox="0 0 153 33" version="1.1" xmlns="http://www.w3.org/2000/svg" xmlns:xlink="http://www.w3.org/1999/xlink">
    <!-- Generator: Sketch 45.2 (43514) - http://www.bohemiancoding.com/sketch -->
    <title>Page 1</title>
    <desc>Created with Sketch.</desc>
    <defs></defs>
    <g id="Page-1" stroke="none" stroke-width="1" fill="none" fill-rule="evenodd">
        <g id="Desktop-Copy-2" transform="translate(-329.000000, -1064.000000)">
            <g id="Page-1" transform="translate(329.000000, 1064.000000)">
                <polygon id="Fill-1" fill="#CD040B" points="149.671244 0 141.458952 17.7266071 138.355353 11 135 11 140.095854 22 142.807605 22 153 0"></polygon>
                <path d="M61.0805519,8.87305686 L67.8673317,8.87305686 L67.8673317,3 L61.0805519,3 L61.0805519,8.87305686 Z M7.69462055,32.3235926 L14.7839362,32.3235926 L22.4783237,10.6906311 L15.6915439,10.6906311 L11.36887,24.5917255 L11.2823979,24.5917255 L6.95972404,10.6906311 L0,10.6906311 L7.69462055,32.3235926 Z M32.5936976,14.7889445 C34.9710983,14.7889445 36.6136025,16.5213129 36.8730188,19.0565306 L27.83843,19.0565306 C28.3572627,16.4789377 29.7837032,14.7889445 32.5936976,14.7889445 L32.5936976,14.7889445 Z M32.939353,28.183132 C29.9566474,28.183132 28.1409659,26.2817187 27.7953105,23.3662639 L43.7460377,23.3662639 C43.7893903,18.7186686 42.5358941,15.0001367 39.899077,12.676339 C38.0400429,10.9863458 35.5761701,10.0568267 32.4638728,10.0568267 C25.8069178,10.0568267 21.1814749,15.0001367 21.1814749,21.4648507 C21.1814749,27.9717119 25.5906209,32.9576249 32.8962335,32.9576249 C35.6628753,32.9576249 37.8673317,32.239298 39.6827802,31.0136086 C41.6282864,29.7038525 43.0111412,27.8028949 43.4003822,25.9014816 L36.9161384,25.9014816 C36.267714,27.3379075 34.9277457,28.183132 32.939353,28.183132 L32.939353,28.183132 Z M45.3456554,32.3235926 L52.0890826,32.3235926 L52.0890826,22.3943697 C52.0890826,17.8734442 54.8557244,15.8877363 59.0916931,16.4367904 L59.2215178,16.4367904 L59.2215178,10.7327785 C58.8758624,10.6061087 58.4868544,10.5637336 57.8381969,10.5637336 C55.2013798,10.5637336 53.4290509,11.74682 51.9161384,14.2818098 L51.7865467,14.2818098 L51.7865467,10.6906311 L45.3456554,10.6906311 L45.3456554,32.3235926 Z M61.0805519,32.3235926 L67.8673317,32.3235926 L67.8673317,10.6904033 L61.0805519,10.6904033 L61.0805519,32.3235926 Z M69.726832,32.3235926 L88.6602648,32.3235926 L88.6602648,27.1267153 L77.9400522,27.1267153 L77.9400522,27.0000456 L88.1850177,15.7608387 L88.1850177,10.6906311 L69.726832,10.6906311 L69.726832,15.8877363 L80.1011561,15.8877363 L80.1011561,16.0141782 L69.726832,27.3379075 L69.726832,32.3235926 Z M100.634207,28.1409847 C97.4352042,28.1409847 95.7495805,25.5212445 95.7495805,21.5493731 C95.7495805,17.5353544 97.4352042,14.9579894 100.634207,14.9579894 C103.832976,14.9579894 105.605305,17.5353544 105.605305,21.5493731 C105.605305,25.5212445 103.832976,28.1409847 100.634207,28.1409847 L100.634207,28.1409847 Z M100.677326,10.098974 C93.631363,10.098974 88.9196811,15.0425118 88.9196811,21.5493731 C88.9196811,28.0138593 93.631363,33 100.677326,33 C107.723522,33 112.435437,28.0138593 112.435437,21.5493731 C112.435437,15.0425118 107.723522,10.098974 100.677326,10.098974 L100.677326,10.098974 Z M113.90523,32.3235926 L120.648657,32.3235926 L120.648657,20.2819921 C120.648657,17.5353544 122.291162,15.5917938 124.711915,15.5917938 C127.046196,15.5917938 128.256573,17.1974924 128.256573,19.478915 L128.256573,32.3235926 L135,32.3235926 L135,18.2115339 C135,13.4368132 132.060647,10.0568267 127.305379,10.0568267 C124.279787,10.0568267 122.16157,11.3242077 120.562185,13.6482332 L120.432128,13.6482332 L120.432128,10.6906311 L113.90523,10.6906311 L113.90523,32.3235926 Z" id="Fill-2" fill="#000000"></path>
            </g>
        </g>
    </g>
</svg>